<svg width="328" height="1109" viewBox="0 0 328 1109" fill="none" xmlns="http://www.w3.org/2000/svg">
<path d="M424.69 907.242L422.907 906.438L414.555 904.587L409.165 902.032L408.365 901.991L406.554 902.448L405.737 902.286L405.007 901.577L404.443 900.018L403.93 899.253L402.232 897.882L400.791 897.355L393.113 897.819L383.718 897.152L379.692 897.412L378.112 896.659L376.247 894.531L373.478 889.954L372.101 888.638L367.882 886.604L363.449 886.165L349.695 888.457L347.399 888.497L345.155 888.055L342.842 886.797L338.367 883.398L337.31 883.01L336.004 882.53L335.034 882.627L333.069 883.412L332.086 883.647L330.94 883.487L327.634 882.159L324.875 882.165L323.294 883.131L321.935 884.496L319.863 885.737L315.208 885.307L312.438 881.411L311.675 876.115L313.033 871.482L296.622 869.455L294.19 870.025L290.864 872.511L288.812 873.603L286.677 873.903L284.781 873.467L273.444 867.091L270.519 864.17L269.056 859.702L268.483 855.702L267.353 853.085L264.982 851.623L260.742 851.056L258.9 850.228L256.239 847.926L254.449 847.304L252.832 847.417L251.415 847.782L250.033 847.849L248.485 847.126L248.015 846.427L247.38 844.529L246.886 843.911L245.865 843.495L245.546 843.689L245.334 844.149L244.622 844.559L243.436 845.003L238.244 847.762L237.508 848.423L236.655 848.864L235.26 848.842L234.004 848.156L231.608 845.748L230.248 845.077L227.698 845.449L226.13 846.58L225.989 846.357L225.851 843.223L225.391 842.034L224.199 841.725L221.817 840.238L221.144 836.282L221.326 829.464L218.893 826.313L211.987 823.266L209.693 820.641L209.347 820.885L209.222 820.903L209.174 821.006L209.06 821.536L207.641 820.327L205.935 817.359L204.548 816.145L202.946 815.64L201.469 815.341L200.313 814.61L199.631 812.78L199.55 811.794L199.584 811.371L199.56 810.989L199.259 810.228L198.923 809.891L198.378 809.424L197.805 808.768L197.035 806.758L196.295 805.836L195.817 804.748L195.998 803.145L196.777 803.032L196.967 803.455L197.585 804.425L197.849 802.522L197.27 800.516L196.247 798.735L195.149 797.319L193.587 798.608L193.18 799.086L191.827 797.451L190.861 795.406L189.862 790.955L189.29 789.655L186.607 786.543L185.272 785.259L182.691 783.708L181.591 782.711L180.265 779.08L178.994 777.786L176.094 775.801L167.891 760.163L166.61 759.676L165.624 758.315L164.747 756.676L163.935 755.478L162.72 754.788L159.656 753.854L158.389 753.237L157.384 751.81L156.539 749.942L155.396 748.44L153.513 747.975L152.797 746.764L147.51 739.99L148.686 736.062L148.949 733.938L147.631 733.2L147.546 732.185L148.215 726.95L148.267 724.92L146.976 720.871L141.093 711.749L139.385 708.117L138.742 707.634L137.235 707.34L136.856 706.273L137.003 705.095L137.164 704.463L136.479 702.607L135.113 700.881L133.455 699.551L131.862 698.886L132.396 697.524L132.975 697.567L133.636 698.176L134.418 698.51L137.347 698.083L138.684 696.99L138.507 694.899L137.744 692.508L137.334 690.58L137.696 689.79L138.918 688.36L139.148 687.75L138.51 683.385L136.916 681.406L131.122 678.789L130.193 677.45L127.463 676.181L119.366 669.349L116.948 665.439L115.779 662.884L115.764 661.7L111.06 657.164L107.87 651.892L106.803 651.117L104.887 650.853L102.86 649.835L90.534 641.062L89.0993 639.092L88.1775 637.145L86.3446 635.715L84.0519 634.833L81.7207 634.564L76.9387 635.39L72.6383 637.332L65.1597 643.006L64.7317 640.505L63.2385 639.218L59.2183 637.852L53.4695 634.239L42.3799 623.913L40.9294 621.82L40.0447 620.988L37.4469 620.631L36.2366 619.975L35.5774 618.95L35.9525 617.806L36.8898 615.716L36.9382 613.211L35.1769 606.167L34.4368 599.36L34.8432 597.124L36.2312 594.2L38.0022 591.509L39.6941 590.013L40.731 589.926L42.7091 590.821L43.9032 590.936L44.6547 590.41L50.6268 582.913L52.8291 581.215L55.2756 580.313L54.9465 578.282L55.0604 574.265L54.811 572.126L53.0724 567.421L38.0567 543.927L35.5699 541.508L30.0453 537.679L27.4603 535.018L26.0234 531.711L26.0542 529.308L26.5929 526.671L27.5235 524.105L28.6253 522.057L28.9845 520.151L28.7418 517.404L28.212 514.86L27.7399 513.587L28.4778 513.191L28.758 512.926L29.1091 512.94L29.9521 513.264L30.1862 511.822L29.1533 509.768L29.629 508.452L30.2984 507.363L30.2298 506.671L29.8355 505.93L29.475 504.769L29.1081 504.438L28.4886 504.561L27.9441 504.545L27.8437 503.857L28.1489 503.334L28.5705 503.177L28.976 503.118L29.2014 502.924L29.4883 502.275L29.8343 501.808L30.1484 501.123L30.2206 499.865L29.7983 497.403L28.7836 495.027L27.3337 492.938L24.2933 489.995L23.356 488.15L23.67 487.241L23.8226 486.549L23.6993 485.928L23.1183 485.438L22.5169 485.463L21.9292 485.581L21.4962 485.451L19.4493 483.417L18.2893 482.66L16.1134 482.371L13.1352 481.592L12.3287 481.295L11.3714 480.411L10.7809 479.635L10.0129 478.949L8.56353 478.393L7.45387 478.204L4.16635 478.365L2.16829 477.987L2.06321 477.267L4.6093 474.211L4.57045 473.514L3.85937 472.787L2.9522 472.024L2.29341 471.225L1.98312 470.184L0.93495 462.574L2.02783 435.173L1.60839 428.84L5.23665 429.156L9.60885 428.865L10.1181 428.981L11.2009 427.858L11.3488 426.614L11.2037 425.234L11.3792 423.673L11.9544 422.95L13.6378 421.841L14.0526 420.85L14.0243 419.083L14.1609 418.681L15.7247 417.377L16.8728 417.355L18.1064 417.769L19.9225 417.807L20.8059 417.353L26.0438 413.887L29.3191 409.765L32.6504 407.171L33.5961 406.149L35.7548 404.478L36.8434 402.593L38.601 395.725L39.4638 393.986L45.7981 386.921L48.4248 382.56L50.2808 377.896L50.461 377.185L51.5273 372.963L52.2497 365.05L53.2022 362.692L57.9278 356.178L60.9699 348.544L63.3952 346.442L68.3426 347.298L68.4313 345.382L67.8605 343.774L67.021 342.227L66.312 340.504L66.1408 338.515L66.1336 338.436L66.598 336.419L69.9615 328.906L70.4672 326.816L70.2221 324.87L69.6589 322.779L70.0486 321.424L72.6885 318.876L72.8894 318.411L73.1018 317.103L73.3276 316.734L75.0513 316.213L75.2625 316.204L75.3465 316.394L77.3481 315.934L77.4292 315.688L77.4752 314.741L77.6002 314.454L80.323 313.395L81.0128 313.025L81.7484 312.167L82.8882 310.321L87.5187 307.283L89.9041 304.181L89.6271 301.333L86.1771 300.055L85.3793 299.759L86.9837 297.129L88.7093 294.973L90.8336 293.186L93.5675 291.668L94.8451 291.315L95.7941 290.582L96.3343 289.53L96.4729 288.221L99.4787 289.205L102.369 288.447L104.664 286.331L105.847 283.249L105.702 282.643L104.956 280.827L104.787 280.056L105.973 277.699L106.523 275.034L106.516 273.68L106.213 272.358L105.665 271.666L104.144 270.858L103.649 270.113L103.647 269.487L103.944 267.999L103.845 267.443L102.586 266.127L99.6227 264.053L98.871 262.573L99.3252 260.783L102.051 256.523L102.285 255.91L102.807 254.544L100.331 254.883L95.5855 256.986L93.144 257.565L91.6884 257.353L89.032 256.119L87.6602 255.827L86.365 256.105L85.3706 256.675L84.3045 257.111L82.8477 257.009L82.4959 256.59L81.9479 254.9L81.5798 254.295L81.0741 254.054L79.5864 253.667L72.1083 250.552L71.2277 250.535L69.83 251.299L68.7229 252.523L67.0496 255.72L66.5754 256.037L66.5568 255.998L65.9184 254.745L64.8664 253.97L64.1298 253.217L64.4422 251.985L62.4397 251.74L60.6097 250.463L57.4615 247.421L56.965 245.625L57.8357 243.093L59.6875 239.633L59.3324 236.933L59.4364 235.239L60.0868 233.724L65.2419 226.438L65.6329 224.334L63.3352 225.587L59.7918 227.872L57.6676 228.932L55.6073 229.211L54.2646 228.243L54.2937 225.576L54.966 224.135L57.1443 221.367L57.9678 219.894L58.2655 218.71L58.6386 215.221L61.2274 204.853L62.3176 202.4L65.1806 197.474L67.0515 195.971L69.3477 195.926L71.741 196.249L73.9398 195.805L74.9813 194.636L76.0751 191.568L77.1503 190.437L78.4903 190.051L79.681 190.246L85.6057 192.167L86.5002 192.249L87.4257 191.845L88.1282 191.296L89.5532 190.719L91.0525 189.537L92.7145 188.49L93.947 187.293L94.7509 185.151L94.8839 182.928L93.3774 175.743L93.6156 170.945L95.537 158.619L94.2025 155.672L92.8449 154.305L90.9949 152.92L88.947 152.246L87.0285 152.962L87.5232 146.592L86.7956 143.836L83.548 143.797L83.9478 142.867L84.4925 142.082L86.0136 140.486L84.9282 138.71L85.2867 136.992L86.1334 135.247L86.4507 133.366L84.9876 129.241L84.453 128.178L85.2421 125.088L84.8366 124.152L83.6849 122.843L83.3651 122.331L83.2329 121.188L83.3807 112.636L83.0697 109.897L81.9714 107.766L79.5963 109.097L77.7478 108.035L76.3824 105.797L74.7987 102.139L74.209 101.396L72.6924 100.187L70.5989 98.1007L69.769 96.8124L70.2441 96.1164L70.391 94.82L70.1857 92.0333L69.1807 89.3525L66.9411 88.4045L64.8196 88.4128L57.4473 86.8395L56.3866 86.3915L54.58 85.1115L53.3482 84.4868L50.0409 83.6514L48.5233 82.8213L47.7067 81.208L47.6999 80.4045L47.8593 79.7438L48.032 79.248L48.0879 78.9038L47.7495 78.0706L46.5774 76.9342L45.6383 74.8683L43.2461 71.9542L42.3754 70.505L41.5597 67.8291L41.0159 67.2384L39.5771 66.4879L39.1575 66.6728L38.5217 67.1451L37.6981 67.3998L36.677 66.9113L36.4102 66.302L36.602 65.6256L36.9131 64.9644L37.0471 64.3073L36.486 62.9148L34.7875 62.0786L34.271 60.9917L34.4316 59.7453L35.0774 58.465L35.7879 57.4657L35.8922 57.3182L36.6449 56.5036L37.9747 56.433L38.8389 56.8425L39.4728 57.3527L40.1094 57.5395L41.369 57.2558L43.2723 56.5096L48.5399 55.2374L50.8846 55.1531L53.551 55.5791L54.734 54.2658L57.9346 49.7069L59.3509 48.6848L63.1824 46.8287L66.864 44.1684L70.7443 44.5624L72.5515 45.1485L79.39 44.1501L98.7802 41.3191L118.16 38.4896L120.419 38.1597L137.546 35.6591L156.932 32.8287L173.596 30.3957L172.353 33.4979L172.786 35.3776L174.276 35.9884L176.402 34.6285L177.468 33.8678L177.961 31.7902L178.025 29.7533L179.463 29.5435L179.499 29.6878L179.635 30.8453L180 31.8112L180.629 31.7519L181.385 31.2599L182.221 30.8841L183.591 31.3216L183.082 32.8595L181.893 34.5293L181.036 35.4177L181.972 37.0309L182.19 38.3044L182.252 39.6007L182.532 41.0885L183.283 42.3167L184.32 43.5336L185.122 44.659L185.103 45.6158L184.408 48.2651L185.076 58.5149L184.588 61.7064L182.972 66.3355L182.973 70.9213L182.317 73.4045L182.278 74.8738L182.751 78.1158L182.792 79.7014L182.498 81.1776L177.853 79.8826L177.599 82.9445L178.683 87.5306L177.972 90.7222L180.466 93.6387L180.108 96.2063L178.575 99.0105L177.424 102.683L177.719 111.237L176.752 114.435L176.499 116.192L176.549 123.509L175.856 126.605L172.125 132.883L171.221 135.849L171.052 139.059L171.443 142.825L172.562 142.852L172.983 142.248L173.216 141.449L173.79 141.014L174.863 140.953L175.505 140.987L176.102 140.932L177.063 140.536L177.845 139.784L178.38 138.878L179.223 138.117L181.076 137.719L180.305 140.952L180.234 142.428L179.817 143.285L179.74 143.838L180.022 144.243L181.205 144.932L181.531 145.426L181.392 146.656L180.232 148.736L179.972 149.793L180.234 150.711L181.466 151.741L181.794 152.459L180.429 157.053L179.951 157.919L180.408 158.871L179.209 165.48L179.726 168.59L179.476 169.487L178.575 170.956L178.163 171.845L178.058 172.656L178.331 174.75L178.75 176.089L179.678 176.559L181.539 176.224L184.064 174.55L185.82 172.414L187.887 170.87L191.16 171.06L190.887 172.246L190.671 172.725L192.366 173.21L193.446 174.072L193.416 174.746L191.696 174.741L192.094 176.817L192.623 178.045L194.728 180.255L196.257 180.478L197.011 180.845L196.539 182.634L196.871 183.381L197.39 184.101L197.629 184.862L197.269 186.315L196.584 187.723L195.492 188.966L193.922 189.991L192.321 190.353L190.895 190.401L190.001 190.818L189.846 192.369L190.675 194.128L192.004 194.509L193.291 194.607L194.002 195.555L194.849 201.357L195.635 202.166L197.13 201.724L200.221 200.221L203.395 199.726L205.103 199.22L206.309 198.535L206.284 200.323L205.377 200.646L204.096 200.386L202.912 200.559L202.426 200.949L202.24 201.2L202.272 201.642L202.39 202.453L202.424 203.339L202.162 203.505L201.709 203.443L200.583 204.022L199.198 204.129L198.646 204.495L198.154 205.491L198.245 206.115L198.537 206.582L198.633 207.015L197.692 209.733L197.698 211.739L197.646 212.257L197.949 212.373L199.908 212.054L200.524 212.125L200.945 212.829L201.285 214.501L201.205 219.834L201.64 222.383L203.369 224.201L204.688 223.213L206.117 221.666L207.265 219.938L207.741 218.402L207.261 217.07L205.31 213.529L205.046 212.802L205.342 212.44L205.078 211.714L204.338 210.356L204.427 209.228L204.928 208.518L205.639 207.937L206.434 207.055L207.466 206.714L208.703 207.552L209.589 209.049L209.573 210.676L211.179 209.899L213.084 209.43L212.51 208.334L211.671 204.983L211.521 203.73L211.252 202.974L210.815 202.591L210.635 202.235L211.198 201.516L211.724 201.406L212.043 202.06L212.239 203.625L214.836 202.45L215.759 203.749L215.895 205.767L216.041 206.765L218.526 207.007L219.337 208.417L219.615 210.543L220.303 212.865L221.822 214.109L223.795 214.107L225.413 212.979L225.905 210.9L225.354 209.961L223.19 208.651L222.465 208.056L222.281 207.222L222.14 205.172L221.937 204.436L221.392 203.974L220.606 203.611L219.802 202.901L218.9 200.643L218.055 199.652L217.112 198.866L216.31 198.601L215.406 198.51L214.61 198.084L214.132 197.421L214.246 196.671L214.881 196.004L215.647 195.797L216.556 195.696L217.747 195.362L218.349 195.337L218.805 195.622L219.333 195.545L220.19 194.654L220.37 194.151L220.409 193.54L220.299 193.014L219.921 192.813L219.47 192.337L219.497 189.688L219.338 188.82L218.361 186.701L218.969 184.765L220.313 184.154L221.53 185.952L222.248 185.847L222.056 184.761L222.054 183.87L222.18 182.991L222.426 182.063L223.246 183.314L226.078 185.704L227.538 187.211L227.736 186.386L227.923 186.135L227.825 185.894L227.235 185.119L228.039 184.746L228.978 184.641L229.962 184.849L230.983 185.305L230.844 186.314L231.68 187.243L232.951 187.663L234.232 187.062L235.218 189.021L235.313 189.898L237.132 188.614L237.337 186.96L237.26 185.347L238.308 184.237L237.349 182.688L236.228 181.991L234.947 181.508L233.043 180.448L231.361 180.056L230.55 179.728L230.09 179.19L229.68 177.912L229.117 177.324L228.092 177.06L226.839 176.987L225.763 176.602L225.144 175.417L224.987 173.912L225.005 172.508L225.277 171.322L225.905 170.401L226.404 170.552L230.355 170.133L230.929 171.229L232.093 171.792L233.533 171.838L234.896 171.353L236.52 169.173L238.475 163.598L240.43 163.25L240.312 159.826L239.932 158.097L239.168 157.443L238.712 157.159L238.648 156.498L239.066 155.864L240.018 155.853L240.428 156.271L241.346 157.984L241.931 158.503L243.781 158.743L244.977 158.217L245.977 157.433L247.242 156.93L248.573 156.673L249.019 156.671L251.691 161.027L252.807 161.692L254.635 161.777L255.325 161.932L254.931 162.499L253.739 163.501L253.778 163.114L253.079 162.897L252.117 162.847L251.477 163.036L251.381 165.216L253.671 167.59L256.484 169.855L256.368 171.242L258.017 172.721L260.61 172.82L265.458 172.016L265.344 172.543L265.18 173.809L265.004 174.344L266.18 174.11L267.305 173.978L268.433 174.069L269.495 174.361L270.222 173.459L271.161 173.354L272.161 173.878L273.227 174.646L273.936 173.396L275.882 171.678L276.305 170.437L277.053 170.328L277.593 171.843L277.782 173.567L277.556 175.289L276.879 176.758L275.268 178.587L274.683 179.597L273.619 182.779L276.123 183.146L278.517 181.235L285.394 172.521L285.772 170.967L285.667 168.721L285.788 167.589L286.246 165.705L286.925 163.821L287.727 162.78L288.709 164.931L289.026 166.669L289.613 168.303L291.445 170.169L292.903 172.092L292.654 173.881L291.791 175.6L291.319 177.168L292.675 176.204L296.628 172.758L297.386 173.38L297.252 174.196L297.851 176.34L298.024 177.748L299.152 176.531L300.444 173.825L301.813 172.734L303.089 172.962L304.772 171.632L305.752 171.808L306.611 172.671L307.094 173.366L307.609 173.833L308.616 173.972L308.712 174.628L308.181 176.013L307.231 177.139L306.522 178.389L306.591 180.164L307.702 179.715L308.568 179.97L309.226 180.765L309.778 181.927L307.542 182.54L307.729 184.041L308.622 186.014L308.481 188.106L307.838 187.848L306.184 187.643L307.018 189.434L307.551 190.247L308.173 191.017L308.852 190.441L309.711 190.444L311.905 191.303L310.281 193.262L310.046 194.699L311.368 195.462L314.38 195.374L315.71 196.422L315.359 199.246L313.712 203.661L313.876 205.007L314.418 206.108L314.475 206.928L310.217 208.506L308.891 208.795L307.715 209.253L304.533 211.662L302.163 212.869L301.742 213.696L302.783 214.947L304.51 214.12L306.704 214.756L310.438 216.793L310.543 217.511L307.697 218.085L307.073 219.26L307.314 220.691L307.128 222.025L306.273 223.807L306.178 225.542L306.658 227.099L307.656 228.26L308.436 228.147L309.08 226.682L312.124 223.113L312.566 221.997L313.63 217.73L313.117 216.402L313.127 214.074L313.532 211.626L314.234 209.897L316.1 208.286L317.797 207.273L319.046 206.007L319.577 203.54L320.388 203.421L320.896 206.025L322.17 207.561L324.056 208.497L330.574 210.414L332.75 210.702L334.01 210.39L334.409 209.631L334.42 208.834L334.147 208.045L333.58 207.428L332.035 206.665L331.016 206.876L330.166 207.382L329.15 207.402L327.572 206.837L327.451 206.441L327.401 205.015L327.253 204.655L326.321 204.6L322.858 205.296L323.48 203.23L324.658 202.134L325.262 201.25L324.3 199.892L323.694 199.662L321.84 199.168L321.193 198.88L320.701 198.347L319.881 196.873L319.325 196.126L318.534 195.509L316.484 194.119L316.015 193.741L315.96 192.283L316.68 191.764L317.478 191.775L317.878 191.907L318.494 190.894L318.799 190.593L318.553 190.215L317.453 189.005L316.956 188.664L314.755 187.552L313.896 186.465L313.133 184.729L312.949 183.034L313.962 182.121L313.937 181.296L315.924 177.47L316.51 176.907L315.686 175.18L312.806 172.892L312.049 171.632L311.995 169.728L312.557 168.561L313.678 168.174L315.287 168.512L314.384 165.17L316.426 161.717L319.937 158.943L323.678 157.536L332.413 157.184L336.7 157.768L336.919 159.488L337.956 160.707L339.536 163.024L340.6 163.983L341.046 163.981L343.129 164.282L343.213 164.428L343.637 164.717L343.766 166.26L344.254 166.54L345.186 166.818L347.797 168.349L349.344 168.696L350.647 168.473L356.09 166.945L358.584 165.944L359.165 166.21L360.036 166.721L360.79 166.866L361.034 165.27L361.398 164.707L362.02 164.393L362.845 164.591L363.091 165.192L362.988 166.227L362.747 167.186L362.507 167.507L363.918 168.001L365.619 167.881L367.057 167.48L367.649 167.17L368.041 168.77L368.757 169.526L369.916 169.613L371.7 169.194L371.088 168.487L370.769 167.834L370.789 167.098L371.268 166.232L372.674 166.697L373.763 166.091L374.435 164.813L374.524 163.239L373.84 162.478L369.814 161.281L368.265 160.488L368.256 160.427L369.254 160.281L371.733 158.295L374.041 157.097L375 156.034L377.067 157.102L379.377 156.798L380.803 155.666L380.273 154.214L379.509 153.784L378.876 153.59L378.439 153.207L378.147 152.293L378.429 151.391L379.175 150.168L380.102 149.109L380.915 148.576L382.651 148.036L386.648 145.764L388.096 144.563L389.931 141.206L391.325 139.855L393.428 140.09L396.634 136.756L397.948 135.735L402.51 134.05L403.46 132.925L404.524 132.579L410.072 127.627L409.698 126.597L409.108 126.046L408.545 125.682L408.247 125.374L408.194 124.362L408.541 122.592L408.427 121.59L406.165 117.653L402.612 115.114L398.543 114.722L394.906 117.291L390.586 121.489L389.657 122.101L388.139 122.832L386.916 124.254L384.835 127.233L380.354 125.754L374.185 125.572L367.794 126.282L362.661 127.541L359.891 129.06L358.387 129.44L357.601 128.631L356.934 127.328L355.622 126.405L352.66 125.309L349.505 124.622L347.074 124.977L345.119 126.41L343.533 128.84L342.51 127.714L342.027 127.019L341.651 126.183L341.613 125.042L342.333 123.44L342.574 122.258L342.429 121.483L342.046 120.392L341.695 119.52L341.447 119.556L341.72 118.369L341.921 118.212L342.215 118.488L342.764 118.535L345.748 118.26L345.725 118.103L348.448 118.438L349.036 118.767L349.585 117.509L349.339 116.049L348.332 114.825L346.628 114.278L347.702 112.912L349.49 113.83L351.228 115.71L352.235 117.155L352.953 117.05L352.47 113.968L354.22 113.966L358.897 117.01L359.095 116.186L359.419 115.787L360.856 115.163L357.262 111.26L359.791 108.087L363.267 108.566L370.837 112.238L375.736 111.555L376.627 111.776L377.094 110.18L378.167 108.59L378.381 106.997L376.497 105.425L375.725 106.015L375.426 106.154L375.114 105.976L374.253 105.75L374.631 105.504L374.756 105.486L374.804 105.384L374.927 104.919L370.569 104.504L365.99 104.758L368.557 102.503L368.658 101.884L367.644 100.822L365.149 99.6571L364.434 98.9028L364.933 97.5246L363.567 97.5334L362.391 97.7679L361.653 98.3853L361.527 99.4856L357.85 100.246L354.07 103.792L350.292 106.477L346.647 104.62L348.971 102.657L349.318 102.415L349.058 100.862L349.038 100.069L349.824 98.0436L350.442 94.8635L350.987 93.5741L353.516 90.8478L355.892 89.8959L362.201 89.0702L361.822 91.927L363.095 93.014L365.26 93.0167L367.556 92.6185L368.832 91.9855L369.751 90.8648L370.389 89.7851L370.792 89.2795L372.248 89.0041L373.168 88.5509L373.82 87.7879L374.463 86.5167L374.704 85.111L374.39 84.2657L374.327 83.6071L375.37 82.6894L375.659 82.9333L379.143 83.253L379.808 83.8888L381.1 84.019L382.296 83.4931L382.652 82.0078L382.014 81.5589L378.926 80.0343L377.833 79.3027L377.234 80.2185L376.036 78.7693L375.334 78.1064L374.619 77.5733L372.129 76.4407L371.379 75.8822L370.373 74.4377L370.947 74.0047L374.841 73.8504L385.678 72.2052L386.462 71.8999L387.089 71.3943L387.656 70.2598L387.754 68.9705L387.358 67.7859L386.442 66.9634L385.553 67.6352L384.662 67.8606L383.794 67.7966L382.826 67.4913L383.909 66.4095L384.535 66.1272L384.747 65.8404L384.636 64.6467L384.38 63.9836L382.802 62.3342L381.624 62.9832L380.681 63.058L379.993 62.4906L379.624 61.2716L378.669 61.9206L377.699 62.2531L376.803 62.2255L376.008 61.7995L377.341 60.4578L378.943 60.0961L380.572 59.9211L381.977 59.0784L382.818 57.4269L383.071 55.6705L382.538 54.6338L381.021 55.1415L380.233 54.1096L379.13 53.3164L378.419 52.3686L378.923 51.0222L380.261 50.159L381.726 50.1685L384.098 50.9368L384.553 51.2194L385.125 51.6455L385.847 52.0171L386.845 52.0947L387.747 51.7396L389 50.505L389.8 50.102L391.506 50.0112L392.905 50.2211L393.834 50.0529L394.129 48.8L395.65 49.8507L396.582 51.4341L397.641 52.8082L399.541 53.1683L402.551 52.6334L403.53 52.5858L404.574 52.7522L406.385 53.379L407.36 53.5229L407.827 53.2313L408.285 52.6549L408.613 52.0649L408.642 51.8373L409.212 51.817L410.046 52.3002L410.563 52.3526L411.404 52.0066L411.638 51.4302L411.253 50.9769L410.344 50.8537L410.066 50.4802L409.654 49.6166L409.076 48.7145L408.112 48.2177L407.146 48.3587L406.202 48.8781L404.737 50.174L404.621 48.9485L404.156 48.3789L402.79 47.5268L402.398 47.4561L401.917 47.6542L401.516 47.7452L400.288 45.6629L399.418 44.9292L399.158 44.4575L398.819 44.0929L397.816 43.7622L396.921 43.7346L395.083 44.2264L394.201 44.2922L392.679 43.6861L391.47 42.5899L391.283 41.3118L392.846 40.0319L399.647 41.2681L398.854 40.2064L397.734 39.288L396.419 39.0029L394.995 39.7204L395.091 39.0689L395.082 38.784L395.116 38.5882L395.503 38.1804L392.396 35.8629L391.487 34.4365L392.506 32.6962L394.417 33.15L400.826 31.4814L403.214 31.2607L404.355 31.4453L406.451 32.2864L408.639 32.2229L409.5 32.4463L411.174 33.6655L410.859 33.9023L410.622 34.6698L410.554 35.5081L410.777 35.9525L411.925 35.9757L412.484 35.2263L412.641 34.1213L412.552 33.0826L411.602 31.3739L409.659 29.8426L407.313 28.817L405.24 28.5776L405.144 27.9237L405.313 27.5499L405.432 26.8322L405.578 26.3014L404.924 26.3969L403.049 27.499L400.495 27.0131L398.819 24.903L399.685 21.2422L400.988 19.4928L402.424 18.2012L405.643 16.0442L407.07 14.6889L409.654 10.5863L409.255 9.59291L407.968 8.41257L407.337 7.35765L409.071 6.59493L411.582 6.35626L412.311 6.1219L412.737 5.55013L412.876 4.76653L413.118 4.03086L413.824 3.64151L416.809 0.976638L416.939 0.248597L423.05 2.58078L447.631 11.9586L472.222 21.3242L490.773 28.4035L496.803 30.7041L521.383 40.0733L545.976 49.4517L551.172 51.4317L570.556 58.821L595.127 68.2045L619.709 77.5866L644.292 86.9707L668.863 96.3564L693.455 105.731L718.036 115.106L742.619 124.495L767.2 133.872L791.794 143.261L800.564 146.612L816.378 152.654L825.834 156.265L827.835 158.635L831.384 169.859L831.817 171.222L835.833 183.874L833.928 184.297L833.009 185.359L832.854 186.893L833.284 188.767L831.304 189.212L828.983 190.928L826.893 193.148L825.599 195.082L825.2 196.103L824.87 197.361L824.777 198.639L825.103 199.734L825.984 200.401L827.757 200.366L828.416 201.122L828.245 202.938L827.704 205.133L828.223 206.547L833.246 205.512L835.54 205.379L837.858 205.646L840.001 206.317L841.677 207.46L842.714 208.978L845.506 215.245L846.885 217.262L848.62 218.958L854.991 222.26L864.982 227.465L874.962 232.673L884.966 237.878L894.945 243.076L904.925 248.284L914.927 253.479L924.133 258.284L924.907 258.689L934.91 263.886L944.889 269.085L954.87 274.296L964.874 279.505L974.864 284.705L984.855 289.917L994.847 295.128L1004.84 300.328L1014.77 305.517L1015.59 306.076L1017.54 306.321L1018.65 309.205L1018.58 312.731L1016.87 314.842L1014.2 316.716L1016.67 317.317L1018.29 317.223L1019.29 317.676L1019.9 319.989L1020.1 322.265L1019.98 324.164L1019.53 325.959L1017 332.203L1015.82 333.699L1014.99 332.232L1015.04 330.078L1015.42 327.921L1015.47 325.856L1014.53 324.084L1013.46 329.831L1012.13 332.014L1009.8 332.187L1012.05 334.772L1012.49 335.786L1013.74 341.768L1013.58 342.878L1012.92 343.443L1011.2 343.165L1010.35 343.695L1010.03 344.29L1009.28 346.503L1009.31 347.982L1010.82 347.672L1014 345.785L1014.31 347.374L1015.85 349.757L1016.19 350.715L1015.87 351.557L1012.36 355.674L1011.8 356.684L1010.34 361.385L1007.81 366.737L1007.58 367.55L1008.52 368.208L1009.55 367.156L1010.88 364.841L1011.71 366.053L1009.07 380.058L1008.26 382.564L1007.07 384.751L1006.07 385.651L1004.93 386.426L1004.09 387.397L1003.98 388.898L1004.57 389.731L1005.46 390.008L1006.29 390.551L1006.68 392.217L1005.88 396.65L1003.74 403.337L1000.86 409.478L997.72 412.2L999.264 412.647L998.886 414.949L999.523 419.914L998.785 422.039L997.689 423.931L996.344 428.161L994.52 432.063L994.097 434.469L994.063 437.013L995.031 443.878L994.735 444.984L994.152 445.821L993.693 446.836L993.425 447.892L993.4 448.257L993.227 451.052L992.535 453.364L992.09 455.802L992.579 458.358L993.067 458.985L994.608 460.317L995.176 460.952L996.782 464.904L997.376 465.898L998.086 466.423L1000.64 467.581L1002.5 468.743L1002.78 469.373L1003.79 473.334L1003.9 475.928L1003.49 478.333L1002.46 480.069L1003.66 482.603L1004.89 488.522L1006.61 490.982L1007.88 491.654L1009.28 492.139L1010.48 492.708L1011.09 493.673L1011.42 494.794L1012.06 495.923L1012.91 496.924L1013.9 497.71L1014.58 498.063L1015.14 498.201L1016.54 498.069L1017.31 498.275L1017.77 498.917L1018.18 499.618L1018.74 500.051L1020.11 500.098L1023.07 499.826L1024.31 500.317L1025.45 500.567L1026.53 499.992L1026.31 499.158L1025.32 498.885L1023.52 498.465L1021.23 497.381L1024.41 497.874L1026.76 498.542L1033.43 503.253L1037.53 506.958L1040.62 508.554L1041.58 509.344L1043.57 511.852L1044.66 512.696L1046.61 513.518L1047.63 514.177L1048.51 515.28L1049.13 516.607L1049.48 517.938L1050.52 520.496L1052.52 523.18L1054.64 524.324L1056.08 522.236L1057 525.257L1057.12 529.486L1057.72 533.253L1060.15 534.953L1059.8 533.019L1059.5 532.22L1058.9 531.413L1060.86 531.251L1062.48 531.626L1065.76 533.015L1067.45 533.212L1070.69 533.03L1072.13 533.573L1073.78 533.909L1077.65 533.301L1078.5 533.797L1079.16 535.199L1081.48 537.492L1082.83 540.513L1088.88 546.491L1089.32 547.181L1089.35 548.232L1088.93 548.959L1088.46 549.596L1088.3 550.311L1090.2 556.986L1090.49 559.815L1088.89 559.898L1088.02 561.409L1087.64 564.418L1087.2 565.759L1086.15 566.869L1085.15 566.99L1084.25 566.154L1083.63 564.391L1079.64 568.157L1079.54 568.332L1078.86 569.585L1078.54 571.574L1078.54 573.322L1078.31 574.96L1077.3 576.606L1076.09 577.891L1075.46 578.257L1074.59 578.491L1073.81 578.943L1074.03 579.726L1074.64 580.604L1075.06 581.395L1074.62 582.694L1073.19 583.186L1071.5 583.327L1070.21 583.596L1071.49 585.164L1072.72 586.202L1073.63 587.461L1073.97 589.752L1073.74 591.385L1073.12 593.711L1072.28 595.831L1069.85 598.83L1069.21 603.042L1069.07 615.082L1069.51 617.255L1070.27 619.399L1072.12 622.626L1072.77 624.574L1072.38 626.266L1072.24 627.832L1074.41 631.503L1074.17 633.457L1070.26 639.667L1073.4 638.473L1075.32 635.484L1076.32 631.715L1076.71 628.14L1078.55 629.249L1080.03 630.516L1080.4 632.024L1078.96 633.851L1082.88 632.88L1084.72 632.815L1086.77 633.855L1090.06 636.252L1090.63 637.707L1090.32 640.453L1089.26 644.145L1089.31 645.48L1091 649.046L1091.71 653.207L1092.45 655.054L1093.93 653.808L1094.4 653.215L1094.55 656.552L1093.67 659.764L1091.05 665.701L1088.94 675.832L1087.82 678.984L1087.04 678.742L1086.72 678.815L1086.4 679.048L1085.6 679.309L1086.57 680.784L1086.88 684.65L1087.45 686.496L1085.84 686.047L1085.95 686.903L1085.6 689.006L1083.6 687.352L1082.63 686.826L1081.57 686.67L1082.64 688.106L1082.87 689.353L1082.25 690.396L1080.76 691.21L1082.5 693.757L1083.78 696.434L1084.68 699.345L1085.3 702.582L1085.49 708.887L1086.26 711.854L1090.33 714.979L1092.01 717.261L1093.34 719.88L1094.13 722.238L1095.25 731.208L1094.95 733.388L1098.81 733.902L1099.54 734.481L1099.96 735.29L1100.5 735.977L1101.71 736.139L1103.85 735.987L1104.58 736.523L1104.82 737.84L1105.6 740.042L1106.79 741.66L1108.06 742.284L1109.41 742.658L1110.92 743.417L1112.04 744.786L1113.81 748.359L1115.22 749.915L1118.53 751.747L1119.31 752.631L1117.89 753.265L1116.62 753.37L1115.83 753.22L1114.1 752.251L1113.86 752.054L1111.55 750.449L1109.02 748.127L1107.27 747.42L1105.28 747.997L1104.16 748.659L1103.56 748.915L1103.17 749.285L1101.47 752.668L1103.17 753.045L1109.47 751.501L1108.32 753.451L1108.13 754.619L1109.04 755.12L1111.13 755L1113.02 755.313L1113.25 756.803L1112.94 759.012L1113.15 761.423L1113.47 761.787L1114.52 762.381L1114.82 762.747L1115.14 764.766L1115.14 764.944L1114.73 766.108L1114.7 766.505L1114.96 766.733L1115.49 766.852L1116.02 767.112L1116.36 767.723L1116.2 768.798L1115.69 769.585L1115.38 770.416L1115.76 771.571L1116.79 773.178L1116.91 773.989L1116.63 775.127L1118.08 774.586L1119.78 773.446L1121.32 772.115L1122.35 770.967L1123.62 770.694L1125.36 771.884L1130.76 777.023L1133.02 779.839L1134.01 783.073L1132.83 786.695L1132.86 787.466L1133.61 788.257L1134.54 789.03L1135.13 789.764L1135.3 790.96L1135.03 793.202L1135.04 794.26L1135.9 797.774L1135.72 799.111L1134.57 801.136L1133.33 802.592L1132.43 802.938L1131.37 802.932L1129.72 803.343L1128.49 804.155L1128.09 805.231L1128.33 806.719L1128.97 808.749L1129.85 808.139L1131.02 807.745L1133.2 807.321L1133.29 806.105L1133.75 805.572L1134.87 805.953L1135.65 806.562L1136.05 806.798L1136.51 806.838L1137.75 807.165L1138.09 808.259L1138.03 809.516L1138.13 810.35L1139 811.232L1141.87 813.204L1143.08 815.187L1145.18 820.858L1146.53 822.322L1148.11 823.126L1147.93 823.856L1147.19 824.653L1147.07 825.58L1147.77 826.665L1148.39 827.332L1150 828.527L1150.77 829.61L1150.73 831.848L1152 833.787L1151.24 834.612L1149.23 835.745L1147.69 837.702L1147.35 838.68L1148.27 838.955L1152.46 838.246L1153.27 838.226L1153.72 838.944L1154.98 841.724L1155.81 842.729L1157.74 843.751L1158.68 844.435L1159.57 845.557L1160.72 848.506L1160.27 850.814L1158.44 852.153L1155.31 852.234L1156.42 853.555L1159.78 855.45L1160.02 856.38L1158.99 857.306L1155.57 859.396L1152.43 860.676L1152.56 861.917L1154.29 864.444L1154.37 866.478L1153.82 868.105L1152.77 869.501L1151.38 870.857L1154.03 869.961L1158.1 863.228L1160.31 863.147L1161.83 863.737L1164.97 863.048L1167.54 864.985L1168.97 864.964L1170.51 864.667L1171.97 864.723L1174.9 866.376L1182.88 876.141L1183.99 882.31L1185.34 885.402L1186.23 883.966L1186.52 882.118L1186.26 880.243L1185.49 878.667L1184.21 876.645L1184.31 875.7L1185.55 875.393L1187.62 875.395L1189.23 875.624L1192.71 876.581L1194.85 876.77L1199.31 877.694L1199.81 877.495L1200.15 877.605L1200.67 878.727L1200.67 880.149L1200.18 881.694L1200.08 883.319L1201.21 884.994L1201.68 885.945L1200.97 886.603L1200.01 887.21L1199.79 887.921L1200.47 888.706L1201.03 888.687L1201.56 888.359L1202.05 888.206L1203.98 889.044L1204.83 889.089L1205.07 888.187L1204.98 887.054L1205.22 886.376L1205.85 886.157L1207.03 886.46L1208.46 887.165L1211.24 889.004L1212.68 889.723L1212.52 888.745L1212.6 888.035L1212.8 887.416L1212.96 886.613L1213.88 887.069L1214.54 887.134L1215.14 886.84L1215.92 886.18L1214.04 885.918L1208.21 884.382L1211.17 879.373L1212.64 879.624L1213.43 880.752L1213.97 882.202L1214.72 883.434L1215.76 884.061L1218.3 884.869L1219.54 885.654L1220.25 886.525L1224.78 893.689L1226 894.531L1226.24 894.307L1229.91 894.504L1230.45 894.632L1233.72 893.134L1233.9 890.933L1232.39 889.453L1230.59 890.101L1229.91 888.903L1230.14 887.922L1231.02 887.238L1232.33 886.85L1233.37 887.074L1233.96 887.891L1234.48 888.934L1235.24 889.799L1236.45 891.609L1235.72 893.477L1234.21 895.361L1233.11 897.249L1233.77 897.089L1235.19 896.999L1235.85 896.848L1235.24 900.669L1235.26 901.874L1235.66 902.648L1236.37 903.376L1237.01 904.302L1237.15 905.733L1235.93 909.096L1233.05 912.983L1229.65 916.277L1223.14 919.684L1219.58 923.275L1214.23 930.424L1212.62 933.333L1211.56 934.728L1208.77 936.261L1197.05 948.597L1195.19 949.949L1184.95 956.233L1175.42 965.125L1172.91 966.652L1155.72 973.158L1147.64 974.963L1145.91 975.832L1144.37 977.002L1126.06 996.748L1123.78 998.47L1121.24 999.66L1118.42 1000.04L1116.07 999.537L1111.41 997.802L1108.84 997.665L1105.8 999.625L1102.24 1000.88L1088.4 1002.89L1084.94 1004.24L1082.47 1007.15L1080.8 1008.72L1078.67 1009.6L1077.4 1010.7L1073.78 1015.35L1071.99 1016.66L1070.81 1016.79L1068.44 1016.58L1067.16 1016.63L1066.04 1017.02L1064.04 1018.34L1061.02 1019.66L1059.53 1021.35L1057.59 1024.72L1048.2 1033.36L1046.04 1037.02L1045.97 1037L1042.61 1035.63L1033.9 1034.74L1029.87 1033.35L1023.13 1028.03L1018.94 1025.94L1013.94 1025.89L1012.93 1026.33L1010.73 1027.66L1009.55 1028.05L1008.24 1027.88L1005.94 1026.66L1004.86 1026.46L1004.49 1026.3L1003.78 1025.39L1003.56 1025.15L1002.97 1025.26L1002.47 1025.59L1002.19 1025.95L1002.22 1026.12L1001.39 1026.22L998.99 1026.52L993.091 1028.44L992.25 1029.65L991.345 1030.03L987.072 1030.93L985.382 1031.61L979.283 1036.38L978.698 1037.42L978.655 1039.04L977.737 1044.16L976.933 1045.62L977.37 1047.54L975.494 1052.46L975.289 1054.96L975.926 1056.34L976.755 1057.58L977.147 1058.88L976.493 1060.44L975.341 1061.82L973.368 1063.7L966.163 1068.23L962.003 1072.71L960.197 1074.13L957.99 1074.86L954.637 1075.39L952.405 1076.17L948.872 1078.76L946.73 1079.56L945.535 1080.33L944.909 1081.78L944.524 1083.37L944.091 1084.53L943.316 1085.43L942.66 1085.91L940.696 1086.54L938.278 1086.89L932.819 1086.17L931.892 1085.86L929.716 1084.14L928.406 1083.74L927.421 1083.95L926.658 1084.47L925.904 1085.13L924.945 1085.75L921.207 1086.72L916.516 1086.89L907.22 1086.15L903.238 1084.89L899.083 1082.3L895.677 1079.1L893.922 1075.96L892.401 1077.18L891.565 1078.04L890.632 1078.62L880.968 1080.93L879.359 1080.86L876.483 1079.53L874.371 1079.68L873.29 1079.31L871.584 1080.18L867.622 1086.58L865.311 1091.35L864.491 1092.39L863.371 1093.21L859.683 1095.28L858.779 1096.28L858.311 1097.05L857.606 1097.66L854.828 1098.38L853.333 1099.16L846.846 1101.2L844.988 1101.26L842.134 1100.32L841.511 1100.19L840.761 1099.71L839.756 1097.27L838.839 1096.81L826.474 1098.61L826.005 1098.92L825.531 1099.51L824.872 1100.12L821.619 1101.11L817.929 1102.77L816.399 1103.17L815.258 1103.02L813.47 1102.25L812.168 1102.21L807.912 1103.6L806.574 1102.93L805.337 1101.11L804.694 1098.93L805.137 1097.22L804.111 1095.16L803.514 1092.75L802.628 1090.82L800.801 1090.24L799.805 1090.16L799.001 1089.7L798.205 1089.08L797.215 1088.51L796.135 1088.22L793.703 1087.95L792.601 1087.68L788.388 1085.85L786.033 1085.18L784.527 1085.5L782.568 1086.4L780.434 1085.64L779.185 1083.74L779.839 1081.18L777.686 1079.22L776.172 1078.72L772.185 1079.35L771.478 1079.26L768.293 1078.42L763.842 1078.24L762.581 1079.41L759.89 1084.09L758.235 1085.83L753.058 1087.58L751.281 1089.03L752.448 1091.28L751.29 1092.3L750.329 1093.91L749.662 1095.54L749.241 1097.87L748.279 1098.71L742.788 1101.05L742.666 1101.05L740.387 1102.82L738.581 1102.63L736.775 1102.2L735.629 1102.46L735.768 1104.33L734.507 1104.12L733.937 1103.58L733.554 1102.88L732.866 1102.15L731.819 1101.56L731.319 1101.57L730.938 1101.88L730.278 1102.18L730.271 1102.29L728.942 1103.06L728.49 1103.17L725.867 1103.43L724.835 1103.25L724.033 1102.66L723.76 1102.1L719.358 1102.86L675.128 1108.86L674.817 1107.95L674 1102.36L673.53 1100.82L672.82 1099.62L672.175 1098.72L671.84 1098.11L671.277 1097.38L670.155 1096.67L668.993 1095.68L667.658 1092.88L665.436 1091.52L664.869 1090.77L663.746 1088.67L661.503 1087.16L658.745 1086.18L653.946 1085.3L653.065 1085.31L652.318 1085.71L651.145 1087.08L650.456 1087.27L649.658 1086.54L646.674 1082.48L647.26 1082.06L648.064 1081.21L648.636 1080.76L648.539 1080.09L646.721 1079.38L645.115 1078L643.868 1076.04L643.168 1073.62L642.763 1072.69L641.985 1071.95L641.056 1071.48L639.071 1071.28L638.469 1070.67L638.001 1069.77L637.288 1068.79L631.607 1065.17L630.532 1063.39L629.84 1060.79L627.782 1056.57L627.001 1054.43L627.128 1051.63L629.632 1047.21L630.936 1042.52L631.003 1041.37L630.305 1036.59L630.688 1029.65L629.871 1026.89L630.383 1025.88L631.532 1024.73L631.055 1023.37L630.308 1022.7L629.545 1022.3L629.007 1021.75L628.751 1021.3L627.939 1020.4L629.009 1017.93L628.579 1015.59L627.255 1013.57L624.584 1011.19L624.207 1010.6L623.992 1008.52L623.513 1007.3L622.76 1007.19L621.849 1007.38L620.889 1007.09L619.857 1005.99L618.95 1004.68L618.239 1003.26L617.857 1001.86L617.875 1000.45L618.507 997.889L618.587 996.832L617.847 994.895L615.312 991.777L614.501 989.521L614.93 977.461L614.795 976.309L614.37 975.007L613.143 972.791L611.302 967.222L606.629 959.797L605.284 956.246L605.347 955.147L605.981 952.91L606.02 951.644L605.707 950.497L603.934 946.998L600.089 942.941L598.563 940.907L586.072 929.3L585.886 928.874L583.7 927.298L583.179 927.1L580.47 925L579.731 924.234L578.91 922.279L578.367 920.396L577.493 919.073L574.161 918.38L562.269 908.96L562.212 908.942L562.205 908.937L558.999 907.997L556.878 906.256L556.012 905.908L551.786 902.06L550.199 901.453L549.017 900.402L548.864 900.329L545.262 898.639L541.389 897.834L539.897 899.626L538.821 901.29L536.63 903.729L535.448 906.655L538.118 911.161L538.194 913.065L537.924 916.413L538.135 918.388L537.967 919.841L537.253 921.069L535.839 922.329L535.946 923.062L534.484 925.214L533.117 924.494L531.658 922.53L528.791 920.737L525.531 919.376L522.898 918.717L519.887 917.31L516.784 914.963L513.619 913.578L510.36 915.017L507.791 917.011L505.151 917.759L505.097 917.758L502.244 917.674L498.866 917.124L495.222 917.27L492.808 918.722L490.528 920.551L487.351 921.83L482.907 922.162L480.768 921.829L478.969 920.912L477.402 919.089L474.999 915.372L472.768 913.805L466.195 910.424L464.203 910.034L463.289 910.349L461.776 911.704L460.909 912.126L459.622 912.19L457.325 911.844L455.849 912.071L455.199 912.517L453.919 913.94L453.006 914.414L452.577 914.238L449.295 913.459L446.352 913.243L445.333 912.995L438.071 908.877L432.001 904.36L429.983 903.544L427.938 903.934L426.076 905.259L424.69 907.242ZM1135.5 609.887L1137.38 611.45L1137.71 614.919L1137.07 622.365L1135.07 629.746L1133.94 631.882L1133.85 632.704L1133.96 633.379L1133.93 634.095L1133.52 636.392L1133.29 637.012L1132.55 638.399L1132.47 639.185L1132.14 640.538L1130.88 640.722L1127.83 640.279L1124.9 641.737L1123.89 644.247L1123.6 646.796L1122.81 648.387L1118.86 650.652L1116.79 651.451L1115.04 651.761L1112.77 651.202L1109.54 648.609L1107.64 647.553L1108.6 647.172L1110.38 646.841L1111.22 646.345L1111.19 646.047L1111.36 645.24L1111.6 644.494L1111.75 644.445L1111.87 643.601L1112.45 643.322L1113.18 643.27L1113.76 642.99L1117.67 637.878L1118.85 635.21L1117.69 634.154L1118.03 632.276L1119.12 631.264L1120.74 630.795L1122.68 630.529L1124.39 629.915L1127.48 627.893L1129.23 627.263L1128.52 626.487L1127.5 626.476L1124.8 627.163L1124.7 626.502L1125.93 626.004L1126.97 625.248L1128.7 623.609L1130.83 622.34L1131.68 621.364L1132.01 618.518L1132.63 616.803L1133.48 615.259L1134.33 614.532L1134.77 613.9L1135.44 610.987L1135.5 609.887ZM1077.7 474.91L1078.23 475.815L1081.82 480.445L1082.01 485.121L1079.81 488.71L1076.2 490.538L1072.14 489.962L1070.41 488.808L1068.7 487.144L1067.36 485.161L1063.95 476.389L1063.96 474.76L1061.68 475.835L1061.87 476.985L1063.07 478.244L1063.92 479.598L1064.14 482.009L1063.71 482.667L1060.59 481.996L1060.76 479.882L1059.92 478.331L1056.73 475.812L1052.65 471.149L1051.61 470.506L1050.7 469.949L1049.38 470.947L1049.49 471.726L1050.13 471.731L1050.25 472.032L1050.23 472.511L1050.43 473.077L1048.86 472.295L1048.66 474.025L1049.38 476.372L1050.7 477.437L1050.46 477.613L1050.33 477.87L1049.93 477.98L1048.88 477.699L1047.84 477.223L1047.42 476.868L1047.11 476.471L1040.87 471.07L1039.62 469.543L1037.57 464.957L1036.36 463.178L1039.48 457.969L1037.72 451.943L1034.79 445.618L1034.39 439.571L1034.08 438.29L1034 437.026L1034.13 435.901L1034.47 435.048L1034.87 435.564L1035.84 436.536L1036.24 437.079L1037.58 433.944L1040.91 430.239L1042.36 427.947L1042.74 424.468L1042.33 416.487L1043.98 414.282L1045.7 417.349L1049.78 422.714L1050.97 426.36L1050.88 430.947L1051.08 432.616L1051.64 434.205L1053.01 437.101L1053.43 438.64L1054.16 440.224L1056.68 443.271L1058.56 447.979L1059.26 448.258L1061.56 448.284L1062 449.679L1061.92 451.018L1061.66 452.401L1061.64 453.874L1061.94 455.565L1062.33 456.826L1062.93 457.95L1063.88 459.147L1062.84 460.901L1062.43 461.847L1062.24 463.104L1063.68 462.23L1064.72 462.741L1065.7 463.82L1066.89 464.593L1066.74 463.004L1067.28 461.862L1068.13 461.659L1068.84 462.881L1069.32 462.749L1069.44 462.66L1069.41 462.478L1069.48 462.043L1071.25 462.235L1070.94 460.014L1069.98 456.923L1069.87 454.559L1072.06 456.725L1073.45 459.613L1077.7 474.91ZM1074.15 376.808L1073.66 373.079L1073.82 371.322L1074.59 369.707L1073.77 368.66L1075.07 368.241L1078.88 368.339L1077.81 366.958L1075.2 364.564L1074.35 363.009L1076.07 363.192L1078.18 363.043L1080 362.449L1080.89 361.311L1079.64 361.212L1078.54 360.975L1077.6 360.503L1076.81 359.682L1078.46 359.458L1080.9 358.43L1082.56 358.099L1084.62 358.815L1085.62 358.358L1086.03 356.106L1084.01 357.214L1081.32 356.865L1076.05 354.523L1075.11 355.351L1073.76 355.142L1072.4 354.235L1071.41 352.974L1072.62 353.275L1073.44 353.712L1074.19 353.815L1075.12 353.177L1076.18 353.34L1079.86 353.36L1081.82 353.012L1080.91 352.331L1081.42 350.154L1080.76 348.456L1079.54 348.059L1078.33 349.757L1078.57 347.513L1078.77 346.785L1078.03 346.088L1077.13 345.689L1076.06 345.801L1074.91 346.668L1074.98 345.456L1075.07 344.948L1075.36 344.253L1074.75 343.052L1074.67 341.527L1075.05 340.321L1075.84 340.109L1077.18 340.523L1077.69 340.077L1077.48 339.172L1076.65 338.198L1075.65 337.794L1072.03 336.98L1072.2 335.923L1073.49 334.524L1073.78 333.361L1072.37 334.308L1071.22 332.47L1071.56 330.848L1072.92 330.138L1074.92 330.966L1075.09 329.201L1073.76 328.381L1071.9 327.707L1070.5 326.428L1070.27 325.209L1070.48 322.14L1070.37 320.503L1070.69 321.014L1071.01 321.419L1071.35 321.687L1071.69 321.744L1072.57 322.092L1073.3 323.02L1073.8 323.99L1073.97 324.442L1075.12 324.107L1075.4 323.262L1075.5 322.357L1076.09 321.845L1076.68 322.138L1078.64 323.594L1079.07 324.034L1084.36 326.123L1085.37 326.824L1085.62 328.032L1086.03 329.058L1086.53 329.383L1087.11 328.451L1086.9 327.606L1086.35 326.644L1086.19 325.457L1087.26 323.984L1087.49 324.747L1087.98 325.489L1088.22 326.072L1088.83 324.197L1089.14 321.98L1089.08 319.939L1088.68 318.585L1090.24 319.31L1090.56 321.48L1090.65 324.055L1092.43 327.859L1091.52 329.952L1089.85 331.716L1088.53 332.634L1089.33 334.442L1089.29 336.551L1088.95 338.73L1088.91 340.794L1090.39 343.83L1090.57 344.387L1091.48 343.795L1091.42 342.769L1091.08 341.759L1091.17 341.205L1092.6 341.597L1093.05 343.44L1092.92 347.628L1093.8 353.898L1093.29 355.723L1094.2 356.403L1093.15 358.076L1091.38 367.932L1090.74 369.193L1090.36 369.707L1090.31 370.405L1090.53 372.212L1090.25 373.683L1089.35 374.061L1088.62 373.292L1088.86 371.321L1088.28 371.406L1087.82 373.24L1087.54 373.927L1087.12 374.545L1087.64 375.619L1087.25 376.888L1086.22 378.161L1084.86 379.331L1083.88 379.756L1083.54 379.398L1083.8 378.67L1084.66 377.945L1084.54 377.149L1083.09 377.749L1082.05 378.624L1081.21 378.926L1080.27 377.773L1076.6 378.432L1074.99 378.155L1074.15 376.808ZM1124.8 650.437L1128.15 649.563L1130.56 649.339L1131.28 650.777L1130.35 652.329L1126.66 657.885L1123.94 661.24L1122.16 661.372L1121.27 659.702L1121.5 656.839L1122.42 654.388L1124.8 650.437ZM1035.52 421.038L1035.66 422.505L1036.45 424.324L1037.51 425.506L1036.94 426.704L1037.8 427.99L1038.11 430.1L1036.84 430.583L1035.67 430.681L1035.23 429.184L1035.17 427.258L1035.02 424.231L1034.41 422.089L1035.52 421.038ZM1066.69 375.785L1067.69 376.144L1069.39 376.907L1070.73 378.292L1072.25 380.03L1074.01 380.403L1075.69 380.599L1076.94 381.806L1076.89 383.143L1074.06 383.748L1071.99 382.536L1070.09 380.854L1068.96 379.629L1067.54 378.511L1066.19 377.126L1066.69 375.785ZM315.495 96.4988L316.482 95.8451L320.177 95.2102L322.394 94.4724L323.574 94.2676L324.51 94.5775L325.198 95.3683L325.36 96.0451L324.959 96.3594L324 96.1178L323.346 96.2133L323.749 97.0131L324.831 98.0976L325.082 98.5077L325.18 99.8313L324.972 100.371L324.542 100.69L323.348 102.33L320.217 105.526L319.816 105.17L319.424 105.099L319.073 105.088L318.65 105.022L316.399 103.345L315.39 102.314L315.565 101.779L315.955 101.18L315.662 100.046L315.074 98.8565L314.622 98.157L316.087 97.9431L315.495 96.4988ZM339.716 128.315L339.677 128.926L339.351 130.183L338.859 130.067L337.934 130.264L337.597 131.014L338.893 132.481L335.487 132.693L333.02 131.492L330.81 129.871L328.122 128.893L327.857 130.142L327.117 130.951L325.982 131.244L324.561 130.879L319.013 127.771L317.093 127.479L311.771 128.098L309.11 127.753L306.563 126.438L305.324 126.237L304.39 126.82L303.479 127.114L302.383 125.936L302.278 124.995L302.698 123.947L306.029 119.289L306.847 117.704L306.879 116.394L306.054 116.195L303.052 116.347L302.526 116.234L301.715 116.352L301.02 115.306L299.149 113.827L298.277 112.426L299.314 112.338L300.049 112.358L300.639 112.686L301.302 113.513L302.92 112.386L304.043 111.361L305.827 109.19L306.518 108.038L306.935 107.625L307.846 107.334L308.336 107.421L310.391 107.982L310.967 108.44L310.906 110.201L310.145 111.522L309.851 112.775L311.085 114.251L316.972 116.416L319.631 115.009L320.08 114.815L320.371 113.977L321.276 113.845L322.153 113.973L322.522 114.11L327.664 112.054L328.528 112.086L329.25 113.542L330.289 114.982L330.806 116.563L329.213 120.267L330.27 120.973L334.387 121.263L334.5 122.043L333.3 122.983L334.48 124.307L338.047 126.718L338.615 126.891L339.064 126.697L339.414 126.709L339.663 127.534L339.716 128.315ZM209.974 178.031L209.345 178.951L205.848 182.68L204.333 183.634L202.995 183.192L201.975 181.875L201.462 180.326L201.51 178.695L202.285 176.159L202.039 174.697L201.226 173.701L198.843 172.202L197.792 170.889L199.053 169.495L198.121 168.994L196.05 169.201L193.977 170.046L192.717 166.439L194.289 166.528L195.324 165.549L195.832 164.009L195.87 162.314L193.62 163.471L193.504 160.717L194.8 154.985L195.454 154.89L195.857 156.997L197.09 157.583L198.455 157.988L199.054 158.825L200.703 161.611L201.596 164.889L202.94 167.559L205.977 168.296L207.237 168.207L207.245 168.713L206.812 169.891L206.871 171.825L207.63 173.308L208.842 174.627L209.817 176.079L209.974 178.031ZM273.318 159.066L272.393 161.018L271.794 162.795L272.477 164.415L272.65 164.071L272.693 163.937L272.737 163.802L273.11 163.524L272.946 165.238L271.816 166.868L270.376 167.907L269.253 167.848L268.406 169.023L267.478 169.859L266.389 170.241L265.172 169.972L264.195 168.298L263.632 166.181L262.776 164.459L260.917 163.934L260.473 162.629L262.063 154.113L262.708 155.262L263.685 155.852L264.581 155.658L265.121 154.337L265.775 154.242L266.119 158.78L267.305 159.721L270.149 158.924L269.675 158.07L268.953 155.308L269.607 155.213L270.792 155.263L271.858 154.503L272.815 154.521L273.612 156.922L273.318 159.066ZM223.961 162.641L222.621 168.062L221.432 169.287L219.76 170.264L218.008 170.902L216.417 171.134L216.561 171.241L216.251 171.51L215.752 171.806L215.36 171.958L214.959 171.826L214.932 171.416L214.962 170.965L214.823 170.666L214.408 170.217L214.153 169.554L213.707 169.333L212.592 170.196L213.05 168.759L214.356 167.231L215.237 165.636L214.586 164.012L213.57 163.809L211.367 164.417L210.861 163.79L211.13 162.795L212.009 162.061L213.445 161.214L215.245 159.804L216.803 158.271L218.371 157.023L220.271 156.523L220.506 157.698L220.729 158.143L221.244 158.61L221.852 157.755L221.442 158.644L221.195 159.571L221.02 160.553L221.011 161.573L221.664 161.478L222.478 159.861L223.316 159.929L223.89 161.025L223.961 162.641ZM190.333 150.986L189.668 150.574L188.919 149.155L188.737 147.685L188.994 146.182L189.528 144.608L190.364 145.314L190.461 146.861L191.035 148.178L192.054 149.048L193.537 149.183L195.483 149.218L195.2 149.896L193.409 151.144L192.972 151.846L191.696 151.618L190.333 150.986ZM189.451 114.425L190.412 112.946L191.226 111.331L191.026 108.876L191.493 108.807L191.828 108.917L192.502 109.391L192.647 111.694L191.98 113.448L189.175 116.468L189.451 114.425ZM195.739 95.5764L195.98 98.5357L195.456 101.702L193.074 107.846L193.12 102.934L192.861 101.157L192.977 101.522L193.018 101.802L193.171 101.971L193.692 101.832L193.087 97.9086L192.422 96.1908L191.162 94.7506L194.172 93.1337L194.616 93.1318L195.086 93.5099L197.779 94.5175L199.458 95.9919L200.007 96.7075L200.455 97.8194L195.739 95.5764Z" fill="#BEBCAA"/>
</svg>
