<svg width="369" height="1110" viewBox="0 0 369 1110" fill="none" xmlns="http://www.w3.org/2000/svg">
<path d="M-443.686 907.866L-445.469 907.061L-453.821 905.21L-459.211 902.656L-460.011 902.614L-461.822 903.072L-462.639 902.909L-463.369 902.2L-463.933 900.641L-464.446 899.877L-466.144 898.505L-467.585 897.978L-475.263 898.442L-484.658 897.776L-488.684 898.036L-490.264 897.282L-492.129 895.154L-494.898 890.578L-496.275 889.261L-500.494 887.227L-504.927 886.788L-518.681 889.08L-520.977 889.121L-523.221 888.679L-525.534 887.42L-530.009 884.021L-531.066 883.633L-532.372 883.154L-533.342 883.25L-535.307 884.036L-536.289 884.27L-537.436 884.11L-540.742 882.782L-543.501 882.788L-545.082 883.754L-546.441 885.119L-548.513 886.361L-553.168 885.93L-555.938 882.035L-556.701 876.738L-555.343 872.106L-571.754 870.078L-574.186 870.648L-577.512 873.135L-579.564 874.226L-581.699 874.527L-583.595 874.09L-594.932 867.714L-597.857 864.793L-599.32 860.325L-599.893 856.326L-601.023 853.709L-603.394 852.247L-607.634 851.68L-609.476 850.851L-612.137 848.549L-613.927 847.928L-615.544 848.04L-616.961 848.405L-618.343 848.473L-619.891 847.749L-620.361 847.05L-620.996 845.152L-621.489 844.535L-622.511 844.118L-622.83 844.312L-623.042 844.772L-623.754 845.182L-624.94 845.626L-630.132 848.386L-630.868 849.046L-631.721 849.487L-633.116 849.465L-634.372 848.779L-636.768 846.371L-638.128 845.7L-640.678 846.072L-642.246 847.203L-642.387 846.981L-642.525 843.846L-642.985 842.658L-644.177 842.349L-646.559 840.862L-647.232 836.905L-647.05 830.087L-649.483 826.936L-656.389 823.89L-658.683 821.265L-659.029 821.508L-659.154 821.527L-659.202 821.629L-659.316 822.16L-660.734 820.951L-662.441 817.982L-663.828 816.769L-665.43 816.263L-666.907 815.965L-668.063 815.234L-668.745 813.404L-668.826 812.418L-668.792 811.995L-668.816 811.612L-669.117 810.852L-669.453 810.515L-669.998 810.048L-670.571 809.392L-671.341 807.382L-672.081 806.46L-672.559 805.372L-672.378 803.769L-671.599 803.655L-671.409 804.078L-670.791 805.048L-670.527 803.145L-671.106 801.139L-672.129 799.359L-673.227 797.943L-674.789 799.231L-675.196 799.709L-676.549 798.074L-677.515 796.03L-678.514 791.579L-679.086 790.279L-681.769 787.167L-683.104 785.883L-685.685 784.332L-686.785 783.334L-688.111 779.703L-689.382 778.41L-692.282 776.424L-700.485 760.787L-701.766 760.299L-702.752 758.939L-703.629 757.299L-704.441 756.102L-705.656 755.412L-708.72 754.478L-709.987 753.861L-710.992 752.433L-711.837 750.566L-712.98 749.063L-714.862 748.599L-715.579 747.387L-720.866 740.613L-719.69 736.686L-719.427 734.562L-720.745 733.824L-720.83 732.808L-720.161 727.574L-720.109 725.543L-721.4 721.495L-727.283 712.373L-728.991 708.741L-729.634 708.258L-731.14 707.964L-731.52 706.896L-731.373 705.719L-731.212 705.086L-731.897 703.23L-733.263 701.504L-734.921 700.174L-736.514 699.509L-735.98 698.148L-735.401 698.191L-734.74 698.799L-733.958 699.134L-731.029 698.706L-729.692 697.613L-729.869 695.523L-730.632 693.132L-731.042 691.203L-730.68 690.413L-729.458 688.984L-729.228 688.373L-729.866 684.008L-731.46 682.029L-737.254 679.413L-738.183 678.074L-740.913 676.805L-749.01 669.973L-751.428 666.063L-752.597 663.508L-752.612 662.324L-757.316 657.787L-760.506 652.515L-761.573 651.741L-763.489 651.477L-765.516 650.458L-777.842 641.685L-779.277 639.716L-780.198 637.768L-782.031 636.338L-784.324 635.457L-786.655 635.188L-791.437 636.014L-795.738 637.956L-803.216 643.629L-803.644 641.129L-805.137 639.842L-809.158 638.475L-814.906 634.863L-825.996 624.537L-827.447 622.443L-828.331 621.612L-830.929 621.254L-832.139 620.598L-832.799 619.573L-832.423 618.43L-831.486 616.34L-831.438 613.835L-833.199 606.791L-833.939 599.984L-833.533 597.748L-832.145 594.824L-830.374 592.132L-828.682 590.636L-827.645 590.55L-825.667 591.445L-824.473 591.559L-823.721 591.033L-817.749 583.537L-815.547 581.838L-813.1 580.937L-813.429 578.905L-813.316 574.888L-813.565 572.75L-815.304 568.045L-830.319 544.551L-832.806 542.132L-838.331 538.302L-840.916 535.642L-842.353 532.335L-842.322 529.932L-841.783 527.295L-840.852 524.728L-839.751 522.681L-839.391 520.774L-839.634 518.028L-840.164 515.484L-840.636 514.21L-839.898 513.814L-839.618 513.55L-839.267 513.564L-838.424 513.887L-838.19 512.446L-839.223 510.392L-838.747 509.075L-838.078 507.987L-838.146 507.294L-838.541 506.554L-838.901 505.392L-839.268 505.062L-839.887 505.185L-840.432 505.169L-840.532 504.481L-840.227 503.957L-839.806 503.8L-839.4 503.741L-839.175 503.548L-838.888 502.899L-838.542 502.432L-838.228 501.746L-838.155 500.489L-838.578 498.027L-839.592 495.651L-841.042 493.562L-844.083 490.619L-845.02 488.774L-844.706 487.865L-844.553 487.173L-844.677 486.551L-845.258 486.061L-845.859 486.086L-846.447 486.205L-846.88 486.075L-848.927 484.04L-850.087 483.284L-852.263 482.994L-855.241 482.215L-856.047 481.919L-857.005 481.035L-857.595 480.258L-858.363 479.572L-859.812 479.016L-860.922 478.827L-864.21 478.988L-866.208 478.61L-866.313 477.89L-863.767 474.834L-863.806 474.137L-864.517 473.411L-865.424 472.648L-866.083 471.848L-866.393 470.807L-867.441 463.198L-866.348 435.797L-866.768 429.464L-863.139 429.78L-858.767 429.488L-858.258 429.605L-857.175 428.482L-857.027 427.237L-857.172 425.858L-856.997 424.297L-856.422 423.573L-854.738 422.464L-854.323 421.474L-854.352 419.706L-854.215 419.305L-852.651 418.001L-851.503 417.978L-850.27 418.392L-848.453 418.431L-847.57 417.977L-842.332 414.51L-839.057 410.389L-835.726 407.795L-834.78 406.772L-832.621 405.102L-831.533 403.217L-829.775 396.349L-828.912 394.61L-822.578 387.544L-819.951 383.184L-818.095 378.52L-817.915 377.808L-816.849 373.587L-816.126 365.673L-815.174 363.316L-810.448 356.802L-807.406 349.167L-804.981 347.066L-800.033 347.922L-799.945 346.005L-800.516 344.397L-801.355 342.85L-802.064 341.128L-802.235 339.138L-802.242 339.059L-801.778 337.042L-798.415 329.53L-797.909 327.439L-798.154 325.493L-798.717 323.403L-798.327 322.047L-795.687 319.5L-795.487 319.035L-795.274 317.727L-795.048 317.357L-793.325 316.837L-793.113 316.828L-793.029 317.017L-791.028 316.558L-790.947 316.312L-790.901 315.364L-790.776 315.077L-788.053 314.018L-787.363 313.649L-786.628 312.791L-785.488 310.944L-780.857 307.907L-778.472 304.805L-778.749 301.957L-782.199 300.678L-782.997 300.383L-781.392 297.752L-779.667 295.597L-777.542 293.81L-774.809 292.292L-773.531 291.938L-772.582 291.206L-772.042 290.153L-771.903 288.845L-768.897 289.828L-766.007 289.07L-763.712 286.955L-762.529 283.872L-762.674 283.267L-763.42 281.45L-763.589 280.679L-762.403 278.322L-761.853 275.658L-761.86 274.303L-762.163 272.982L-762.711 272.29L-764.232 271.482L-764.727 270.736L-764.729 270.11L-764.432 268.623L-764.531 268.067L-765.79 266.75L-768.753 264.676L-769.505 263.197L-769.051 261.406L-766.325 257.147L-766.091 256.534L-765.569 255.167L-768.045 255.507L-772.79 257.609L-775.232 258.189L-776.688 257.977L-779.344 256.742L-780.716 256.451L-782.011 256.729L-783.005 257.299L-784.071 257.734L-785.528 257.632L-785.88 257.213L-786.428 255.524L-786.796 254.918L-787.302 254.678L-788.79 254.29L-796.268 251.175L-797.148 251.159L-798.546 251.922L-799.653 253.146L-801.326 256.344L-801.801 256.66L-801.819 256.622L-802.458 255.368L-803.51 254.594L-804.246 253.841L-803.934 252.609L-805.936 252.364L-807.766 251.087L-810.914 248.045L-811.411 246.248L-810.54 243.716L-808.688 240.256L-809.044 237.556L-808.94 235.863L-808.289 234.348L-803.134 227.062L-802.743 224.958L-805.041 226.21L-808.584 228.495L-810.708 229.555L-812.769 229.835L-814.111 228.866L-814.082 226.199L-813.41 224.759L-811.232 221.991L-810.408 220.517L-810.111 219.333L-809.737 215.844L-807.149 205.477L-806.058 203.023L-803.195 198.097L-801.325 196.595L-799.028 196.55L-796.635 196.873L-794.436 196.428L-793.395 195.259L-792.301 192.192L-791.226 191.061L-789.886 190.675L-788.695 190.869L-782.77 192.791L-781.876 192.873L-780.95 192.469L-780.248 191.919L-778.823 191.343L-777.323 190.161L-775.661 189.114L-774.429 187.917L-773.625 185.774L-773.492 183.552L-774.999 176.367L-774.76 171.568L-772.839 159.243L-774.173 156.295L-775.531 154.928L-777.381 153.544L-779.429 152.869L-781.347 153.585L-780.853 147.216L-781.58 144.46L-784.828 144.42L-784.428 143.49L-783.883 142.706L-782.362 141.109L-783.448 139.333L-783.089 137.616L-782.243 135.87L-781.925 133.99L-783.388 129.864L-783.923 128.802L-783.134 125.712L-783.539 124.776L-784.691 123.467L-785.011 122.954L-785.143 121.811L-784.995 113.259L-785.306 110.521L-786.405 108.389L-788.78 109.72L-790.628 108.659L-791.994 106.421L-793.577 102.762L-794.167 102.02L-795.684 100.81L-797.777 98.7242L-798.607 97.436L-798.132 96.74L-797.985 95.4435L-798.19 92.6568L-799.195 89.976L-801.435 89.028L-803.556 89.0364L-810.929 87.463L-811.989 87.0151L-813.796 85.735L-815.028 85.1104L-818.335 84.2749L-819.853 83.4448L-820.669 81.8315L-820.676 81.0281L-820.517 80.3673L-820.344 79.8716L-820.288 79.5273L-820.627 78.6942L-821.799 77.5578L-822.738 75.4919L-825.13 72.5778L-826.001 71.1285L-826.816 68.4526L-827.36 67.862L-828.799 67.1114L-829.219 67.2963L-829.854 67.7686L-830.678 68.0233L-831.699 67.5349L-831.966 66.9255L-831.774 66.2492L-831.463 65.5879L-831.329 64.9309L-831.89 63.5383L-833.589 62.7021L-834.105 61.6153L-833.944 60.3689L-833.299 59.0885L-832.588 58.0892L-832.484 57.9418L-831.731 57.1271L-830.401 57.0566L-829.537 57.466L-828.903 57.9762L-828.267 58.163L-827.007 57.8794L-825.104 57.1331L-819.836 55.861L-817.491 55.7767L-814.825 56.2027L-813.642 54.8894L-810.441 50.3304L-809.025 49.3083L-805.194 47.4522L-801.512 44.7919L-797.632 45.1859L-795.824 45.7721L-788.986 44.7736L-769.596 41.9426L-750.216 39.1131L-747.957 38.7833L-730.83 36.2827L-711.444 33.4523L-694.78 31.0192L-696.023 34.1215L-695.59 36.0011L-694.1 36.6119L-691.974 35.252L-690.908 34.4914L-690.415 32.4137L-690.351 30.3769L-688.913 30.167L-688.877 30.3113L-688.741 31.4688L-688.376 32.4348L-687.747 32.3755L-686.991 31.8834L-686.155 31.5076L-684.785 31.9452L-685.294 33.483L-686.483 35.1529L-687.34 36.0412L-686.404 37.6544L-686.186 38.9279L-686.124 40.2243L-685.844 41.7121L-685.093 42.9402L-684.056 44.1571L-683.254 45.2825L-683.273 46.2393L-683.968 48.8886L-683.3 59.1384L-683.788 62.33L-685.404 66.959L-685.402 71.5448L-686.059 74.028L-686.098 75.4974L-685.625 78.7393L-685.584 80.325L-685.878 81.8012L-690.523 80.5062L-690.777 83.568L-689.693 88.1541L-690.404 91.3457L-687.91 94.2622L-688.268 96.8298L-689.801 99.634L-690.952 103.306L-690.657 111.861L-691.624 115.059L-691.877 116.815L-691.827 124.133L-692.52 127.229L-696.251 133.506L-697.155 136.473L-697.324 139.682L-696.933 143.448L-695.814 143.476L-695.393 142.872L-695.16 142.073L-694.586 141.638L-693.513 141.576L-692.871 141.61L-692.274 141.556L-691.313 141.16L-690.531 140.408L-689.996 139.502L-689.152 138.741L-687.3 138.343L-688.071 141.575L-688.142 143.051L-688.559 143.908L-688.636 144.462L-688.353 144.867L-687.171 145.555L-686.845 146.05L-686.984 147.28L-688.144 149.36L-688.404 150.417L-688.142 151.335L-686.91 152.365L-686.582 153.082L-687.947 157.677L-688.425 158.542L-687.968 159.495L-689.167 166.103L-688.65 169.213L-688.9 170.111L-689.8 171.58L-690.213 172.468L-690.318 173.279L-690.045 175.373L-689.626 176.713L-688.698 177.182L-686.837 176.848L-684.312 175.174L-682.556 173.037L-680.489 171.493L-677.215 171.683L-677.489 172.87L-677.705 173.348L-676.01 173.834L-674.93 174.695L-674.96 175.369L-676.68 175.365L-676.282 177.44L-675.753 178.668L-673.648 180.879L-672.119 181.102L-671.365 181.469L-671.837 183.257L-671.505 184.005L-670.985 184.725L-670.746 185.485L-671.107 186.939L-671.792 188.346L-672.884 189.59L-674.454 190.615L-676.055 190.977L-677.481 191.025L-678.375 191.441L-678.53 192.992L-677.701 194.751L-676.372 195.132L-675.085 195.23L-674.374 196.178L-673.527 201.981L-672.741 202.79L-671.246 202.348L-668.155 200.845L-664.981 200.349L-663.273 199.844L-662.067 199.158L-662.092 200.946L-662.999 201.27L-664.28 201.01L-665.464 201.183L-665.95 201.573L-666.136 201.823L-666.104 202.265L-665.986 203.076L-665.952 203.962L-666.214 204.129L-666.667 204.067L-667.793 204.645L-669.178 204.752L-669.73 205.119L-670.222 206.114L-670.131 206.739L-669.839 207.206L-669.743 207.638L-670.684 210.356L-670.678 212.363L-670.73 212.88L-670.427 212.996L-668.468 212.678L-667.852 212.748L-667.431 213.452L-667.091 215.124L-667.171 220.457L-666.736 223.007L-665.007 224.825L-663.688 223.836L-662.259 222.29L-661.111 220.561L-660.635 219.026L-661.115 217.693L-663.066 214.153L-663.33 213.426L-663.034 213.064L-663.298 212.337L-664.038 210.979L-663.949 209.852L-663.448 209.141L-662.737 208.56L-661.942 207.679L-660.91 207.337L-659.673 208.176L-658.787 209.673L-658.803 211.299L-657.197 210.523L-655.292 210.054L-655.866 208.958L-656.705 205.607L-656.855 204.354L-657.124 203.597L-657.561 203.214L-657.741 202.859L-657.178 202.139L-656.652 202.03L-656.333 202.684L-656.137 204.249L-653.54 203.074L-652.617 204.372L-652.481 206.391L-652.335 207.389L-649.85 207.631L-649.039 209.041L-648.761 211.167L-648.073 213.488L-646.554 214.732L-644.581 214.73L-642.963 213.603L-642.471 211.523L-643.022 210.585L-645.186 209.274L-645.911 208.68L-646.095 207.846L-646.236 205.796L-646.439 205.06L-646.984 204.597L-647.77 204.235L-648.574 203.524L-649.476 201.266L-650.321 200.275L-651.264 199.489L-652.066 199.225L-652.97 199.133L-653.766 198.707L-654.244 198.044L-654.13 197.295L-653.495 196.627L-652.729 196.42L-651.82 196.32L-650.629 195.985L-650.027 195.961L-649.571 196.245L-649.043 196.168L-648.186 195.278L-648.006 194.774L-647.967 194.164L-648.077 193.637L-648.455 193.437L-648.906 192.961L-648.879 190.311L-649.038 189.443L-650.015 187.324L-649.407 185.388L-648.063 184.778L-646.846 186.576L-646.128 186.471L-646.32 185.384L-646.322 184.493L-646.196 183.614L-645.95 182.687L-645.13 183.938L-642.298 186.328L-640.838 187.834L-640.64 187.009L-640.453 186.759L-640.551 186.517L-641.141 185.743L-640.337 185.369L-639.398 185.265L-638.414 185.472L-637.393 185.928L-637.532 186.937L-636.696 187.867L-635.425 188.286L-634.144 187.685L-633.158 189.644L-633.062 190.522L-631.244 189.237L-631.039 187.583L-631.116 185.97L-630.068 184.861L-631.027 183.312L-632.148 182.615L-633.429 182.132L-635.333 181.072L-637.015 180.68L-637.826 180.352L-638.286 179.814L-638.696 178.536L-639.259 177.948L-640.284 177.683L-641.537 177.611L-642.613 177.225L-643.232 176.041L-643.389 174.535L-643.371 173.132L-643.099 171.945L-642.47 171.025L-641.971 171.175L-638.021 170.757L-637.447 171.853L-636.283 172.416L-634.843 172.461L-633.48 171.976L-631.856 169.796L-629.901 164.222L-627.946 163.874L-628.064 160.45L-628.444 158.721L-629.208 158.067L-629.664 157.782L-629.727 157.121L-629.31 156.488L-628.358 156.477L-627.948 156.894L-627.03 158.607L-626.444 159.127L-624.595 159.366L-623.399 158.841L-622.398 158.057L-621.134 157.554L-619.803 157.297L-619.357 157.294L-616.685 161.651L-615.569 162.316L-613.741 162.4L-613.051 162.555L-613.445 163.123L-614.637 164.125L-614.598 163.738L-615.297 163.521L-616.259 163.471L-616.899 163.659L-616.995 165.84L-614.705 168.214L-611.892 170.479L-612.008 171.866L-610.359 173.345L-607.766 173.443L-602.918 172.64L-603.032 173.166L-603.196 174.433L-603.372 174.968L-602.196 174.733L-601.071 174.601L-599.943 174.693L-598.881 174.984L-598.154 174.082L-597.215 173.978L-596.215 174.502L-595.149 175.27L-594.44 174.019L-592.494 172.302L-592.071 171.06L-591.323 170.951L-590.783 172.466L-590.594 174.191L-590.82 175.913L-591.497 177.382L-593.108 179.211L-593.693 180.22L-594.757 183.402L-592.253 183.77L-589.859 181.859L-582.982 173.144L-582.604 171.591L-582.709 169.344L-582.588 168.212L-582.13 166.328L-581.451 164.445L-580.649 163.404L-579.667 165.555L-579.35 167.293L-578.763 168.927L-576.931 170.793L-575.473 172.716L-575.722 174.504L-576.585 176.224L-577.057 177.791L-575.701 176.828L-571.748 173.382L-570.99 174.004L-571.124 174.819L-570.525 176.963L-570.352 178.371L-569.224 177.155L-567.932 174.449L-566.563 173.358L-565.287 173.586L-563.604 172.256L-562.624 172.431L-561.765 173.295L-561.282 173.99L-560.767 174.457L-559.76 174.596L-559.664 175.252L-560.195 176.637L-561.145 177.762L-561.854 179.013L-561.785 180.787L-560.674 180.339L-559.808 180.594L-559.15 181.389L-558.598 182.551L-560.834 183.163L-560.647 184.665L-559.754 186.638L-559.895 188.729L-560.538 188.472L-562.192 188.267L-561.358 190.057L-560.825 190.871L-560.203 191.641L-559.524 191.065L-558.665 191.067L-556.471 191.926L-558.095 193.885L-558.33 195.322L-557.008 196.086L-553.996 195.997L-552.666 197.045L-553.017 199.87L-554.664 204.285L-554.5 205.631L-553.958 206.731L-553.901 207.551L-558.159 209.129L-559.485 209.418L-560.661 209.876L-563.843 212.286L-566.213 213.493L-566.634 214.32L-565.593 215.57L-563.866 214.744L-561.672 215.38L-557.938 217.417L-557.833 218.135L-560.679 218.708L-561.303 219.884L-561.062 221.314L-561.248 222.649L-562.103 224.43L-562.198 226.166L-561.718 227.722L-560.72 228.884L-559.94 228.77L-559.296 227.306L-556.252 223.737L-555.81 222.62L-554.746 218.354L-555.259 217.026L-555.249 214.698L-554.844 212.249L-554.142 210.52L-552.276 208.91L-550.579 207.897L-549.33 206.63L-548.799 204.163L-547.988 204.045L-547.48 206.649L-546.206 208.184L-544.32 209.121L-537.801 211.038L-535.626 211.325L-534.366 211.013L-533.967 210.255L-533.956 209.457L-534.229 208.669L-534.796 208.051L-536.341 207.288L-537.36 207.5L-538.21 208.006L-539.226 208.026L-540.804 207.461L-540.925 207.064L-540.975 205.638L-541.123 205.278L-542.055 205.223L-545.518 205.92L-544.896 203.854L-543.718 202.758L-543.114 201.874L-544.076 200.516L-544.682 200.286L-546.536 199.791L-547.183 199.504L-547.675 198.971L-548.495 197.497L-549.051 196.75L-549.842 196.132L-551.892 194.742L-552.361 194.364L-552.416 192.906L-551.696 192.387L-550.898 192.399L-550.498 192.531L-549.882 191.517L-549.577 191.217L-549.823 190.839L-550.923 189.629L-551.42 189.287L-553.621 188.175L-554.48 187.089L-555.243 185.353L-555.427 183.658L-554.414 182.744L-554.438 181.92L-552.452 178.093L-551.866 177.53L-552.69 175.803L-555.57 173.516L-556.327 172.256L-556.381 170.351L-555.819 169.185L-554.698 168.798L-553.089 169.135L-553.991 165.793L-551.95 162.34L-548.439 159.566L-544.698 158.159L-535.963 157.808L-531.676 158.392L-531.457 160.112L-530.42 161.331L-528.84 163.648L-527.776 164.607L-527.33 164.605L-525.247 164.906L-525.163 165.052L-524.739 165.341L-524.61 166.883L-524.122 167.163L-523.19 167.441L-520.579 168.973L-519.032 169.319L-517.729 169.097L-512.286 167.569L-509.792 166.567L-509.211 166.834L-508.34 167.344L-507.586 167.49L-507.342 165.893L-506.978 165.33L-506.356 165.016L-505.531 165.214L-505.285 165.816L-505.388 166.85L-505.629 167.809L-505.868 168.13L-504.458 168.625L-502.757 168.504L-501.319 168.104L-500.727 167.794L-500.335 169.393L-499.619 170.15L-498.46 170.236L-496.676 169.817L-497.288 169.111L-497.607 168.457L-497.587 167.721L-497.108 166.856L-495.702 167.32L-494.613 166.715L-493.941 165.437L-493.852 163.863L-494.536 163.102L-498.562 161.905L-500.111 161.112L-500.12 161.05L-499.122 160.905L-496.643 158.919L-494.335 157.721L-493.376 156.657L-491.309 157.726L-488.999 157.421L-487.573 156.289L-488.103 154.838L-488.867 154.407L-489.5 154.213L-489.937 153.831L-490.229 152.917L-489.947 152.015L-489.201 150.792L-488.274 149.732L-487.461 149.2L-485.725 148.66L-481.728 146.387L-480.28 145.187L-478.445 141.829L-477.051 140.479L-474.948 140.714L-471.742 137.379L-470.427 136.359L-465.866 134.674L-464.916 133.548L-463.852 133.202L-458.304 128.251L-458.678 127.221L-459.268 126.67L-459.831 126.305L-460.129 125.997L-460.182 124.986L-459.835 123.216L-459.949 122.213L-462.211 118.276L-465.764 115.738L-469.833 115.345L-473.469 117.914L-477.79 122.112L-478.719 122.725L-480.237 123.456L-481.46 124.877L-483.541 127.857L-488.022 126.377L-494.191 126.196L-500.582 126.906L-505.715 128.165L-508.485 129.684L-509.989 130.064L-510.775 129.255L-511.442 127.951L-512.754 127.028L-515.716 125.932L-518.871 125.246L-521.302 125.601L-523.257 127.033L-524.843 129.463L-525.866 128.338L-526.349 127.643L-526.725 126.807L-526.763 125.665L-526.043 124.064L-525.802 122.882L-525.947 122.107L-526.33 121.016L-526.681 120.143L-526.929 120.18L-526.656 118.993L-526.455 118.835L-526.161 119.111L-525.612 119.159L-522.628 118.884L-522.651 118.727L-519.928 119.062L-519.34 119.39L-518.791 118.133L-519.037 116.672L-520.044 115.449L-521.748 114.902L-520.674 113.535L-518.886 114.454L-517.148 116.334L-516.141 117.778L-515.423 117.674L-515.906 114.591L-514.156 114.589L-509.479 117.634L-509.281 116.809L-508.957 116.411L-507.52 115.787L-511.114 111.884L-508.585 108.711L-505.109 109.19L-497.539 112.861L-492.64 112.179L-491.749 112.4L-491.282 110.803L-490.209 109.213L-489.995 107.621L-491.879 106.048L-492.651 106.638L-492.95 106.777L-493.262 106.599L-494.123 106.374L-493.745 106.128L-493.62 106.109L-493.572 106.007L-493.449 105.542L-497.807 105.127L-502.386 105.382L-499.819 103.127L-499.718 102.507L-500.732 101.445L-503.227 100.281L-503.942 99.5264L-503.442 98.1482L-504.809 98.1569L-505.985 98.3915L-506.723 99.0088L-506.849 100.109L-510.526 100.869L-514.306 104.416L-518.084 107.101L-521.729 105.244L-519.405 103.28L-519.058 103.039L-519.318 101.485L-519.338 100.692L-518.552 98.6672L-517.934 95.4871L-517.389 94.1976L-514.86 91.4714L-512.484 90.5194L-506.175 89.6938L-506.554 92.5506L-505.281 93.6375L-503.116 93.6402L-500.82 93.242L-499.544 92.6091L-498.625 91.4884L-497.987 90.4086L-497.584 89.9031L-496.128 89.6276L-495.208 89.1745L-494.556 88.4114L-493.913 87.1402L-493.672 85.7345L-493.986 84.8892L-494.049 84.2307L-493.006 83.3129L-492.717 83.5569L-489.233 83.8766L-488.568 84.5124L-487.276 84.6425L-486.08 84.1166L-485.724 82.6314L-486.362 82.1824L-489.449 80.6578L-490.543 79.9262L-491.142 80.842L-492.34 79.3929L-493.042 78.7299L-493.757 78.1969L-496.247 77.0642L-496.997 76.5058L-498.003 75.0612L-497.429 74.6282L-493.535 74.4739L-482.698 72.8287L-481.914 72.5234L-481.287 72.0178L-480.72 70.8833L-480.622 69.594L-481.018 68.4094L-481.934 67.5869L-482.823 68.2587L-483.713 68.4842L-484.582 68.4201L-485.55 68.1148L-484.467 67.0331L-483.841 66.7507L-483.629 66.464L-483.74 65.2703L-483.996 64.6072L-485.574 62.9577L-486.752 63.6067L-487.695 63.6815L-488.383 63.1141L-488.752 61.8951L-489.707 62.5441L-490.677 62.8766L-491.573 62.849L-492.368 62.423L-491.035 61.0814L-489.433 60.7196L-487.804 60.5447L-486.399 59.7019L-485.558 58.0505L-485.305 56.294L-485.838 55.2573L-487.355 55.7651L-488.143 54.7331L-489.246 53.94L-489.956 52.9921L-489.453 51.6457L-488.115 50.7826L-486.65 50.792L-484.278 51.5603L-483.823 51.8429L-483.251 52.269L-482.529 52.6406L-481.531 52.7182L-480.629 52.3632L-479.376 51.1286L-478.576 50.7256L-476.87 50.6347L-475.471 50.8447L-474.542 50.6764L-474.247 49.4235L-472.726 50.4742L-471.794 52.0577L-470.735 53.4317L-468.835 53.7918L-465.825 53.257L-464.846 53.2094L-463.802 53.3758L-461.991 54.0025L-461.016 54.1464L-460.549 53.8549L-460.091 53.2784L-459.763 52.6885L-459.734 52.4608L-459.164 52.4405L-458.33 52.9238L-457.813 52.9762L-456.972 52.6301L-456.738 52.0538L-457.123 51.6004L-458.032 51.4773L-458.31 51.1037L-458.722 50.2402L-459.3 49.338L-460.264 48.8412L-461.23 48.9823L-462.173 49.5016L-463.639 50.7976L-463.755 49.572L-464.22 49.0024L-465.586 48.1503L-465.978 48.0796L-466.459 48.2777L-466.86 48.3688L-468.088 46.2864L-468.958 45.5527L-469.218 45.081L-469.557 44.7165L-470.56 44.3858L-471.455 44.3582L-473.293 44.8499L-474.175 44.9158L-475.697 44.3097L-476.906 43.2134L-477.093 41.9353L-475.53 40.6555L-468.729 41.8916L-469.522 40.8299L-470.642 39.9116L-471.957 39.6264L-473.381 40.3439L-473.285 39.6924L-473.294 39.4075L-473.26 39.2117L-472.873 38.8039L-475.98 36.4864L-476.889 35.0601L-475.87 33.3198L-473.959 33.7736L-467.55 32.105L-465.162 31.8843L-464.02 32.0689L-461.924 32.9099L-459.737 32.8464L-458.876 33.0698L-457.202 34.289L-457.517 34.5258L-457.754 35.2933L-457.822 36.1316L-457.599 36.576L-456.451 36.5992L-455.892 35.8498L-455.735 34.7448L-455.824 33.7062L-456.773 31.9974L-458.717 30.4662L-461.063 29.4405L-463.136 29.2011L-463.232 28.5472L-463.063 28.1735L-462.944 27.4558L-462.798 26.9249L-463.452 27.0204L-465.327 28.1225L-467.881 27.6367L-469.557 25.5266L-468.691 21.8657L-467.388 20.1163L-465.952 18.8247L-462.733 16.6677L-461.306 15.3124L-458.722 11.2099L-459.121 10.2164L-460.408 9.0361L-461.039 7.98118L-459.305 7.21846L-456.794 6.9798L-456.065 6.74543L-455.639 6.17366L-455.5 5.39006L-455.258 4.6544L-454.552 4.26504L-451.567 1.60017L-451.437 0.872132L-445.326 3.20431L-420.745 12.5821L-396.154 21.9477L-377.603 29.027L-371.573 31.3276L-346.993 40.6969L-322.4 50.0752L-317.204 52.0552L-297.82 59.4445L-273.249 68.8281L-248.667 78.2101L-224.084 87.5943L-199.513 96.9799L-174.921 106.354L-150.34 115.73L-125.757 125.118L-101.176 134.496L-76.5818 143.885L-67.8115 147.236L-51.9982 153.277L-42.5418 156.888L-40.5412 159.259L-36.9921 170.482L-36.5589 171.846L-32.5434 184.497L-34.4482 184.921L-35.3665 185.983L-35.522 187.517L-35.0924 189.391L-37.0721 189.836L-39.3932 191.552L-41.4826 193.771L-42.7765 195.706L-43.176 196.727L-43.5062 197.985L-43.5993 199.263L-43.2725 200.358L-42.3923 201.025L-40.6194 200.989L-39.9605 201.745L-40.1312 203.561L-40.6716 205.757L-40.1529 207.171L-35.1302 206.136L-32.8361 206.003L-30.5182 206.269L-28.3754 206.941L-26.6994 208.084L-25.6623 209.602L-22.8697 215.868L-21.491 217.885L-19.7559 219.581L-13.3845 222.884L-3.39395 228.088L6.58632 233.297L16.59 238.502L26.5687 243.699L36.549 248.908L46.5511 254.102L55.7569 258.907L56.5315 259.313L66.5339 264.509L76.513 269.709L86.4936 274.919L96.4979 280.129L106.488 285.329L116.479 290.54L126.471 295.751L136.461 300.952L146.393 306.141L147.214 306.7L149.16 306.945L150.277 309.828L150.202 313.354L148.496 315.466L145.822 317.339L148.295 317.941L149.91 317.846L150.917 318.3L151.528 320.613L151.728 322.889L151.6 324.787L151.157 326.582L148.619 332.827L147.448 334.323L146.609 332.856L146.663 330.701L147.044 328.545L147.094 326.48L146.159 324.708L145.088 330.454L143.752 332.638L141.427 332.81L143.678 335.396L144.116 336.41L145.367 342.392L145.204 343.502L144.547 344.066L142.826 343.788L141.971 344.319L141.652 344.914L140.902 347.127L140.933 348.605L142.445 348.295L145.628 346.408L145.938 347.998L147.474 350.38L147.816 351.338L147.499 352.181L143.982 356.298L143.425 357.307L141.965 362.009L139.437 367.361L139.204 368.173L140.146 368.831L141.172 367.78L142.506 365.464L143.333 366.677L140.697 380.681L139.883 383.188L138.698 385.375L137.693 386.274L136.557 387.049L135.712 388.02L135.606 389.521L136.194 390.355L137.088 390.632L137.916 391.175L138.309 392.841L137.503 397.274L135.364 403.961L132.485 410.101L129.344 412.824L130.888 413.271L130.51 415.572L131.147 420.538L130.409 422.662L129.313 424.555L127.968 428.784L126.144 432.687L125.721 435.093L125.687 437.637L126.655 444.501L126.359 445.607L125.776 446.445L125.317 447.459L125.049 448.515L125.024 448.881L124.851 451.675L124.159 453.988L123.714 456.425L124.203 458.982L124.691 459.609L126.232 460.941L126.8 461.575L128.407 465.528L129 466.521L129.71 467.046L132.264 468.204L134.123 469.366L134.408 469.997L135.409 473.957L135.524 476.551L135.118 478.957L134.086 480.693L135.282 483.226L136.517 489.145L138.231 491.606L139.509 492.278L140.909 492.763L142.109 493.331L142.716 494.297L143.046 495.417L143.686 496.547L144.537 497.548L145.523 498.334L146.199 498.686L146.766 498.825L148.163 498.692L148.932 498.899L149.394 499.54L149.805 500.242L150.36 500.674L151.731 500.721L154.692 500.449L155.935 500.94L157.071 501.191L158.158 500.616L157.93 499.782L156.949 499.509L155.146 499.089L152.859 498.005L156.029 498.498L158.379 499.165L165.052 503.876L169.158 507.581L172.242 509.178L173.203 509.968L175.198 512.476L176.279 513.32L178.238 514.142L179.249 514.801L180.132 515.903L180.758 517.23L181.102 518.561L182.145 521.119L184.148 523.804L186.269 524.947L187.707 522.859L188.623 525.88L188.74 530.109L189.342 533.877L191.774 535.577L191.42 533.643L191.127 532.844L190.526 532.036L192.482 531.874L194.102 532.249L197.386 533.639L199.07 533.835L202.317 533.654L203.752 534.197L205.403 534.532L209.274 533.924L210.12 534.421L210.783 535.822L213.106 538.115L214.453 541.137L220.5 547.114L220.943 547.804L220.973 548.856L220.552 549.583L220.081 550.22L219.921 550.935L221.82 557.61L222.118 560.439L220.51 560.522L219.64 562.032L219.26 565.041L218.822 566.382L217.779 567.493L216.775 567.614L215.879 566.777L215.253 565.015L211.262 568.78L211.164 568.955L210.484 570.208L210.167 572.197L210.167 573.945L209.931 575.584L208.922 577.23L207.711 578.514L207.088 578.881L206.216 579.114L205.436 579.566L205.657 580.35L206.269 581.227L206.684 582.019L206.24 583.318L204.816 583.81L203.121 583.951L201.831 584.219L203.116 585.788L204.341 586.826L205.256 588.084L205.599 590.376L205.362 592.008L204.743 594.334L203.899 596.455L201.477 599.454L200.835 603.665L200.691 615.705L201.132 617.879L201.893 620.023L203.746 623.25L204.399 625.197L204.004 626.89L203.864 628.456L206.037 632.126L205.796 634.081L201.889 640.291L205.023 639.096L206.946 636.107L207.944 632.338L208.337 628.764L210.171 629.873L211.65 631.14L212.029 632.648L210.58 634.475L214.504 633.503L216.342 633.439L218.395 634.479L221.686 636.876L222.25 638.331L221.946 641.077L220.882 644.769L220.936 646.103L222.619 649.669L223.333 653.83L224.077 655.677L225.559 654.431L226.027 653.838L226.172 657.176L225.294 660.387L222.677 666.325L220.565 676.456L219.442 679.608L218.667 679.365L218.344 679.438L218.027 679.671L217.219 679.932L218.191 681.408L218.509 685.273L219.078 687.12L217.464 686.67L217.571 687.526L217.228 689.63L215.226 687.975L214.251 687.45L213.198 687.293L214.262 688.729L214.497 689.977L213.875 691.019L212.382 691.834L214.127 694.38L215.407 697.058L216.307 699.969L216.92 703.205L217.119 709.51L217.886 712.477L221.95 715.603L223.639 717.884L224.962 720.503L225.755 722.862L226.872 731.832L226.574 734.011L230.433 734.525L231.16 735.104L231.586 735.914L232.126 736.6L233.329 736.763L235.471 736.611L236.2 737.146L236.444 738.464L237.223 740.666L238.409 742.284L239.689 742.908L241.035 743.281L242.545 744.041L243.668 745.41L245.43 748.982L246.846 750.538L250.158 752.37L250.937 753.254L249.516 753.889L248.246 753.994L247.45 753.844L245.723 752.875L245.484 752.678L243.173 751.072L240.644 748.751L238.894 748.043L236.902 748.621L235.784 749.282L235.188 749.539L234.793 749.908L233.097 753.292L234.789 753.669L241.093 752.124L239.942 754.075L239.753 755.243L240.661 755.743L242.755 755.624L244.64 755.937L244.874 757.427L244.564 759.636L244.775 762.047L245.092 762.41L246.146 763.004L246.447 763.37L246.768 765.39L246.768 765.568L246.357 766.731L246.326 767.128L246.587 767.357L247.114 767.475L247.644 767.736L247.98 768.346L247.82 769.421L247.311 770.209L247.001 771.039L247.388 772.195L248.414 773.801L248.533 774.612L248.25 775.751L249.702 775.209L251.4 774.07L252.947 772.738L253.977 771.59L255.24 771.317L256.979 772.507L262.385 777.646L264.644 780.463L265.634 783.697L264.456 787.318L264.489 788.09L265.237 788.88L266.168 789.653L266.75 790.388L266.924 791.583L266.653 793.826L266.667 794.884L267.522 798.398L267.349 799.735L266.192 801.76L264.952 803.216L264.052 803.562L262.995 803.556L261.34 803.967L260.112 804.779L259.714 805.854L259.958 807.343L260.596 809.372L261.475 808.763L262.649 808.368L264.822 807.944L264.909 806.728L265.378 806.196L266.498 806.577L267.275 807.185L267.678 807.421L268.132 807.461L269.377 807.789L269.712 808.883L269.657 810.14L269.753 810.974L270.621 811.855L273.496 813.827L274.701 815.811L276.806 821.482L278.154 822.946L279.732 823.75L279.557 824.48L278.81 825.276L278.699 826.203L279.393 827.288L280.017 827.956L281.624 829.15L282.399 830.234L282.357 832.471L283.626 834.411L282.867 835.235L280.851 836.369L279.315 838.326L278.974 839.303L279.895 839.579L284.087 838.869L284.892 838.849L285.349 839.567L286.609 842.348L287.432 843.353L289.359 844.375L290.305 845.058L291.191 846.18L292.343 849.13L291.897 851.437L290.059 852.777L286.938 852.857L288.046 854.179L291.401 856.074L291.643 857.003L290.616 857.93L287.19 860.019L284.05 861.3L284.179 862.541L285.912 865.067L285.999 867.102L285.445 868.729L284.391 870.125L283.006 871.481L285.655 870.584L289.725 863.852L291.931 863.77L293.459 864.36L296.589 863.671L299.168 865.608L300.59 865.587L302.132 865.29L303.593 865.346L306.527 866.999L314.508 876.765L315.61 882.933L316.959 886.026L317.857 884.589L318.143 882.741L317.886 880.866L317.11 879.29L315.837 877.269L315.937 876.324L317.178 876.017L319.247 876.018L320.855 876.248L324.338 877.205L326.478 877.393L330.934 878.317L331.434 878.118L331.776 878.229L332.291 879.351L332.297 880.772L331.809 882.318L331.703 883.942L332.837 885.618L333.301 886.569L332.597 887.227L331.638 887.833L331.417 888.544L332.095 889.33L332.656 889.311L333.181 888.983L333.677 888.83L335.603 889.668L336.455 889.712L336.692 888.81L336.607 887.678L336.842 887L337.478 886.781L338.658 887.084L340.082 887.789L342.859 889.627L344.302 890.347L344.142 889.368L344.222 888.658L344.423 888.039L344.587 887.237L345.508 887.692L346.16 887.758L346.767 887.463L347.542 886.803L345.665 886.542L339.836 885.006L342.791 879.997L344.263 880.248L345.052 881.375L345.589 882.826L346.341 884.058L347.383 884.684L349.929 885.492L351.16 886.277L351.878 887.148L356.408 894.312L357.622 895.154L357.862 894.931L361.534 895.127L362.071 895.255L365.345 893.758L365.525 891.557L364.016 890.077L362.209 890.725L361.534 889.527L361.761 888.546L362.646 887.862L363.953 887.473L364.99 887.697L365.584 888.515L366.104 889.558L366.864 890.422L368.069 892.233L367.347 894.101L365.835 895.985L364.729 897.872L365.391 897.713L366.812 897.622L367.477 897.471L366.864 901.292L366.882 902.497L367.285 903.271L367.998 904L368.635 904.926L368.774 906.356L367.552 909.72L364.676 913.607L361.278 916.9L354.767 920.308L351.202 923.899L345.854 931.048L344.245 933.957L343.186 935.351L340.392 936.885L328.671 949.221L326.812 950.572L316.576 956.856L307.046 965.748L304.53 967.276L287.342 973.781L279.268 975.587L277.539 976.455L275.999 977.625L257.681 997.371L255.407 999.093L252.866 1000.28L250.048 1000.66L247.694 1000.16L243.036 998.425L240.469 998.288L237.424 1000.25L233.863 1001.51L220.019 1003.52L216.562 1004.87L214.091 1007.77L212.422 1009.35L210.294 1010.23L209.023 1011.32L205.4 1015.98L203.614 1017.29L202.435 1017.41L200.069 1017.2L198.78 1017.25L197.663 1017.64L195.666 1018.96L192.641 1020.28L191.156 1021.98L189.211 1025.35L179.821 1033.98L177.663 1037.65L177.598 1037.62L174.231 1036.26L165.529 1035.36L161.493 1033.98L154.749 1028.66L150.565 1026.57L145.561 1026.51L144.552 1026.96L142.354 1028.28L141.171 1028.67L139.861 1028.51L137.559 1027.28L136.481 1027.09L136.111 1026.92L135.407 1026.01L135.181 1025.77L134.599 1025.88L134.099 1026.22L133.815 1026.58L133.84 1026.74L133.012 1026.85L130.614 1027.15L124.715 1029.07L123.874 1030.27L122.969 1030.66L118.696 1031.55L117.006 1032.23L110.907 1037L110.322 1038.04L110.279 1039.67L109.361 1044.78L108.557 1046.25L108.994 1048.17L107.118 1053.08L106.913 1055.58L107.55 1056.96L108.379 1058.2L108.771 1059.5L108.117 1061.07L106.965 1062.45L104.993 1064.32L97.7874 1068.85L93.6266 1073.34L91.821 1074.75L89.6145 1075.49L86.2607 1076.01L84.029 1076.8L80.4959 1079.39L78.3543 1080.18L77.159 1080.95L76.5329 1082.41L76.1484 1083.99L75.7149 1085.15L74.9399 1086.05L74.2841 1086.54L72.3204 1087.16L69.9022 1087.52L64.4433 1086.8L63.5157 1086.49L61.3405 1084.76L60.0305 1084.36L59.0447 1084.57L58.282 1085.1L57.5281 1085.76L56.569 1086.37L52.8313 1087.34L48.1401 1087.51L38.8442 1086.77L34.862 1085.52L30.7067 1082.93L27.3013 1079.73L25.5457 1076.58L24.0247 1077.81L23.1887 1078.66L22.2564 1079.24L12.5916 1081.55L10.9828 1081.48L8.10703 1080.16L5.99497 1080.3L4.91359 1079.94L3.2076 1080.8L-0.754301 1087.2L-3.06452 1091.98L-3.88517 1093.01L-5.00505 1093.83L-8.69304 1095.9L-9.5966 1096.9L-10.0645 1097.68L-10.7697 1098.28L-13.5478 1099.01L-15.0432 1099.78L-21.5304 1101.82L-23.3878 1101.89L-26.2421 1100.95L-26.8649 1100.81L-27.6146 1100.34L-28.6199 1097.89L-29.5371 1097.43L-41.9019 1099.24L-42.3707 1099.55L-42.845 1100.13L-43.504 1100.74L-46.7574 1101.73L-50.4472 1103.4L-51.9768 1103.79L-53.1179 1103.64L-54.906 1102.87L-56.2081 1102.84L-60.4638 1104.22L-61.8022 1103.55L-63.0388 1101.73L-63.6818 1099.56L-63.239 1097.84L-64.2652 1095.79L-64.8622 1093.38L-65.7475 1091.44L-67.5751 1090.86L-68.5714 1090.78L-69.3748 1090.33L-70.1708 1089.7L-71.1609 1089.13L-72.2414 1088.84L-74.6728 1088.57L-75.775 1088.3L-79.9882 1086.47L-82.3434 1085.8L-83.8489 1086.12L-85.8075 1087.02L-87.9418 1086.26L-89.1911 1084.36L-88.537 1081.8L-90.6895 1079.84L-92.2039 1079.35L-96.191 1079.98L-96.898 1079.89L-100.083 1079.04L-104.534 1078.87L-105.795 1080.03L-108.486 1084.71L-110.141 1086.46L-115.318 1088.21L-117.095 1089.65L-115.928 1091.9L-117.086 1092.92L-118.047 1094.54L-118.714 1096.16L-119.135 1098.49L-120.097 1099.33L-125.588 1101.67L-125.71 1101.68L-127.989 1103.45L-129.795 1103.26L-131.601 1102.82L-132.747 1103.08L-132.608 1104.96L-133.869 1104.74L-134.439 1104.21L-134.822 1103.5L-135.51 1102.77L-136.557 1102.18L-137.057 1102.2L-137.438 1102.5L-138.098 1102.81L-138.105 1102.91L-139.434 1103.68L-139.886 1103.8L-142.509 1104.05L-143.541 1103.87L-144.343 1103.28L-144.616 1102.72L-149.018 1103.49L-193.248 1109.49L-193.559 1108.57L-194.376 1102.98L-194.846 1101.44L-195.556 1100.24L-196.201 1099.35L-196.536 1098.73L-197.099 1098.01L-198.221 1097.29L-199.382 1096.3L-200.718 1093.51L-202.94 1092.14L-203.507 1091.39L-204.63 1089.29L-206.873 1087.78L-209.631 1086.81L-214.43 1085.92L-215.311 1085.94L-216.058 1086.33L-217.231 1087.71L-217.92 1087.89L-218.718 1087.16L-221.702 1083.11L-221.116 1082.68L-220.312 1081.83L-219.739 1081.39L-219.837 1080.72L-221.655 1080L-223.261 1078.62L-224.508 1076.66L-225.208 1074.24L-225.613 1073.31L-226.391 1072.57L-227.32 1072.1L-229.305 1071.9L-229.907 1071.3L-230.375 1070.4L-231.088 1069.42L-236.769 1065.79L-237.844 1064.01L-238.536 1061.42L-240.594 1057.2L-241.375 1055.05L-241.248 1052.26L-238.744 1047.83L-237.44 1043.14L-237.373 1042L-238.071 1037.21L-237.688 1030.27L-238.505 1027.51L-237.993 1026.51L-236.844 1025.35L-237.321 1024L-238.068 1023.32L-238.831 1022.92L-239.369 1022.37L-239.625 1021.92L-240.437 1021.03L-239.367 1018.55L-239.797 1016.21L-241.121 1014.19L-243.791 1011.82L-244.169 1011.22L-244.384 1009.14L-244.863 1007.93L-245.616 1007.82L-246.527 1008.01L-247.487 1007.72L-248.519 1006.62L-249.426 1005.3L-250.136 1003.88L-250.519 1002.48L-250.501 1001.07L-249.869 998.512L-249.789 997.456L-250.529 995.519L-253.064 992.4L-253.875 990.144L-253.446 978.084L-253.581 976.933L-254.006 975.631L-255.233 973.414L-257.074 967.846L-261.747 960.421L-263.092 956.87L-263.029 955.77L-262.395 953.533L-262.356 952.268L-262.669 951.121L-264.442 947.622L-268.287 943.565L-269.813 941.53L-282.304 929.923L-282.49 929.497L-284.676 927.921L-285.197 927.724L-287.906 925.624L-288.645 924.858L-289.466 922.902L-290.009 921.02L-290.883 919.697L-294.215 919.003L-306.107 909.584L-306.164 909.566L-306.171 909.56L-309.377 908.621L-311.498 906.879L-312.364 906.531L-316.59 902.683L-318.177 902.076L-319.359 901.026L-319.512 900.953L-323.114 899.262L-326.987 898.457L-328.479 900.25L-329.555 901.914L-331.746 904.352L-332.928 907.278L-330.258 911.785L-330.182 913.688L-330.452 917.037L-330.241 919.012L-330.409 920.465L-331.123 921.692L-332.537 922.953L-332.43 923.685L-333.892 925.837L-335.259 925.117L-336.718 923.153L-339.584 921.36L-342.845 920L-345.478 919.341L-348.489 917.933L-351.592 915.587L-354.756 914.202L-358.016 915.64L-360.585 917.635L-363.225 918.383L-363.279 918.382L-366.132 918.297L-369.51 917.748L-373.154 917.894L-375.568 919.345L-377.848 921.175L-381.025 922.454L-385.469 922.786L-387.608 922.452L-389.407 921.535L-390.974 919.713L-393.377 915.996L-395.608 914.428L-402.181 911.047L-404.172 910.657L-405.087 910.973L-406.6 912.328L-407.467 912.749L-408.754 912.813L-411.051 912.468L-412.527 912.694L-413.177 913.141L-414.457 914.563L-415.37 915.037L-415.799 914.861L-419.081 914.083L-422.024 913.866L-423.043 913.618L-430.305 909.5L-436.375 904.983L-438.393 904.168L-440.438 904.557L-442.3 905.883L-443.686 907.866ZM267.121 610.51L269.004 612.074L269.334 615.543L268.698 622.989L266.694 630.369L265.562 632.506L265.472 633.328L265.587 634.003L265.551 634.719L265.147 637.016L264.912 637.635L264.174 639.023L264.095 639.808L263.766 641.162L262.507 641.345L259.45 640.903L256.521 642.36L255.515 644.871L255.228 647.419L254.43 649.01L250.485 651.275L248.412 652.075L246.661 652.384L244.398 651.826L241.16 649.233L239.262 648.176L240.219 647.796L242.001 647.464L242.844 646.968L242.817 646.67L242.982 645.864L243.224 645.117L243.375 645.069L243.499 644.225L244.074 643.946L244.806 643.893L245.381 643.614L249.299 638.501L250.475 635.834L249.316 634.778L249.649 632.899L250.742 631.888L252.363 631.419L254.304 631.153L256.018 630.538L259.101 628.516L260.857 627.887L260.145 627.11L259.122 627.099L256.423 627.786L256.326 627.126L257.557 626.627L258.591 625.871L260.323 624.233L262.451 622.964L263.304 621.987L263.636 619.141L264.258 617.427L265.106 615.883L265.958 615.155L266.393 614.524L267.067 611.611L267.121 610.51ZM209.327 475.534L209.856 476.438L213.444 481.069L213.634 485.744L211.43 489.334L207.824 491.161L203.764 490.585L202.03 489.431L200.325 487.768L198.98 485.785L195.57 477.013L195.579 475.383L193.307 476.459L193.493 477.609L194.689 478.868L195.546 480.221L195.766 482.633L195.333 483.29L192.216 482.62L192.383 480.505L191.54 478.954L188.356 476.436L184.277 471.773L183.234 471.129L182.326 470.572L181.002 471.57L181.115 472.349L181.749 472.354L181.871 472.655L181.855 473.135L182.052 473.7L180.485 472.918L180.28 474.648L181.002 476.995L182.32 478.061L182.081 478.236L181.952 478.494L181.554 478.604L180.509 478.323L179.461 477.847L179.041 477.492L178.736 477.094L172.492 471.694L171.247 470.167L169.197 465.581L167.987 463.802L171.108 458.593L169.348 452.566L166.418 446.242L166.011 440.195L165.7 438.913L165.622 437.65L165.757 436.524L166.089 435.671L166.49 436.187L167.467 437.159L167.863 437.702L169.209 434.567L172.532 430.862L173.984 428.571L174.365 425.091L173.957 417.111L175.606 414.905L177.32 417.973L181.403 423.337L182.595 426.984L182.499 431.571L182.7 433.24L183.266 434.829L184.638 437.725L185.056 439.264L185.779 440.848L188.301 443.894L190.186 448.602L190.886 448.882L193.186 448.908L193.626 450.303L193.548 451.641L193.284 453.024L193.26 454.498L193.559 456.189L193.954 457.45L194.558 458.574L195.507 459.771L194.469 461.525L194.051 462.47L193.864 463.727L195.302 462.854L196.346 463.365L197.321 464.443L198.516 465.216L198.362 463.628L198.909 462.485L199.75 462.282L200.467 463.505L200.94 463.373L201.059 463.284L201.032 463.101L201.101 462.666L202.873 462.859L202.566 460.637L201.605 457.547L201.49 455.183L203.688 457.349L205.077 460.236L209.327 475.534ZM205.773 377.431L205.281 373.702L205.447 371.945L206.216 370.33L205.395 369.284L206.689 368.865L210.504 368.963L209.431 367.582L206.82 365.188L205.977 363.633L207.693 363.816L209.8 363.666L211.624 363.073L212.514 361.934L211.259 361.836L210.169 361.598L209.228 361.126L208.432 360.306L210.088 360.081L212.525 359.053L214.183 358.722L216.241 359.439L217.248 358.982L217.658 356.729L215.637 357.838L212.947 357.489L207.676 355.147L206.732 355.974L205.382 355.766L204.026 354.858L203.033 353.598L204.239 353.899L205.068 354.335L205.814 354.439L206.742 353.8L207.805 353.964L211.485 353.984L213.44 353.635L212.532 352.955L213.04 350.777L212.387 349.079L211.167 348.683L209.953 350.38L210.189 348.136L210.391 347.408L209.656 346.711L208.752 346.312L207.686 346.424L206.529 347.291L206.6 346.08L206.693 345.572L206.988 344.876L206.372 343.676L206.29 342.15L206.678 340.945L207.465 340.732L208.802 341.146L209.318 340.7L209.099 339.795L208.27 338.821L207.279 338.418L203.658 337.604L203.82 336.546L205.112 335.147L205.4 333.984L203.99 334.932L202.841 333.094L203.185 331.471L204.543 330.762L206.548 331.59L206.713 329.825L205.379 329.005L203.52 328.331L202.119 327.052L201.889 325.832L202.1 322.764L201.994 321.127L202.315 321.637L202.63 322.042L202.977 322.31L203.311 322.368L204.197 322.716L204.922 323.644L205.424 324.614L205.596 325.066L206.744 324.731L207.026 323.885L207.121 322.98L207.714 322.469L208.304 322.762L210.26 324.218L210.693 324.657L215.987 326.747L216.996 327.447L217.241 328.656L217.656 329.682L218.152 330.006L218.729 329.074L218.528 328.23L217.973 327.268L217.817 326.08L218.888 324.608L219.114 325.371L219.6 326.113L219.844 326.695L220.459 324.821L220.768 322.603L220.709 320.563L220.301 319.209L221.868 319.934L222.185 322.104L222.279 324.679L224.057 328.483L223.149 330.576L221.478 332.339L220.151 333.257L220.953 335.066L220.918 337.174L220.577 339.353L220.536 341.417L222.018 344.453L222.197 345.01L223.105 344.418L223.045 343.393L222.704 342.382L222.799 341.828L224.229 342.22L224.673 344.063L224.545 348.252L225.426 354.522L224.918 356.346L225.827 357.027L224.776 358.7L223.004 368.556L222.36 369.816L221.986 370.331L221.93 371.028L222.15 372.835L221.873 374.307L220.978 374.684L220.241 373.916L220.48 371.945L219.903 372.029L219.44 373.864L219.163 374.55L218.744 375.169L219.261 376.243L218.873 377.511L217.845 378.785L216.485 379.955L215.508 380.379L215.166 380.022L215.428 379.294L216.28 378.569L216.164 377.772L214.712 378.373L213.678 379.248L212.833 379.549L211.89 378.396L208.22 379.056L206.614 378.779L205.773 377.431ZM256.427 651.061L259.771 650.186L262.182 649.962L262.906 651.4L261.975 652.952L258.285 658.509L255.561 661.864L253.781 661.996L252.895 660.326L253.121 657.463L254.049 655.012L256.427 651.061ZM167.143 421.662L167.283 423.129L168.071 424.948L169.137 426.13L168.568 427.328L169.426 428.614L169.736 430.724L168.469 431.206L167.293 431.304L166.851 429.807L166.791 427.882L166.644 424.855L166.032 422.713L167.143 421.662ZM198.312 376.409L199.315 376.768L201.009 377.531L202.352 378.915L203.874 380.653L205.637 381.027L207.311 381.223L208.565 382.429L208.509 383.767L205.688 384.372L203.611 383.159L201.717 381.478L200.589 380.253L199.159 379.134L197.817 377.75L198.312 376.409ZM-552.881 97.1223L-551.894 96.4687L-548.199 95.8337L-545.982 95.0959L-544.802 94.8911L-543.866 95.2011L-543.178 95.9918L-543.016 96.6686L-543.417 96.983L-544.376 96.7414L-545.03 96.8368L-544.627 97.6367L-543.545 98.7211L-543.294 99.1312L-543.196 100.455L-543.404 100.995L-543.834 101.313L-545.028 102.953L-548.159 106.149L-548.56 105.794L-548.952 105.723L-549.303 105.711L-549.726 105.645L-551.977 103.968L-552.986 102.938L-552.81 102.403L-552.421 101.804L-552.714 100.669L-553.302 99.4801L-553.753 98.7805L-552.289 98.5666L-552.881 97.1223ZM-528.66 128.939L-528.699 129.549L-529.025 130.807L-529.517 130.69L-530.442 130.888L-530.779 131.638L-529.483 133.105L-532.889 133.316L-535.356 132.115L-537.566 130.495L-540.254 129.517L-540.519 130.766L-541.259 131.574L-542.394 131.868L-543.815 131.503L-549.363 128.394L-551.283 128.102L-556.605 128.721L-559.266 128.377L-561.813 127.062L-563.052 126.861L-563.986 127.444L-564.897 127.737L-565.993 126.56L-566.098 125.619L-565.678 124.571L-562.347 119.912L-561.529 118.327L-561.497 117.017L-562.322 116.819L-565.324 116.971L-565.85 116.857L-566.661 116.975L-567.356 115.93L-569.227 114.451L-570.099 113.05L-569.062 112.961L-568.326 112.982L-567.737 113.31L-567.074 114.137L-565.456 113.009L-564.333 111.984L-562.549 109.814L-561.858 108.661L-561.441 108.249L-560.53 107.958L-560.04 108.044L-557.985 108.605L-557.409 109.063L-557.47 110.824L-558.231 112.145L-558.525 113.398L-557.291 114.874L-551.404 117.04L-548.745 115.632L-548.296 115.439L-548.005 114.601L-547.1 114.469L-546.223 114.596L-545.854 114.733L-540.711 112.677L-539.848 112.709L-539.126 114.165L-538.087 115.605L-537.57 117.186L-539.163 120.89L-538.106 121.597L-533.989 121.887L-533.876 122.666L-535.076 123.607L-533.896 124.931L-530.329 127.341L-529.761 127.514L-529.312 127.321L-528.962 127.333L-528.713 128.157L-528.66 128.939ZM-658.402 178.655L-659.031 179.575L-662.528 183.303L-664.043 184.257L-665.381 183.815L-666.401 182.498L-666.914 180.949L-666.866 179.318L-666.091 176.783L-666.337 175.32L-667.15 174.325L-669.533 172.825L-670.584 171.513L-669.323 170.119L-670.255 169.617L-672.326 169.824L-674.399 170.669L-675.659 167.063L-674.087 167.152L-673.052 166.173L-672.544 164.633L-672.506 162.938L-674.756 164.095L-674.872 161.34L-673.576 155.609L-672.922 155.513L-672.519 157.621L-671.286 158.206L-669.921 158.612L-669.322 159.448L-667.673 162.234L-666.78 165.513L-665.436 168.183L-662.399 168.919L-661.139 168.831L-661.131 169.337L-661.564 170.515L-661.505 172.449L-660.746 173.932L-659.534 175.251L-658.559 176.702L-658.402 178.655ZM-595.058 159.69L-595.983 161.642L-596.582 163.419L-595.899 165.038L-595.726 164.694L-595.682 164.56L-595.639 164.426L-595.266 164.148L-595.43 165.861L-596.56 167.492L-598 168.53L-599.123 168.471L-599.97 169.647L-600.898 170.482L-601.987 170.865L-603.204 170.596L-604.181 168.921L-604.744 166.805L-605.6 165.082L-607.459 164.558L-607.903 163.252L-606.313 154.737L-605.668 155.885L-604.691 156.476L-603.795 156.282L-603.255 154.961L-602.601 154.865L-602.257 159.403L-601.071 160.344L-598.227 159.548L-598.701 158.693L-599.423 155.932L-598.769 155.836L-597.584 155.887L-596.518 155.126L-595.561 155.145L-594.764 157.546L-595.058 159.69ZM-644.415 163.264L-645.755 168.686L-646.944 169.911L-648.616 170.888L-650.368 171.525L-651.958 171.758L-651.815 171.864L-652.125 172.133L-652.624 172.429L-653.016 172.582L-653.416 172.45L-653.444 172.039L-653.414 171.588L-653.553 171.29L-653.968 170.841L-654.223 170.178L-654.669 169.957L-655.784 170.82L-655.326 169.383L-654.02 167.854L-653.138 166.26L-653.79 164.635L-654.806 164.432L-657.009 165.04L-657.515 164.414L-657.246 163.418L-656.367 162.685L-654.931 161.838L-653.131 160.428L-651.573 158.895L-650.005 157.647L-648.105 157.146L-647.87 158.322L-647.647 158.766L-647.132 159.233L-646.524 158.379L-646.934 159.267L-647.181 160.194L-647.356 161.176L-647.365 162.197L-646.711 162.101L-645.898 160.484L-645.06 160.553L-644.486 161.648L-644.415 163.264ZM-678.043 151.61L-678.708 151.198L-679.457 149.778L-679.639 148.309L-679.382 146.805L-678.848 145.231L-678.012 145.937L-677.915 147.484L-677.341 148.801L-676.322 149.672L-674.839 149.806L-672.893 149.841L-673.176 150.52L-674.967 151.768L-675.404 152.469L-676.68 152.241L-678.043 151.61ZM-678.925 115.048L-677.964 113.57L-677.15 111.955L-677.35 109.499L-676.883 109.431L-676.548 109.54L-675.874 110.014L-675.729 112.318L-676.396 114.072L-679.201 117.092L-678.925 115.048ZM-672.637 96.2L-672.396 99.1592L-672.92 102.326L-675.302 108.469L-675.256 103.558L-675.515 101.781L-675.399 102.145L-675.358 102.426L-675.205 102.594L-674.684 102.455L-675.289 98.5321L-675.954 96.8143L-677.214 95.3741L-674.204 93.7573L-673.759 93.7553L-673.29 94.1334L-670.597 95.141L-668.918 96.6154L-668.369 97.3311L-667.921 98.443L-672.637 96.2Z" fill="#BEBCAA"/>
</svg>
