<svg width="324" height="1109" viewBox="0 0 324 1109" fill="none" xmlns="http://www.w3.org/2000/svg">
<path d="M424.69 907.369L422.907 906.564L414.555 904.713L409.165 902.159L408.365 902.117L406.554 902.575L405.737 902.412L405.007 901.704L404.443 900.144L403.93 899.38L402.231 898.008L400.791 897.482L393.113 897.945L383.718 897.279L379.692 897.539L378.112 896.786L376.247 894.658L373.477 890.081L372.101 888.764L367.882 886.731L363.448 886.292L349.695 888.584L347.398 888.624L345.155 888.182L342.842 886.924L338.366 883.524L337.31 883.136L336.004 882.657L335.034 882.753L333.069 883.539L332.086 883.773L330.94 883.613L327.634 882.286L324.875 882.292L323.294 883.257L321.935 884.623L319.863 885.864L315.207 885.433L312.438 881.538L311.675 876.241L313.033 871.609L296.622 869.581L294.19 870.151L290.864 872.638L288.812 873.729L286.677 874.03L284.781 873.594L273.444 867.217L270.519 864.296L269.056 859.828L268.483 855.829L267.353 853.212L264.982 851.75L260.742 851.183L258.9 850.355L256.239 848.052L254.448 847.431L252.832 847.544L251.415 847.909L250.033 847.976L248.485 847.252L248.015 846.553L247.38 844.656L246.886 844.038L245.865 843.621L245.546 843.815L245.334 844.276L244.622 844.685L243.435 845.13L238.244 847.889L237.508 848.549L236.655 848.99L235.26 848.969L234.004 848.282L231.607 845.874L230.247 845.203L227.698 845.576L226.13 846.706L225.989 846.484L225.85 843.35L225.391 842.161L224.198 841.852L221.817 840.365L221.144 836.408L221.326 829.59L218.893 826.44L211.987 823.393L209.693 820.768L209.347 821.012L209.222 821.03L209.174 821.132L209.06 821.663L207.641 820.454L205.935 817.485L204.548 816.272L202.946 815.767L201.469 815.468L200.312 814.737L199.631 812.907L199.55 811.921L199.584 811.498L199.56 811.115L199.258 810.355L198.923 810.018L198.378 809.551L197.805 808.895L197.035 806.885L196.295 805.963L195.817 804.875L195.998 803.272L196.777 803.158L196.966 803.582L197.585 804.552L197.849 802.648L197.27 800.642L196.247 798.862L195.149 797.446L193.587 798.734L193.18 799.212L191.827 797.578L190.86 795.533L189.861 791.082L189.29 789.782L186.607 786.67L185.272 785.386L182.691 783.835L181.591 782.838L180.265 779.206L178.994 777.913L176.094 775.927L167.891 760.29L166.61 759.803L165.624 758.442L164.747 756.803L163.935 755.605L162.72 754.915L159.656 753.981L158.388 753.364L157.384 751.936L156.539 750.069L155.396 748.566L153.513 748.102L152.797 746.89L147.51 740.116L148.686 736.189L148.949 734.065L147.631 733.327L147.546 732.312L148.215 727.077L148.267 725.046L146.976 720.998L141.093 711.876L139.385 708.244L138.742 707.761L137.235 707.467L136.856 706.399L137.003 705.222L137.164 704.589L136.479 702.733L135.113 701.007L133.455 699.677L131.862 699.012L132.396 697.651L132.974 697.694L133.636 698.302L134.417 698.637L137.347 698.209L138.684 697.116L138.507 695.026L137.743 692.635L137.334 690.707L137.696 689.917L138.918 688.487L139.148 687.877L138.51 683.512L136.916 681.533L131.122 678.916L130.193 677.577L127.462 676.308L119.366 669.476L116.947 665.566L115.779 663.011L115.764 661.827L111.06 657.29L107.87 652.019L106.803 651.244L104.887 650.98L102.86 649.962L90.5338 641.188L89.0992 639.219L88.1774 637.272L86.3445 635.841L84.0518 634.96L81.7205 634.691L76.9386 635.517L72.6381 637.459L65.1596 643.132L64.7316 640.632L63.2384 639.345L59.2182 637.978L53.4694 634.366L42.3798 624.04L40.9293 621.947L40.0446 621.115L37.4467 620.757L36.2364 620.101L35.5773 619.077L35.9524 617.933L36.8897 615.843L36.9381 613.338L35.1768 606.294L34.4366 599.487L34.843 597.251L36.2311 594.327L38.0021 591.635L39.694 590.139L40.7309 590.053L42.709 590.948L43.9031 591.062L44.6546 590.536L50.6267 583.04L52.829 581.342L55.2755 580.44L54.9464 578.409L55.0603 574.391L54.8109 572.253L53.0723 567.548L38.0566 544.054L35.5698 541.635L30.0452 537.806L27.4602 535.145L26.0233 531.838L26.0541 529.435L26.5927 526.798L27.5234 524.231L28.6252 522.184L28.9844 520.278L28.7416 517.531L28.2119 514.987L27.7398 513.714L28.4777 513.317L28.7579 513.053L29.109 513.067L29.952 513.391L30.1861 511.949L29.1532 509.895L29.6289 508.578L30.2983 507.49L30.2297 506.797L29.8353 506.057L29.4749 504.895L29.108 504.565L28.4884 504.688L27.944 504.672L27.8436 503.984L28.1487 503.46L28.5703 503.303L28.9758 503.244L29.2013 503.051L29.4882 502.402L29.8342 501.935L30.1482 501.25L30.2205 499.992L29.7981 497.53L28.7834 495.154L27.3335 493.065L24.2931 490.122L23.3559 488.277L23.6699 487.368L23.8225 486.676L23.6992 486.054L23.1181 485.564L22.5168 485.589L21.9291 485.708L21.496 485.578L19.4491 483.544L18.2892 482.787L16.1133 482.498L13.1351 481.718L12.3286 481.422L11.3712 480.538L10.7808 479.761L10.0128 479.076L8.56341 478.52L7.45375 478.33L4.16623 478.492L2.16817 478.113L2.06308 477.393L4.60918 474.337L4.57033 473.64L3.85925 472.914L2.95207 472.151L2.29328 471.351L1.983 470.31L0.934828 462.701L2.0277 435.3L1.60826 428.967L5.23652 429.283L9.60873 428.991L10.118 429.108L11.2008 427.985L11.3487 426.74L11.2036 425.361L11.3791 423.8L11.9543 423.076L13.6376 421.968L14.0524 420.977L14.0242 419.209L14.1607 418.808L15.7246 417.504L16.8727 417.482L18.1062 417.896L19.9224 417.934L20.8058 417.48L26.0437 414.013L29.319 409.892L32.6503 407.298L33.596 406.275L35.7546 404.605L36.8433 402.72L38.6009 395.852L39.4637 394.113L45.7979 387.047L48.4247 382.687L50.2807 378.023L50.4609 377.311L51.5272 373.09L52.2495 365.176L53.2021 362.819L57.9277 356.305L60.9698 348.671L63.395 346.569L68.3425 347.425L68.4312 345.508L67.8604 343.9L67.0209 342.353L66.3119 340.631L66.1407 338.642L66.1334 338.562L66.5979 336.545L69.9613 329.033L70.4671 326.943L70.222 324.997L69.6587 322.906L70.0484 321.55L72.6884 319.003L72.8893 318.538L73.1016 317.23L73.3275 316.861L75.0512 316.34L75.2624 316.331L75.3464 316.52L77.3479 316.061L77.4291 315.815L77.4751 314.867L77.6001 314.58L80.3229 313.521L81.0127 313.152L81.7483 312.294L82.8881 310.447L87.5186 307.41L89.904 304.308L89.627 301.46L86.1769 300.181L85.3792 299.886L86.9836 297.255L88.7092 295.1L90.8335 293.313L93.5673 291.795L94.8449 291.441L95.7939 290.709L96.3341 289.656L96.4727 288.348L99.4785 289.332L102.369 288.574L104.664 286.458L105.847 283.376L105.702 282.77L104.956 280.954L104.787 280.182L105.973 277.826L106.523 275.161L106.516 273.807L106.213 272.485L105.665 271.793L104.144 270.985L103.649 270.24L103.647 269.613L103.943 268.126L103.845 267.57L102.586 266.253L99.6226 264.179L98.8709 262.7L99.3251 260.91L102.051 256.65L102.285 256.037L102.807 254.67L100.331 255.01L95.5854 257.112L93.1439 257.692L91.6883 257.48L89.0319 256.246L87.6601 255.954L86.3649 256.232L85.3705 256.802L84.3044 257.237L82.8476 257.136L82.4958 256.716L81.9478 255.027L81.5796 254.422L81.074 254.181L79.5863 253.793L72.1082 250.678L71.2276 250.662L69.8299 251.425L68.7228 252.649L67.0495 255.847L66.5753 256.163L66.5566 256.125L65.9183 254.872L64.8663 254.097L64.1297 253.344L64.4421 252.112L62.4396 251.867L60.6096 250.59L57.4614 247.548L56.9649 245.751L57.8356 243.219L59.6874 239.759L59.3322 237.06L59.4363 235.366L60.0867 233.851L65.2418 226.565L65.6328 224.461L63.3351 225.714L59.7917 227.998L57.6675 229.059L55.6071 229.338L54.2645 228.369L54.2936 225.702L54.9658 224.262L57.1442 221.494L57.9677 220.02L58.2653 218.836L58.6384 215.347L61.2272 204.98L62.3175 202.526L65.1804 197.6L67.0513 196.098L69.3476 196.053L71.7409 196.376L73.9397 195.931L74.9811 194.762L76.075 191.695L77.1502 190.564L78.4902 190.178L79.6809 190.373L85.6056 192.294L86.5001 192.376L87.4255 191.972L88.1281 191.422L89.5531 190.846L91.0524 189.664L92.7144 188.617L93.9469 187.42L94.7508 185.278L94.8838 183.055L93.3773 175.87L93.6155 171.071L95.5368 158.746L94.2024 155.799L92.8448 154.431L90.9947 153.047L88.9469 152.372L87.0284 153.088L87.523 146.719L86.7954 143.963L83.5479 143.923L83.9477 142.993L84.4924 142.209L86.0134 140.612L84.9281 138.837L85.2866 137.119L86.1332 135.373L86.4506 133.493L84.9875 129.367L84.4529 128.305L85.242 125.215L84.8365 124.279L83.6848 122.97L83.3649 122.457L83.2328 121.315L83.3806 112.763L83.0696 110.024L81.9713 107.892L79.5962 109.223L77.7477 108.162L76.3823 105.924L74.7986 102.265L74.2089 101.523L72.6922 100.313L70.5988 98.2274L69.7689 96.9392L70.244 96.2431L70.3908 94.9467L70.1856 92.16L69.1806 89.4792L66.941 88.5312L64.8194 88.5395L57.4472 86.9662L56.3865 86.5182L54.5798 85.2382L53.3481 84.6135L50.0408 83.7781L48.5232 82.948L47.7065 81.3347L47.6998 80.5312L47.8592 79.8705L48.0318 79.3747L48.0878 79.0305L47.7493 78.1974L46.5773 77.061L45.6382 74.995L43.246 72.0809L42.3752 70.6317L41.5596 67.9558L41.0158 67.3651L39.577 66.6146L39.1573 66.7995L38.5216 67.2718L37.6979 67.5265L36.6769 67.0381L36.4101 66.4287L36.6019 65.7523L36.913 65.0911L37.0469 64.434L36.4858 63.0415L34.7873 62.2053L34.2709 61.1185L34.4315 59.8721L35.0772 58.5917L35.7878 57.5924L35.8921 57.4449L36.6448 56.6303L37.9745 56.5598L38.8388 56.9692L39.4727 57.4794L40.1093 57.6662L41.3689 57.3825L43.2722 56.6363L48.5398 55.3641L50.8845 55.2798L53.5509 55.7058L54.7339 54.3926L57.9344 49.8336L59.3508 48.8115L63.1823 46.9554L66.8639 44.2951L70.7442 44.6891L72.5514 45.2752L79.3899 44.2768L98.7801 41.4458L118.16 38.6163L120.419 38.2865L137.546 35.7859L156.932 32.9554L173.596 30.5224L172.353 33.6246L172.786 35.5043L174.276 36.1151L176.402 34.7552L177.468 33.9945L177.96 31.9169L178.025 29.88L179.463 29.6702L179.499 29.8145L179.635 30.972L180 31.9379L180.628 31.8786L181.385 31.3866L182.221 31.0108L183.59 31.4483L183.082 32.9862L181.893 34.656L181.036 35.5444L181.972 37.1576L182.19 38.4311L182.251 39.7275L182.532 41.2153L183.283 42.4434L184.32 43.6603L185.121 44.7857L185.103 45.7425L184.408 48.3918L185.076 58.6416L184.588 61.8331L182.972 66.4622L182.973 71.048L182.317 73.5312L182.278 75.0005L182.751 78.2425L182.792 79.8281L182.498 81.3043L177.853 80.0093L177.599 83.0712L178.683 87.6573L177.972 90.8489L180.466 93.7654L180.108 96.333L178.575 99.1372L177.424 102.809L177.719 111.364L176.752 114.562L176.499 116.319L176.548 123.636L175.856 126.732L172.125 133.01L171.221 135.976L171.052 139.186L171.443 142.951L172.562 142.979L172.983 142.375L173.216 141.576L173.79 141.141L174.863 141.079L175.505 141.114L176.102 141.059L177.063 140.663L177.845 139.911L178.38 139.005L179.223 138.244L181.076 137.846L180.305 141.078L180.234 142.555L179.817 143.411L179.74 143.965L180.022 144.37L181.205 145.058L181.531 145.553L181.392 146.783L180.232 148.863L179.972 149.92L180.234 150.838L181.466 151.868L181.794 152.585L180.429 157.18L179.95 158.046L180.408 158.998L179.209 165.606L179.726 168.716L179.475 169.614L178.575 171.083L178.163 171.971L178.058 172.783L178.331 174.876L178.75 176.216L179.677 176.686L181.539 176.351L184.063 174.677L185.82 172.54L187.887 170.996L191.16 171.186L190.887 172.373L190.671 172.851L192.366 173.337L193.445 174.198L193.416 174.873L191.696 174.868L192.094 176.943L192.623 178.172L194.728 180.382L196.256 180.605L197.01 180.972L196.539 182.761L196.871 183.508L197.39 184.228L197.629 184.989L197.269 186.442L196.583 187.85L195.492 189.093L193.922 190.118L192.321 190.48L190.894 190.528L190.001 190.944L189.846 192.496L190.675 194.255L192.004 194.635L193.291 194.734L194.002 195.681L194.849 201.484L195.635 202.293L197.129 201.851L200.221 200.348L203.395 199.852L205.103 199.347L206.308 198.661L206.283 200.45L205.376 200.773L204.096 200.513L202.911 200.686L202.426 201.076L202.239 201.326L202.271 201.768L202.39 202.579L202.424 203.466L202.162 203.632L201.708 203.57L200.583 204.148L199.198 204.255L198.646 204.622L198.154 205.618L198.245 206.242L198.537 206.709L198.633 207.142L197.691 209.859L197.698 211.866L197.646 212.383L197.949 212.5L199.908 212.181L200.524 212.252L200.945 212.955L201.285 214.628L201.205 219.96L201.64 222.51L203.369 224.328L204.688 223.34L206.117 221.793L207.265 220.064L207.741 218.529L207.26 217.196L205.31 213.656L205.046 212.929L205.342 212.567L205.078 211.84L204.337 210.483L204.426 209.355L204.928 208.644L205.639 208.064L206.434 207.182L207.466 206.841L208.703 207.679L209.589 209.176L209.573 210.802L211.179 210.026L213.084 209.557L212.51 208.461L211.671 205.11L211.521 203.857L211.252 203.1L210.815 202.718L210.635 202.362L211.198 201.642L211.724 201.533L212.042 202.187L212.238 203.752L214.836 202.577L215.758 203.876L215.895 205.894L216.04 206.892L218.526 207.134L219.337 208.544L219.615 210.67L220.303 212.991L221.822 214.235L223.795 214.234L225.413 213.106L225.905 211.026L225.354 210.088L223.189 208.778L222.465 208.183L222.281 207.349L222.139 205.299L221.937 204.563L221.392 204.1L220.606 203.738L219.802 203.027L218.9 200.769L218.055 199.778L217.112 198.992L216.31 198.728L215.405 198.636L214.61 198.21L214.132 197.547L214.246 196.798L214.881 196.13L215.647 195.923L216.556 195.823L217.747 195.489L218.349 195.464L218.804 195.748L219.333 195.671L220.19 194.781L220.37 194.277L220.409 193.667L220.299 193.141L219.921 192.94L219.47 192.464L219.497 189.814L219.338 188.947L218.361 186.828L218.969 184.891L220.313 184.281L221.53 186.079L222.247 185.974L222.056 184.887L222.054 183.996L222.179 183.117L222.426 182.19L223.246 183.441L226.078 185.831L227.538 187.337L227.736 186.513L227.923 186.262L227.825 186.02L227.235 185.246L228.039 184.872L228.978 184.768L229.962 184.975L230.983 185.431L230.844 186.44L231.68 187.37L232.951 187.789L234.231 187.188L235.218 189.148L235.313 190.025L237.132 188.74L237.337 187.086L237.26 185.473L238.308 184.364L237.348 182.815L236.228 182.118L234.947 181.635L233.042 180.575L231.361 180.183L230.55 179.855L230.09 179.317L229.68 178.039L229.117 177.451L228.092 177.187L226.839 177.114L225.763 176.729L225.144 175.544L224.987 174.038L225.005 172.635L225.276 171.448L225.905 170.528L226.404 170.679L230.355 170.26L230.929 171.356L232.093 171.919L233.533 171.964L234.895 171.479L236.52 169.299L238.475 163.725L240.43 163.377L240.312 159.953L239.931 158.224L239.168 157.57L238.712 157.285L238.648 156.625L239.065 155.991L240.018 155.98L240.428 156.397L241.346 158.111L241.931 158.63L243.781 158.87L244.977 158.344L245.977 157.56L247.242 157.057L248.572 156.8L249.019 156.797L251.691 161.154L252.807 161.819L254.634 161.904L255.325 162.059L254.931 162.626L253.739 163.628L253.778 163.241L253.079 163.024L252.117 162.974L251.477 163.163L251.381 165.343L253.67 167.717L256.484 169.982L256.368 171.369L258.017 172.848L260.609 172.946L265.458 172.143L265.344 172.669L265.18 173.936L265.004 174.471L266.18 174.236L267.305 174.105L268.433 174.196L269.495 174.487L270.222 173.585L271.161 173.481L272.161 174.005L273.227 174.773L273.936 173.522L275.881 171.805L276.305 170.564L277.053 170.454L277.592 171.969L277.781 173.694L277.556 175.416L276.879 176.885L275.268 178.714L274.683 179.723L273.619 182.906L276.123 183.273L278.517 181.362L285.393 172.647L285.772 171.094L285.667 168.848L285.788 167.715L286.246 165.832L286.925 163.948L287.727 162.907L288.709 165.058L289.025 166.796L289.613 168.43L291.445 170.296L292.903 172.219L292.654 174.007L291.791 175.727L291.319 177.294L292.675 176.331L296.628 172.885L297.386 173.507L297.252 174.323L297.851 176.466L298.024 177.874L299.152 176.658L300.444 173.952L301.813 172.861L303.089 173.089L304.772 171.759L305.752 171.934L306.611 172.798L307.094 173.493L307.609 173.96L308.616 174.099L308.712 174.755L308.181 176.14L307.231 177.265L306.522 178.516L306.59 180.29L307.702 179.842L308.568 180.097L309.226 180.892L309.777 182.054L307.542 182.667L307.729 184.168L308.622 186.141L308.481 188.232L307.838 187.975L306.184 187.77L307.018 189.561L307.551 190.374L308.173 191.144L308.852 190.568L309.711 190.57L311.905 191.429L310.281 193.388L310.046 194.825L311.368 195.589L314.379 195.5L315.71 196.549L315.359 199.373L313.712 203.788L313.876 205.134L314.418 206.235L314.475 207.055L310.217 208.632L308.891 208.922L307.715 209.379L304.532 211.789L302.163 212.996L301.742 213.823L302.783 215.074L304.51 214.247L306.704 214.883L310.438 216.92L310.543 217.638L307.697 218.212L307.073 219.387L307.314 220.817L307.128 222.152L306.273 223.934L306.177 225.669L306.658 227.225L307.656 228.387L308.435 228.273L309.08 226.809L312.124 223.24L312.566 222.124L313.63 217.857L313.117 216.529L313.127 214.201L313.532 211.752L314.234 210.023L316.1 208.413L317.797 207.4L319.046 206.133L319.577 203.666L320.388 203.548L320.896 206.152L322.169 207.687L324.056 208.624L330.574 210.541L332.75 210.829L334.01 210.517L334.409 209.758L334.42 208.961L334.147 208.172L333.579 207.555L332.035 206.791L331.016 207.003L330.166 207.509L329.15 207.529L327.571 206.964L327.451 206.567L327.401 205.141L327.253 204.781L326.321 204.727L322.858 205.423L323.48 203.357L324.658 202.261L325.262 201.377L324.3 200.019L323.694 199.789L321.84 199.294L321.193 199.007L320.701 198.474L319.88 197L319.325 196.253L318.534 195.635L316.484 194.246L316.015 193.867L315.96 192.41L316.68 191.89L317.477 191.902L317.878 192.034L318.494 191.02L318.799 190.72L318.553 190.342L317.452 189.132L316.956 188.79L314.755 187.678L313.896 186.592L313.133 184.856L312.949 183.161L313.962 182.248L313.937 181.423L315.924 177.596L316.51 177.034L315.685 175.307L312.806 173.019L312.049 171.759L311.995 169.854L312.557 168.688L313.678 168.301L315.286 168.639L314.384 165.297L316.426 161.844L319.937 159.069L323.678 157.662L332.413 157.311L336.7 157.895L336.919 159.615L337.955 160.834L339.536 163.151L340.6 164.11L341.046 164.108L343.129 164.409L343.213 164.555L343.637 164.844L343.766 166.386L344.254 166.667L345.186 166.945L347.797 168.476L349.343 168.823L350.647 168.6L356.089 167.072L358.584 166.07L359.165 166.337L360.036 166.847L360.79 166.993L361.034 165.396L361.398 164.833L362.02 164.519L362.845 164.718L363.091 165.319L362.988 166.353L362.747 167.312L362.507 167.633L363.917 168.128L365.619 168.007L367.057 167.607L367.649 167.297L368.041 168.896L368.756 169.653L369.916 169.739L371.7 169.32L371.088 168.614L370.769 167.96L370.789 167.224L371.268 166.359L372.674 166.824L373.763 166.218L374.435 164.94L374.524 163.366L373.84 162.605L369.814 161.408L368.265 160.615L368.256 160.554L369.254 160.408L371.733 158.422L374.041 157.224L375 156.16L377.067 157.229L379.377 156.924L380.803 155.792L380.273 154.341L379.509 153.91L378.876 153.717L378.439 153.334L378.147 152.42L378.429 151.518L379.174 150.295L380.102 149.236L380.915 148.703L382.651 148.163L386.647 145.89L388.096 144.69L389.931 141.332L391.325 139.982L393.428 140.217L396.634 136.882L397.948 135.862L402.51 134.177L403.46 133.052L404.524 132.705L410.072 127.754L409.698 126.724L409.108 126.173L408.545 125.808L408.247 125.501L408.194 124.489L408.541 122.719L408.427 121.717L406.165 117.779L402.611 115.241L398.543 114.848L394.906 117.418L390.586 121.615L389.657 122.228L388.139 122.959L386.916 124.38L384.835 127.36L380.354 125.88L374.185 125.699L367.794 126.409L362.661 127.668L359.891 129.187L358.387 129.567L357.601 128.758L356.934 127.455L355.622 126.532L352.66 125.435L349.505 124.749L347.074 125.104L345.119 126.536L343.533 128.967L342.51 127.841L342.027 127.146L341.651 126.31L341.612 125.168L342.333 123.567L342.574 122.385L342.429 121.61L342.046 120.519L341.695 119.646L341.447 119.683L341.72 118.496L341.921 118.339L342.215 118.614L342.764 118.662L345.748 118.387L345.725 118.23L348.448 118.565L349.036 118.893L349.585 117.636L349.339 116.176L348.332 114.952L346.628 114.405L347.702 113.039L349.49 113.957L351.228 115.837L352.235 117.281L352.953 117.177L352.47 114.094L354.22 114.093L358.897 117.137L359.095 116.312L359.419 115.914L360.856 115.29L357.261 111.387L359.791 108.214L363.267 108.693L370.837 112.365L375.736 111.682L376.626 111.903L377.094 110.306L378.167 108.716L378.381 107.124L376.497 105.551L375.725 106.141L375.426 106.28L375.114 106.102L374.253 105.877L374.631 105.631L374.756 105.613L374.804 105.51L374.927 105.046L370.569 104.63L365.989 104.885L368.557 102.63L368.658 102.01L367.644 100.948L365.149 99.7838L364.434 99.0296L364.933 97.6513L363.566 97.6601L362.391 97.8946L361.653 98.512L361.527 99.6123L357.85 100.373L354.07 103.919L350.292 106.604L346.647 104.747L348.971 102.783L349.318 102.542L349.058 100.988L349.038 100.195L349.824 98.1703L350.442 94.9903L350.986 93.7008L353.516 90.9745L355.892 90.0226L362.201 89.1969L361.822 92.0537L363.095 93.1407L365.26 93.1434L367.556 92.7452L368.832 92.1122L369.75 90.9916L370.389 89.9118L370.792 89.4062L372.248 89.1308L373.168 88.6776L373.82 87.9146L374.463 86.6434L374.704 85.2377L374.39 84.3924L374.326 83.7338L375.37 82.8161L375.659 83.06L379.143 83.3798L379.808 84.0155L381.1 84.1457L382.296 83.6198L382.651 82.1346L382.013 81.6856L378.926 80.161L377.833 79.4294L377.234 80.3452L376.036 78.8961L375.334 78.2331L374.619 77.7L372.129 76.5674L371.379 76.0089L370.373 74.5644L370.947 74.1314L374.84 73.9771L385.678 72.3319L386.462 72.0266L387.089 71.521L387.656 70.3865L387.754 69.0972L387.358 67.9126L386.442 67.0901L385.553 67.7619L384.662 67.9874L383.794 67.9233L382.826 67.618L383.908 66.5362L384.535 66.2539L384.747 65.9671L384.635 64.7735L384.38 64.1103L382.802 62.4609L381.624 63.1099L380.68 63.1847L379.993 62.6173L379.624 61.3983L378.669 62.0473L377.699 62.3798L376.803 62.3522L376.008 61.9262L377.341 60.5846L378.943 60.2228L380.572 60.0478L381.977 59.2051L382.818 57.5536L383.071 55.7972L382.538 54.7605L381.021 55.2682L380.233 54.2363L379.13 53.4431L378.419 52.4953L378.923 51.1489L380.261 50.2858L381.726 50.2952L384.097 51.0635L384.553 51.3461L385.125 51.7722L385.847 52.1438L386.845 52.2214L387.747 51.8663L389 50.6317L389.8 50.2287L391.506 50.1379L392.905 50.3478L393.834 50.1796L394.128 48.9267L395.65 49.9774L396.582 51.5609L397.641 52.9349L399.541 53.295L402.551 52.7602L403.53 52.7125L404.574 52.8789L406.385 53.5057L407.36 53.6496L407.827 53.358L408.285 52.7816L408.613 52.1916L408.642 51.964L409.212 51.9437L410.046 52.4269L410.563 52.4794L411.404 52.1333L411.638 51.5569L411.253 51.1036L410.344 50.9805L410.066 50.6069L409.654 49.7434L409.075 48.8412L408.112 48.3444L407.146 48.4855L406.202 49.0048L404.737 50.3007L404.621 49.0752L404.156 48.5056L402.789 47.6535L402.397 47.5828L401.917 47.7809L401.516 47.872L400.288 45.7896L399.418 45.0559L399.158 44.5842L398.819 44.2196L397.816 43.8889L396.921 43.8614L395.083 44.3531L394.201 44.419L392.679 43.8128L391.47 42.7166L391.283 41.4385L392.846 40.1587L399.647 41.3948L398.854 40.3331L397.733 39.4147L396.419 39.1296L394.995 39.8471L395.091 39.1956L395.082 38.9107L395.116 38.7149L395.503 38.3071L392.396 35.9896L391.487 34.5632L392.506 32.8229L394.417 33.2767L400.826 31.6081L403.214 31.3874L404.355 31.5721L406.451 32.4131L408.639 32.3496L409.5 32.573L411.174 33.7922L410.859 34.029L410.622 34.7965L410.554 35.6348L410.777 36.0792L411.925 36.1024L412.484 35.353L412.641 34.248L412.552 33.2093L411.602 31.5006L409.659 29.9694L407.313 28.9437L405.24 28.7043L405.144 28.0504L405.313 27.6766L405.432 26.9589L405.578 26.4281L404.924 26.5236L403.048 27.6257L400.495 27.1398L398.818 25.0298L399.685 21.3689L400.988 19.6195L402.424 18.3279L405.643 16.1709L407.07 14.8156L409.654 10.7131L409.255 9.71962L407.968 8.53928L407.337 7.48436L409.071 6.72163L411.582 6.48297L412.311 6.24861L412.737 5.67684L412.876 4.89324L413.118 4.15757L413.824 3.76821L416.809 1.10335L416.939 0.375306L423.05 2.70749L447.631 12.0853L472.221 21.4509L490.773 28.5302L496.803 30.8308L521.383 40.2001L545.976 49.5784L551.172 51.5584L570.556 58.9477L595.127 68.3313L619.709 77.7133L644.291 87.0974L668.863 96.4831L693.455 105.857L718.036 115.233L742.619 124.621L767.2 133.999L791.794 143.388L800.564 146.739L816.378 152.781L825.834 156.391L827.835 158.762L831.384 169.986L831.817 171.349L835.832 184.001L833.928 184.424L833.009 185.486L832.854 187.02L833.283 188.894L831.304 189.339L828.983 191.055L826.893 193.274L825.599 195.209L825.2 196.23L824.87 197.488L824.777 198.766L825.103 199.861L825.984 200.528L827.756 200.493L828.415 201.249L828.245 203.065L827.704 205.26L828.223 206.674L833.246 205.639L835.54 205.506L837.858 205.772L840 206.444L841.676 207.587L842.714 209.105L845.506 215.372L846.885 217.388L848.62 219.084L854.991 222.387L864.982 227.592L874.962 232.8L884.966 238.005L894.945 243.203L904.925 248.411L914.927 253.605L924.133 258.411L924.907 258.816L934.91 264.012L944.889 269.212L954.869 274.423L964.874 279.632L974.864 284.832L984.855 290.043L994.847 295.254L1004.84 300.455L1014.77 305.644L1015.59 306.203L1017.54 306.448L1018.65 309.331L1018.58 312.857L1016.87 314.969L1014.2 316.842L1016.67 317.444L1018.29 317.349L1019.29 317.803L1019.9 320.116L1020.1 322.392L1019.98 324.291L1019.53 326.086L1017 332.33L1015.82 333.826L1014.99 332.359L1015.04 330.205L1015.42 328.048L1015.47 325.983L1014.53 324.211L1013.46 329.958L1012.13 332.141L1009.8 332.314L1012.05 334.899L1012.49 335.913L1013.74 341.895L1013.58 343.005L1012.92 343.569L1011.2 343.291L1010.35 343.822L1010.03 344.417L1009.28 346.63L1009.31 348.108L1010.82 347.799L1014 345.911L1014.31 347.501L1015.85 349.883L1016.19 350.842L1015.87 351.684L1012.36 355.801L1011.8 356.81L1010.34 361.512L1007.81 366.864L1007.58 367.676L1008.52 368.335L1009.55 367.283L1010.88 364.967L1011.71 366.18L1009.07 380.185L1008.26 382.691L1007.07 384.878L1006.07 385.777L1004.93 386.552L1004.09 387.524L1003.98 389.024L1004.57 389.858L1005.46 390.135L1006.29 390.678L1006.68 392.344L1005.88 396.777L1003.74 403.464L1000.86 409.605L997.72 412.327L999.264 412.774L998.886 415.075L999.522 420.041L998.785 422.165L997.689 424.058L996.344 428.287L994.52 432.19L994.097 434.596L994.063 437.14L995.031 444.004L994.735 445.11L994.152 445.948L993.693 446.962L993.425 448.018L993.4 448.384L993.227 451.178L992.534 453.491L992.09 455.928L992.578 458.485L993.067 459.112L994.608 460.444L995.175 461.079L996.782 465.031L997.376 466.024L998.086 466.549L1000.64 467.707L1002.5 468.869L1002.78 469.5L1003.79 473.461L1003.9 476.055L1003.49 478.46L1002.46 480.196L1003.66 482.729L1004.89 488.649L1006.61 491.109L1007.88 491.781L1009.28 492.266L1010.48 492.835L1011.09 493.8L1011.42 494.92L1012.06 496.05L1012.91 497.051L1013.9 497.837L1014.58 498.19L1015.14 498.328L1016.54 498.196L1017.31 498.402L1017.77 499.043L1018.18 499.745L1018.74 500.177L1020.11 500.225L1023.07 499.953L1024.31 500.443L1025.45 500.694L1026.53 500.119L1026.31 499.285L1025.32 499.012L1023.52 498.592L1021.23 497.508L1024.4 498.001L1026.76 498.668L1033.43 503.38L1037.53 507.084L1040.62 508.681L1041.58 509.471L1043.57 511.979L1044.66 512.823L1046.61 513.645L1047.63 514.304L1048.51 515.406L1049.13 516.733L1049.48 518.064L1050.52 520.622L1052.52 523.307L1054.64 524.45L1056.08 522.362L1057 525.384L1057.12 529.612L1057.72 533.38L1060.15 535.08L1059.8 533.146L1059.5 532.347L1058.9 531.539L1060.86 531.377L1062.48 531.752L1065.76 533.142L1067.45 533.339L1070.69 533.157L1072.13 533.7L1073.78 534.036L1077.65 533.427L1078.5 533.924L1079.16 535.325L1081.48 537.619L1082.83 540.64L1088.88 546.617L1089.32 547.307L1089.35 548.359L1088.93 549.086L1088.46 549.723L1088.3 550.438L1090.2 557.113L1090.49 559.942L1088.89 560.025L1088.02 561.536L1087.64 564.544L1087.2 565.885L1086.15 566.996L1085.15 567.117L1084.25 566.28L1083.63 564.518L1079.64 568.284L1079.54 568.458L1078.86 569.711L1078.54 571.7L1078.54 573.448L1078.31 575.087L1077.3 576.733L1076.09 578.018L1075.46 578.384L1074.59 578.618L1073.81 579.07L1074.03 579.853L1074.64 580.731L1075.06 581.522L1074.62 582.821L1073.19 583.313L1071.5 583.454L1070.21 583.722L1071.49 585.291L1072.72 586.329L1073.63 587.587L1073.97 589.879L1073.74 591.512L1073.12 593.838L1072.28 595.958L1069.85 598.957L1069.21 603.168L1069.07 615.209L1069.51 617.382L1070.27 619.526L1072.12 622.753L1072.77 624.7L1072.38 626.393L1072.24 627.959L1074.41 631.63L1074.17 633.584L1070.26 639.794L1073.4 638.599L1075.32 635.61L1076.32 631.841L1076.71 628.267L1078.55 629.376L1080.03 630.643L1080.4 632.151L1078.96 633.978L1082.88 633.006L1084.72 632.942L1086.77 633.982L1090.06 636.379L1090.63 637.834L1090.32 640.58L1089.26 644.272L1089.31 645.606L1090.99 649.173L1091.71 653.333L1092.45 655.181L1093.93 653.934L1094.4 653.341L1094.55 656.679L1093.67 659.89L1091.05 665.828L1088.94 675.959L1087.82 679.111L1087.04 678.868L1086.72 678.941L1086.4 679.174L1085.6 679.435L1086.57 680.911L1086.88 684.776L1087.45 686.623L1085.84 686.174L1085.95 687.03L1085.6 689.133L1083.6 687.478L1082.63 686.953L1081.57 686.796L1082.64 688.233L1082.87 689.48L1082.25 690.523L1080.76 691.337L1082.5 693.884L1083.78 696.561L1084.68 699.472L1085.3 702.708L1085.49 709.013L1086.26 711.98L1090.33 715.106L1092.01 717.387L1093.34 720.007L1094.13 722.365L1095.25 731.335L1094.95 733.514L1098.81 734.028L1099.54 734.608L1099.96 735.417L1100.5 736.104L1101.71 736.266L1103.85 736.114L1104.58 736.649L1104.82 737.967L1105.6 740.169L1106.79 741.787L1108.06 742.411L1109.41 742.784L1110.92 743.544L1112.04 744.913L1113.81 748.485L1115.22 750.041L1118.53 751.874L1119.31 752.757L1117.89 753.392L1116.62 753.497L1115.83 753.347L1114.1 752.378L1113.86 752.181L1111.55 750.576L1109.02 748.254L1107.27 747.547L1105.28 748.124L1104.16 748.786L1103.56 749.042L1103.17 749.412L1101.47 752.795L1103.17 753.172L1109.47 751.627L1108.32 753.578L1108.13 754.746L1109.04 755.247L1111.13 755.127L1113.02 755.44L1113.25 756.93L1112.94 759.139L1113.15 761.55L1113.47 761.913L1114.52 762.508L1114.82 762.873L1115.14 764.893L1115.14 765.071L1114.73 766.235L1114.7 766.632L1114.96 766.86L1115.49 766.978L1116.02 767.239L1116.36 767.849L1116.2 768.924L1115.69 769.712L1115.38 770.542L1115.76 771.698L1116.79 773.304L1116.91 774.115L1116.63 775.254L1118.08 774.712L1119.78 773.573L1121.32 772.241L1122.35 771.094L1123.62 770.82L1125.36 772.011L1130.76 777.15L1133.02 779.966L1134.01 783.2L1132.83 786.822L1132.86 787.593L1133.61 788.384L1134.54 789.156L1135.13 789.891L1135.3 791.086L1135.03 793.329L1135.04 794.387L1135.9 797.901L1135.72 799.238L1134.57 801.263L1133.33 802.719L1132.43 803.065L1131.37 803.059L1129.72 803.47L1128.49 804.282L1128.09 805.357L1128.33 806.846L1128.97 808.876L1129.85 808.266L1131.02 807.871L1133.2 807.448L1133.29 806.232L1133.75 805.699L1134.87 806.08L1135.65 806.689L1136.05 806.924L1136.51 806.964L1137.75 807.292L1138.09 808.386L1138.03 809.643L1138.13 810.477L1139 811.358L1141.87 813.33L1143.08 815.314L1145.18 820.985L1146.53 822.449L1148.11 823.253L1147.93 823.983L1147.19 824.78L1147.07 825.707L1147.77 826.791L1148.39 827.459L1150 828.653L1150.77 829.737L1150.73 831.975L1152 833.914L1151.24 834.739L1149.23 835.872L1147.69 837.829L1147.35 838.807L1148.27 839.082L1152.46 838.372L1153.27 838.352L1153.72 839.071L1154.98 841.851L1155.81 842.856L1157.74 843.878L1158.68 844.562L1159.57 845.683L1160.72 848.633L1160.27 850.94L1158.44 852.28L1155.31 852.36L1156.42 853.682L1159.78 855.577L1160.02 856.507L1158.99 857.433L1155.57 859.523L1152.43 860.803L1152.56 862.044L1154.29 864.571L1154.37 866.605L1153.82 868.232L1152.77 869.628L1151.38 870.984L1154.03 870.087L1158.1 863.355L1160.31 863.273L1161.83 863.863L1164.97 863.174L1167.54 865.111L1168.97 865.09L1170.51 864.794L1171.97 864.849L1174.9 866.502L1182.88 876.268L1183.99 882.436L1185.33 885.529L1186.23 884.092L1186.52 882.244L1186.26 880.369L1185.49 878.793L1184.21 876.772L1184.31 875.827L1185.55 875.52L1187.62 875.522L1189.23 875.751L1192.71 876.708L1194.85 876.897L1199.31 877.82L1199.81 877.621L1200.15 877.732L1200.67 878.854L1200.67 880.275L1200.18 881.821L1200.08 883.445L1201.21 885.121L1201.68 886.072L1200.97 886.73L1200.01 887.336L1199.79 888.047L1200.47 888.833L1201.03 888.814L1201.56 888.486L1202.05 888.333L1203.98 889.171L1204.83 889.215L1205.07 888.314L1204.98 887.181L1205.22 886.503L1205.85 886.284L1207.03 886.587L1208.46 887.292L1211.23 889.13L1212.68 889.85L1212.52 888.872L1212.6 888.162L1212.8 887.543L1212.96 886.74L1213.88 887.195L1214.54 887.261L1215.14 886.966L1215.92 886.306L1214.04 886.045L1208.21 884.509L1211.17 879.5L1212.64 879.751L1213.43 880.878L1213.97 882.329L1214.72 883.561L1215.76 884.187L1218.3 884.995L1219.54 885.78L1220.25 886.652L1224.78 893.816L1226 894.658L1226.24 894.434L1229.91 894.631L1230.45 894.758L1233.72 893.261L1233.9 891.06L1232.39 889.58L1230.59 890.228L1229.91 889.03L1230.14 888.049L1231.02 887.365L1232.33 886.977L1233.37 887.2L1233.96 888.018L1234.48 889.061L1235.24 889.925L1236.45 891.736L1235.72 893.604L1234.21 895.488L1233.11 897.375L1233.77 897.216L1235.19 897.126L1235.85 896.974L1235.24 900.795L1235.26 902.001L1235.66 902.774L1236.37 903.503L1237.01 904.429L1237.15 905.859L1235.93 909.223L1233.05 913.11L1229.65 916.404L1223.14 919.811L1219.58 923.402L1214.23 930.551L1212.62 933.46L1211.56 934.854L1208.77 936.388L1197.05 948.724L1195.19 950.075L1184.95 956.36L1175.42 965.251L1172.91 966.779L1155.72 973.285L1147.64 975.09L1145.91 975.958L1144.37 977.129L1126.06 996.874L1123.78 998.596L1121.24 999.787L1118.42 1000.16L1116.07 999.664L1111.41 997.929L1108.84 997.792L1105.8 999.752L1102.24 1001.01L1088.4 1003.02L1084.94 1004.37L1082.47 1007.27L1080.8 1008.85L1078.67 1009.73L1077.4 1010.83L1073.78 1015.48L1071.99 1016.79L1070.81 1016.92L1068.44 1016.7L1067.16 1016.75L1066.04 1017.14L1064.04 1018.46L1061.02 1019.78L1059.53 1021.48L1057.59 1024.85L1048.2 1033.48L1046.04 1037.15L1045.97 1037.12L1042.61 1035.76L1033.9 1034.86L1029.87 1033.48L1023.13 1028.16L1018.94 1026.07L1013.94 1026.01L1012.93 1026.46L1010.73 1027.78L1009.55 1028.17L1008.24 1028.01L1005.94 1026.79L1004.86 1026.59L1004.49 1026.43L1003.78 1025.51L1003.56 1025.27L1002.97 1025.38L1002.47 1025.72L1002.19 1026.08L1002.22 1026.25L1001.39 1026.35L998.99 1026.65L993.09 1028.57L992.249 1029.78L991.345 1030.16L987.072 1031.06L985.382 1031.74L979.283 1036.5L978.698 1037.55L978.655 1039.17L977.737 1044.29L976.933 1045.75L977.37 1047.67L975.494 1052.58L975.289 1055.09L975.926 1056.47L976.755 1057.7L977.147 1059L976.493 1060.57L975.341 1061.95L973.368 1063.82L966.163 1068.35L962.002 1072.84L960.197 1074.26L957.99 1074.99L954.637 1075.51L952.405 1076.3L948.872 1078.89L946.73 1079.68L945.535 1080.45L944.909 1081.91L944.524 1083.5L944.091 1084.65L943.316 1085.56L942.66 1086.04L940.696 1086.67L938.278 1087.02L932.819 1086.3L931.892 1085.99L929.716 1084.27L928.406 1083.86L927.421 1084.08L926.658 1084.6L925.904 1085.26L924.945 1085.88L921.207 1086.85L916.516 1087.02L907.22 1086.27L903.238 1085.02L899.083 1082.43L895.677 1079.23L893.922 1076.09L892.401 1077.31L891.565 1078.16L890.632 1078.74L880.967 1081.06L879.359 1080.99L876.483 1079.66L874.371 1079.81L873.289 1079.44L871.583 1080.31L867.622 1086.7L865.311 1091.48L864.491 1092.51L863.371 1093.34L859.683 1095.4L858.779 1096.4L858.311 1097.18L857.606 1097.78L854.828 1098.51L853.333 1099.29L846.845 1101.32L844.988 1101.39L842.134 1100.45L841.511 1100.31L840.761 1099.84L839.756 1097.4L838.839 1096.94L826.474 1098.74L826.005 1099.05L825.531 1099.63L824.872 1100.24L821.618 1101.23L817.929 1102.9L816.399 1103.3L815.258 1103.14L813.47 1102.38L812.168 1102.34L807.912 1103.73L806.574 1103.05L805.337 1101.24L804.694 1099.06L805.137 1097.34L804.111 1095.29L803.514 1092.88L802.628 1090.94L800.801 1090.37L799.804 1090.28L799.001 1089.83L798.205 1089.21L797.215 1088.63L796.134 1088.35L793.703 1088.07L792.601 1087.8L788.388 1085.98L786.033 1085.3L784.527 1085.63L782.568 1086.53L780.434 1085.77L779.185 1083.86L779.839 1081.3L777.686 1079.35L776.172 1078.85L772.185 1079.48L771.478 1079.39L768.293 1078.54L763.842 1078.37L762.581 1079.53L759.89 1084.21L758.235 1085.96L753.058 1087.71L751.281 1089.16L752.448 1091.4L751.29 1092.43L750.329 1094.04L749.662 1095.66L749.241 1098L748.279 1098.83L742.788 1101.17L742.666 1101.18L740.387 1102.95L738.581 1102.76L736.775 1102.33L735.628 1102.59L735.767 1104.46L734.507 1104.24L733.937 1103.71L733.554 1103L732.866 1102.27L731.819 1101.68L731.318 1101.7L730.938 1102.01L730.278 1102.31L730.271 1102.41L728.942 1103.19L728.49 1103.3L725.867 1103.56L724.835 1103.38L724.033 1102.79L723.76 1102.22L719.358 1102.99L675.128 1108.99L674.817 1108.08L674 1102.48L673.53 1100.94L672.82 1099.75L672.175 1098.85L671.84 1098.24L671.277 1097.51L670.155 1096.8L668.993 1095.8L667.658 1093.01L665.436 1091.65L664.869 1090.9L663.746 1088.79L661.503 1087.29L658.745 1086.31L653.946 1085.43L653.065 1085.44L652.318 1085.83L651.145 1087.21L650.456 1087.39L649.658 1086.67L646.674 1082.61L647.26 1082.18L648.064 1081.34L648.636 1080.89L648.539 1080.22L646.721 1079.5L645.114 1078.12L643.868 1076.16L643.168 1073.75L642.763 1072.81L641.985 1072.07L641.056 1071.61L639.071 1071.41L638.468 1070.8L638.001 1069.9L637.288 1068.92L631.607 1065.3L630.531 1063.52L629.84 1060.92L627.782 1056.7L627.001 1054.56L627.128 1051.76L629.632 1047.33L630.936 1042.65L631.003 1041.5L630.305 1036.72L630.688 1029.78L629.871 1027.02L630.383 1026.01L631.532 1024.85L631.055 1023.5L630.308 1022.82L629.545 1022.42L629.007 1021.88L628.751 1021.43L627.939 1020.53L629.009 1018.06L628.579 1015.72L627.255 1013.69L624.584 1011.32L624.207 1010.73L623.992 1008.64L623.513 1007.43L622.76 1007.32L621.849 1007.51L620.889 1007.22L619.857 1006.12L618.95 1004.81L618.239 1003.39L617.857 1001.99L617.874 1000.58L618.507 998.016L618.587 996.959L617.846 995.022L615.312 991.903L614.501 989.647L614.93 977.587L614.795 976.436L614.37 975.134L613.142 972.917L611.302 967.349L606.629 959.924L605.284 956.373L605.347 955.273L605.981 953.036L606.02 951.771L605.707 950.624L603.934 947.125L600.089 943.068L598.563 941.033L586.072 929.426L585.886 929L583.7 927.424L583.179 927.227L580.47 925.127L579.731 924.361L578.91 922.406L578.367 920.523L577.492 919.2L574.16 918.507L562.269 909.087L562.212 909.069L562.205 909.063L558.999 908.124L556.878 906.383L556.012 906.034L551.785 902.187L550.198 901.579L549.017 900.529L548.864 900.456L545.262 898.766L541.389 897.961L539.897 899.753L538.821 901.417L536.63 903.855L535.448 906.782L538.118 911.288L538.194 913.191L537.924 916.54L538.135 918.515L537.967 919.968L537.253 921.196L535.839 922.456L535.946 923.188L534.484 925.34L533.117 924.62L531.657 922.657L528.791 920.863L525.531 919.503L522.898 918.844L519.887 917.436L516.784 915.09L513.619 913.705L510.36 915.143L507.791 917.138L505.151 917.886L505.097 917.885L502.244 917.801L498.865 917.251L495.222 917.397L492.808 918.849L490.528 920.678L487.351 921.957L482.907 922.289L480.768 921.955L478.969 921.038L477.402 919.216L474.999 915.499L472.768 913.932L466.195 910.55L464.203 910.16L463.289 910.476L461.776 911.831L460.909 912.252L459.622 912.317L457.325 911.971L455.849 912.197L455.199 912.644L453.919 914.067L453.006 914.54L452.577 914.364L449.295 913.586L446.352 913.369L445.333 913.121L438.071 909.004L432.001 904.486L429.983 903.671L427.938 904.06L426.076 905.386L424.69 907.369ZM1135.5 610.013L1137.38 611.577L1137.71 615.046L1137.07 622.492L1135.07 629.873L1133.94 632.009L1133.85 632.831L1133.96 633.506L1133.93 634.222L1133.52 636.519L1133.29 637.139L1132.55 638.526L1132.47 639.311L1132.14 640.665L1130.88 640.849L1127.83 640.406L1124.9 641.864L1123.89 644.374L1123.6 646.922L1122.81 648.513L1118.86 650.779L1116.79 651.578L1115.04 651.888L1112.77 651.329L1109.54 648.736L1107.64 647.679L1108.6 647.299L1110.38 646.967L1111.22 646.471L1111.19 646.174L1111.36 645.367L1111.6 644.62L1111.75 644.572L1111.87 643.728L1112.45 643.449L1113.18 643.396L1113.76 643.117L1117.67 638.005L1118.85 635.337L1117.69 634.281L1118.03 632.402L1119.12 631.391L1120.74 630.922L1122.68 630.656L1124.39 630.041L1127.48 628.019L1129.23 627.39L1128.52 626.614L1127.5 626.602L1124.8 627.289L1124.7 626.629L1125.93 626.131L1126.97 625.375L1128.7 623.736L1130.83 622.467L1131.68 621.49L1132.01 618.645L1132.63 616.93L1133.48 615.386L1134.33 614.658L1134.77 614.027L1135.44 611.114L1135.5 610.013ZM1077.7 475.037L1078.23 475.942L1081.82 480.572L1082.01 485.247L1079.81 488.837L1076.2 490.664L1072.14 490.088L1070.41 488.934L1068.7 487.271L1067.36 485.288L1063.95 476.516L1063.95 474.886L1061.68 475.962L1061.87 477.112L1063.06 478.371L1063.92 479.724L1064.14 482.136L1063.71 482.793L1060.59 482.123L1060.76 480.008L1059.92 478.457L1056.73 475.939L1052.65 471.276L1051.61 470.633L1050.7 470.076L1049.38 471.073L1049.49 471.853L1050.13 471.858L1050.25 472.159L1050.23 472.638L1050.43 473.203L1048.86 472.422L1048.66 474.152L1049.38 476.499L1050.7 477.564L1050.46 477.74L1050.33 477.997L1049.93 478.107L1048.88 477.826L1047.84 477.35L1047.42 476.995L1047.11 476.597L1040.87 471.197L1039.62 469.67L1037.57 465.084L1036.36 463.305L1039.48 458.096L1037.72 452.069L1034.79 445.745L1034.39 439.698L1034.08 438.417L1034 437.153L1034.13 436.027L1034.47 435.174L1034.87 435.691L1035.84 436.662L1036.24 437.205L1037.58 434.071L1040.91 430.365L1042.36 428.074L1042.74 424.595L1042.33 416.614L1043.98 414.409L1045.7 417.476L1049.78 422.84L1050.97 426.487L1050.88 431.074L1051.08 432.743L1051.64 434.332L1053.01 437.228L1053.43 438.767L1054.16 440.351L1056.68 443.398L1058.56 448.105L1059.26 448.385L1061.56 448.411L1062 449.806L1061.92 451.145L1061.66 452.528L1061.64 454.001L1061.94 455.692L1062.33 456.953L1062.93 458.077L1063.88 459.274L1062.84 461.028L1062.43 461.974L1062.24 463.23L1063.68 462.357L1064.72 462.868L1065.7 463.946L1066.89 464.719L1066.74 463.131L1067.28 461.989L1068.13 461.785L1068.84 463.008L1069.32 462.876L1069.43 462.787L1069.41 462.604L1069.48 462.169L1071.25 462.362L1070.94 460.141L1069.98 457.05L1069.87 454.686L1072.06 456.852L1073.45 459.739L1077.7 475.037ZM1074.15 376.934L1073.66 373.205L1073.82 371.448L1074.59 369.834L1073.77 368.787L1075.06 368.368L1078.88 368.466L1077.81 367.085L1075.2 364.691L1074.35 363.136L1076.07 363.319L1078.18 363.169L1080 362.576L1080.89 361.438L1079.64 361.339L1078.54 361.101L1077.6 360.629L1076.81 359.809L1078.46 359.584L1080.9 358.556L1082.56 358.225L1084.62 358.942L1085.62 358.485L1086.03 356.233L1084.01 357.341L1081.32 356.992L1076.05 354.65L1075.11 355.477L1073.76 355.269L1072.4 354.361L1071.41 353.101L1072.62 353.402L1073.44 353.838L1074.19 353.942L1075.12 353.303L1076.18 353.467L1079.86 353.487L1081.82 353.138L1080.91 352.458L1081.42 350.28L1080.76 348.583L1079.54 348.186L1078.33 349.883L1078.57 347.639L1078.77 346.912L1078.03 346.215L1077.13 345.815L1076.06 345.927L1074.91 346.795L1074.98 345.583L1075.07 345.075L1075.36 344.379L1074.75 343.179L1074.67 341.654L1075.05 340.448L1075.84 340.235L1077.18 340.649L1077.69 340.203L1077.48 339.299L1076.65 338.325L1075.65 337.921L1072.03 337.107L1072.2 336.049L1073.49 334.651L1073.78 333.488L1072.37 334.435L1071.22 332.597L1071.56 330.975L1072.92 330.265L1074.92 331.093L1075.09 329.328L1073.76 328.508L1071.9 327.834L1070.5 326.555L1070.27 325.335L1070.48 322.267L1070.37 320.63L1070.69 321.14L1071.01 321.545L1071.35 321.813L1071.69 321.871L1072.57 322.219L1073.3 323.147L1073.8 324.117L1073.97 324.569L1075.12 324.234L1075.4 323.389L1075.5 322.483L1076.09 321.972L1076.68 322.265L1078.64 323.721L1079.07 324.161L1084.36 326.25L1085.37 326.95L1085.62 328.159L1086.03 329.185L1086.53 329.509L1087.11 328.577L1086.9 327.733L1086.35 326.771L1086.19 325.584L1087.26 324.111L1087.49 324.874L1087.98 325.616L1088.22 326.199L1088.83 324.324L1089.14 322.106L1089.08 320.066L1088.68 318.712L1090.24 319.437L1090.56 321.607L1090.65 324.182L1092.43 327.986L1091.52 330.079L1089.85 331.843L1088.53 332.761L1089.33 334.569L1089.29 336.677L1088.95 338.857L1088.91 340.92L1090.39 343.956L1090.57 344.514L1091.48 343.921L1091.42 342.896L1091.08 341.885L1091.17 341.331L1092.6 341.723L1093.05 343.567L1092.92 347.755L1093.8 354.025L1093.29 355.849L1094.2 356.53L1093.15 358.203L1091.38 368.059L1090.74 369.32L1090.36 369.834L1090.31 370.532L1090.53 372.338L1090.25 373.81L1089.35 374.188L1088.62 373.419L1088.86 371.448L1088.28 371.532L1087.82 373.367L1087.54 374.054L1087.12 374.672L1087.64 375.746L1087.25 377.015L1086.22 378.288L1084.86 379.458L1083.88 379.882L1083.54 379.525L1083.8 378.797L1084.66 378.072L1084.54 377.276L1083.09 377.876L1082.05 378.751L1081.21 379.052L1080.27 377.9L1076.6 378.559L1074.99 378.282L1074.15 376.934ZM1124.8 650.564L1128.15 649.689L1130.56 649.465L1131.28 650.904L1130.35 652.455L1126.66 658.012L1123.94 661.367L1122.16 661.499L1121.27 659.829L1121.5 656.966L1122.42 654.515L1124.8 650.564ZM1035.52 421.165L1035.66 422.632L1036.45 424.451L1037.51 425.633L1036.94 426.831L1037.8 428.117L1038.11 430.227L1036.84 430.709L1035.67 430.807L1035.23 429.311L1035.17 427.385L1035.02 424.358L1034.41 422.216L1035.52 421.165ZM1066.69 375.912L1067.69 376.271L1069.38 377.034L1070.73 378.418L1072.25 380.156L1074.01 380.53L1075.69 380.726L1076.94 381.933L1076.88 383.27L1074.06 383.875L1071.99 382.662L1070.09 380.981L1068.96 379.756L1067.54 378.637L1066.19 377.253L1066.69 375.912ZM315.495 96.6255L316.481 95.9719L320.177 95.3369L322.394 94.5991L323.574 94.3943L324.51 94.7042L325.198 95.495L325.36 96.1718L324.959 96.4861L324 96.2445L323.346 96.34L323.749 97.1398L324.831 98.2243L325.082 98.6344L325.179 99.958L324.972 100.498L324.542 100.817L323.348 102.457L320.217 105.652L319.816 105.297L319.424 105.226L319.073 105.214L318.649 105.148L316.399 103.471L315.39 102.441L315.565 101.906L315.955 101.307L315.661 100.172L315.074 98.9832L314.622 98.2837L316.087 98.0698L315.495 96.6255ZM339.716 128.442L339.677 129.053L339.351 130.31L338.859 130.193L337.934 130.391L337.597 131.141L338.893 132.608L335.487 132.819L333.02 131.618L330.81 129.998L328.122 129.02L327.857 130.269L327.117 131.077L325.982 131.371L324.561 131.006L319.013 127.898L317.093 127.606L311.771 128.224L309.11 127.88L306.563 126.565L305.324 126.364L304.39 126.947L303.479 127.241L302.383 126.063L302.278 125.122L302.698 124.074L306.029 119.416L306.847 117.83L306.879 116.52L306.054 116.322L303.052 116.474L302.525 116.36L301.714 116.479L301.02 115.433L299.149 113.954L298.277 112.553L299.313 112.464L300.049 112.485L300.639 112.813L301.302 113.64L302.92 112.512L304.043 111.488L305.827 109.317L306.518 108.164L306.935 107.752L307.846 107.461L308.336 107.548L310.391 108.108L310.967 108.566L310.906 110.327L310.145 111.648L309.85 112.901L311.085 114.378L316.972 116.543L319.631 115.136L320.079 114.942L320.371 114.104L321.276 113.972L322.153 114.1L322.522 114.236L327.664 112.18L328.528 112.213L329.25 113.668L330.288 115.108L330.805 116.689L329.213 120.393L330.27 121.1L334.387 121.39L334.5 122.169L333.3 123.11L334.48 124.434L338.047 126.845L338.615 127.018L339.063 126.824L339.414 126.836L339.663 127.66L339.716 128.442ZM209.974 178.158L209.345 179.078L205.848 182.807L204.332 183.761L202.995 183.318L201.974 182.002L201.462 180.452L201.51 178.821L202.285 176.286L202.039 174.824L201.226 173.828L198.843 172.328L197.792 171.016L199.052 169.622L198.121 169.12L196.05 169.327L193.976 170.172L192.717 166.566L194.289 166.655L195.324 165.676L195.832 164.136L195.87 162.441L193.619 163.598L193.504 160.844L194.8 155.112L195.454 155.017L195.857 157.124L197.09 157.709L198.454 158.115L199.054 158.951L200.703 161.738L201.596 165.016L202.94 167.686L205.977 168.422L207.236 168.334L207.245 168.84L206.812 170.018L206.871 171.952L207.63 173.435L208.842 174.754L209.817 176.205L209.974 178.158ZM273.318 159.193L272.393 161.145L271.794 162.922L272.477 164.542L272.65 164.198L272.693 164.063L272.737 163.929L273.11 163.651L272.946 165.364L271.816 166.995L270.376 168.034L269.253 167.974L268.405 169.15L267.478 169.985L266.389 170.368L265.172 170.099L264.195 168.424L263.632 166.308L262.776 164.585L260.917 164.061L260.472 162.756L262.063 154.24L262.708 155.389L263.685 155.979L264.581 155.785L265.121 154.464L265.775 154.368L266.118 158.906L267.305 159.848L270.149 159.051L269.675 158.196L268.953 155.435L269.607 155.34L270.792 155.39L271.858 154.629L272.815 154.648L273.612 157.049L273.318 159.193ZM223.961 162.767L222.621 168.189L221.432 169.414L219.76 170.391L218.008 171.029L216.417 171.261L216.561 171.368L216.251 171.636L215.752 171.932L215.36 172.085L214.959 171.953L214.932 171.543L214.962 171.092L214.823 170.793L214.408 170.344L214.153 169.681L213.706 169.46L212.592 170.323L213.05 168.886L214.356 167.357L215.237 165.763L214.586 164.138L213.57 163.935L211.367 164.543L210.861 163.917L211.13 162.921L212.009 162.188L213.445 161.341L215.245 159.931L216.803 158.398L218.371 157.15L220.271 156.649L220.505 157.825L220.729 158.269L221.243 158.736L221.852 157.882L221.441 158.77L221.195 159.698L221.02 160.679L221.01 161.7L221.664 161.604L222.478 159.987L223.316 160.056L223.89 161.151L223.961 162.767ZM190.333 151.113L189.668 150.701L188.918 149.281L188.736 147.812L188.994 146.308L189.527 144.734L190.363 145.441L190.461 146.988L191.035 148.305L192.054 149.175L193.537 149.31L195.483 149.344L195.2 150.023L193.409 151.271L192.972 151.973L191.696 151.745L190.333 151.113ZM189.451 114.551L190.412 113.073L191.226 111.458L191.026 109.002L191.493 108.934L191.828 109.044L192.502 109.518L192.647 111.821L191.98 113.575L189.175 116.595L189.451 114.551ZM195.739 95.7031L195.98 98.6624L195.456 101.829L193.074 107.973L193.12 103.061L192.861 101.284L192.977 101.649L193.018 101.929L193.17 102.097L193.692 101.958L193.087 98.0353L192.422 96.3175L191.162 94.8773L194.172 93.2604L194.616 93.2585L195.086 93.6366L197.778 94.6442L199.457 96.1186L200.006 96.8342L200.455 97.9462L195.739 95.7031Z" fill="#BEBCAA"/>
</svg>
