<svg width="829" height="827" viewBox="0 0 829 827" fill="none" xmlns="http://www.w3.org/2000/svg">
  <path d="M254.412 645.999L253.238 645.248L247.542 643.084L244.005 640.729L243.446 640.618L242.122 640.754L241.563 640.555L241.121 639.98L240.884 638.823L240.602 638.232L239.546 637.09L238.584 636.571L233.125 636.107L226.572 634.671L223.707 634.44L222.671 633.746L221.575 632.054L220.094 628.544L219.26 627.474L216.495 625.606L213.416 624.841L203.486 625.041L201.863 624.833L200.327 624.29L198.826 623.166L196.022 620.309L195.317 619.927L194.446 619.455L193.752 619.423L192.286 619.774L191.57 619.838L190.778 619.608L188.585 618.331L186.639 618.052L185.426 618.57L184.327 619.392L182.739 620.054L179.502 619.271L177.951 616.241L177.958 612.429L179.392 609.304L168.033 606.186L166.26 606.337L163.661 607.748L162.102 608.306L160.566 608.298L159.274 607.795L151.94 602.134L150.179 599.774L149.608 596.475L149.615 593.597L149.088 591.636L147.567 590.361L144.638 589.525L143.424 588.752L141.786 586.855L140.587 586.233L139.437 586.146L138.4 586.258L137.419 586.163L136.403 585.494L136.143 584.953L135.891 583.55L135.607 583.064L134.93 582.665L134.685 582.769L134.488 583.071L133.944 583.287L133.062 583.478L129.119 584.888L128.532 585.278L127.886 585.501L126.904 585.342L126.09 584.729L124.649 582.786L123.759 582.173H121.924L120.702 582.808L120.626 582.637L120.851 580.414L120.649 579.529L119.84 579.188L118.315 577.895L118.248 575.037L119.078 570.25L117.687 567.779L113.133 564.921L111.786 562.835L111.517 562.971H111.427L111.383 563.038L111.248 563.4L110.372 562.402L109.475 560.134L108.622 559.136L107.545 558.615L106.535 558.253L105.795 557.618L105.503 556.258L105.547 555.555L105.615 555.26L105.638 554.988L105.503 554.421L105.301 554.149L104.965 553.764L104.629 553.243L104.293 551.747L103.866 551.021L103.642 550.204L103.933 549.093H104.494L104.585 549.411L104.921 550.159L105.303 548.844L105.101 547.371L104.563 546.011L103.935 544.9L102.702 545.647L102.365 545.942L101.58 544.651L101.109 543.11L100.863 539.87L100.594 538.895L99.0229 536.425L98.2145 535.383L96.5547 534.024L95.8822 533.208L95.3213 530.512L94.5587 529.47L92.7186 527.772L88.5462 515.906L87.6934 515.43L87.1386 514.37L86.6893 513.124L86.24 512.196L85.4544 511.585L83.3912 510.611L82.5613 510.046L82.0004 508.936L81.5969 507.533L80.9458 506.357L79.6666 505.835L79.2861 504.908L76.2569 499.589L77.4903 496.942L77.8937 495.472L77.0409 494.816L77.0853 494.092L78.0955 490.471L78.3415 489.045L77.8479 486.059L74.6399 479.024L73.81 476.288L73.4066 475.882L72.3749 475.519L72.2175 474.728L72.4422 473.913L72.621 473.484L72.3291 472.105L71.5435 470.748L70.5119 469.64L69.4573 469.007L69.9739 468.102L70.3774 468.193L70.7809 468.689L71.2975 469.006H73.4066L74.4611 468.373L74.5513 466.881L74.2594 465.118L74.1692 463.716L74.5054 463.196L75.5141 462.315L75.7388 461.908V458.766L74.8187 457.207L71.004 454.766L70.4874 453.727L68.6932 452.552L63.6894 446.903L62.3873 443.898L61.8264 441.977L61.9379 441.141L59.0891 437.459L57.3835 433.415L56.711 432.76L55.3875 432.376L54.064 431.45L46.2786 423.998L45.4701 422.462L45.0208 420.995L43.8761 419.798L42.3508 418.94L40.7354 418.511L37.2798 418.601L34.0489 419.527L28.1939 422.757L28.1495 420.95L27.2295 419.89L24.5366 418.513L20.8563 415.375L14.1026 406.955L13.2957 405.331L12.7577 404.654L10.9634 404.134L10.1779 403.547L9.81872 402.757L10.2008 401.99L11.0765 400.613L11.3684 398.852L10.8519 393.706L11.0307 388.832L11.5473 387.298L12.8265 385.38L14.3517 383.665L15.6982 382.785L16.4379 382.831L17.7401 383.665L18.57 383.868L19.1538 383.575L24.1346 378.906L25.8616 377.935L27.6788 377.552L27.6559 376.086L28.1495 373.266L28.1939 371.733L27.4526 368.238L19.2867 350.133L17.7829 348.173L14.283 344.905L12.7348 342.764L12.0623 340.285L12.3313 338.594L12.9824 336.791L13.9024 335.078L14.8897 333.748L15.3391 332.441L15.4506 330.481L15.3391 328.633L15.1373 327.687L15.6982 327.483L15.9229 327.326L16.1689 327.372L16.7298 327.687L17.0431 326.695L16.5266 325.141L16.9973 324.262L17.5811 323.563L17.604 323.068L17.4023 322.506L17.2678 321.65L17.0431 321.379L16.5938 321.402L16.2117 321.335V320.84L16.4807 320.502L16.794 320.435H17.0859L17.2648 320.322L17.5337 319.894L17.8257 319.6L18.1176 319.15L18.2979 318.271L18.2536 316.492L17.7829 314.713L16.9759 313.091L15.1358 310.704L14.6651 309.307L14.9799 308.699L15.1587 308.227L15.1358 307.776L14.7766 307.371L14.3502 307.326L13.9238 307.349L13.6319 307.213L12.3985 305.569L11.6588 304.916L10.155 304.488L8.13603 303.632L7.59805 303.34L7.01422 302.619L6.67798 302.011L6.20726 301.448L5.24289 300.907L4.48023 300.66L2.14648 300.435L0.7771 299.963V299.445L2.88618 297.553L2.93052 297.057L2.5041 296.472L1.94322 295.841L1.56114 295.21L1.44957 294.444L1.49388 288.973L5.08393 269.772L5.44004 265.265L7.96486 265.861L11.0765 266.106L11.4235 266.24L12.3023 265.56L12.5346 264.698L12.5743 263.711L12.8586 262.629L13.3385 262.178L14.6391 261.57L15.0334 260.914L15.1954 259.665L15.333 259.396L16.5694 258.638L17.3809 258.741L18.2077 259.159L19.4839 259.373L20.1533 259.144L24.2019 257.24L26.9345 254.672L29.5495 253.187L30.3213 252.563L32.0147 251.608L32.976 250.391L34.9216 245.731L35.7087 244.594L40.9004 240.266L43.2006 237.463L44.9887 234.367L45.1889 233.884L46.3749 231.018L47.6984 225.515L48.6124 223.951L52.6136 219.846L55.5434 214.778L57.4691 213.546L60.8681 214.659L61.1279 213.317L60.891 212.125L60.4585 210.948L60.136 209.661L60.2201 208.241L60.2232 208.185L60.7581 206.811L63.9018 201.862L64.4735 200.441L64.5009 199.044L64.3191 197.512L64.7333 196.597L66.8561 195.073L67.0456 194.766L67.3299 193.866L67.5271 193.629L68.7956 193.439L68.9454 193.455L68.9851 193.597L70.4431 193.479L70.5256 193.314L70.6556 192.651L70.7732 192.461L72.8013 191.995L73.3255 191.806L73.9323 191.277L74.9257 190.092L78.502 188.428L80.5026 186.487L80.6004 184.451L78.3003 183.195L77.7684 182.905L79.1699 181.216L80.6081 179.874L82.2892 178.833L84.3723 178.045L85.3092 177.927L86.0535 177.508L86.5426 176.822L86.7749 175.914L88.7923 176.917L90.9075 176.68L92.743 175.425L93.8939 173.374L93.8541 172.932L93.5148 171.575L93.4751 171.014L94.5541 169.475L95.2159 167.653L95.3504 166.698L95.2724 165.735L94.9576 165.191L93.9688 164.465L93.6967 163.889L93.7594 163.447L94.1216 162.43L94.1094 162.028L93.3574 160.97L91.4822 159.203L91.1046 158.083L91.609 156.868L93.9688 154.146L94.1965 153.738L94.7054 152.829L92.9249 152.813L89.3639 153.807L87.5834 153.964L86.5793 153.665L84.8339 152.521L83.897 152.174L82.9556 152.237L82.196 152.537L81.3997 152.734L80.3834 152.512L80.1786 152.181L79.9662 150.933L79.769 150.469L79.4374 150.247L78.4287 149.821L73.4784 146.856L72.8594 146.753L71.7957 147.148L70.8894 147.897L69.3809 149.978L69.0141 150.153L69.005 150.123L68.684 149.174L68.0222 148.52L67.5805 147.913L67.9275 147.077L66.5413 146.698L65.3828 145.61L63.477 143.142L63.3119 141.825L64.1861 140.13L65.8474 137.882L65.8749 135.942L66.1225 134.759L66.7369 133.758L71.1202 129.153L71.6123 127.71L69.8639 128.357L67.1312 129.603L65.5249 130.131L64.044 130.116L63.1973 129.295L63.4922 127.419L64.1143 126.473L65.9345 124.745L66.6666 123.792L66.9983 122.988L67.6203 120.567L70.5119 113.526L71.5328 111.909L74.0576 108.732L75.5309 107.865L77.154 108.07L78.8077 108.544L80.4033 108.457L81.2576 107.74L82.3442 105.69L83.2185 105.004L84.2027 104.87L85.0219 105.129L89.0001 107.093L89.6222 107.243L90.316 107.053L90.8678 106.739L91.9315 106.479L93.1098 105.8L94.389 105.233L95.3809 104.516L96.168 103.089L96.4905 101.536L96.168 96.3169L96.8298 92.9592L99.4524 84.4693L98.8151 82.2548L97.999 81.1513L96.8374 79.9852L95.4635 79.299L94.0375 79.6062L95.0416 75.1679L94.8124 73.1505L92.5275 72.7883L92.905 72.1739L93.3697 71.6772L94.6061 70.7082L94.0238 69.3449L94.4532 68.1712L95.2296 67.028L95.6469 65.735L95.0401 62.6768L94.7727 61.8729L95.6469 59.776L95.4574 59.0745L94.7803 58.0337L94.6076 57.6394L94.632 56.8202L95.6163 50.8078L95.679 48.8454L95.1242 47.2299L93.3131 47.9238L92.1195 46.9854L91.3874 45.2676L90.6477 42.5257L90.3084 41.9419L89.3639 40.9332L88.103 39.2475L87.6506 38.254L88.0572 37.8124L88.2941 36.9137L88.4362 34.9284L88.0037 32.9354L86.5227 32.0368L85.0265 31.8243L79.9921 29.9567L79.2906 29.5318L78.149 28.4437L77.3451 27.8767L75.0999 26.9474L74.1157 26.2062L73.7061 24.9851L73.7841 24.418L73.9644 23.9687L74.1371 23.6371L74.212 23.4002L74.0591 22.7781L73.35 21.8566L72.9007 20.3038L71.5145 18.0036L71.0499 16.8925L70.7503 14.9225L70.4278 14.4502L69.491 13.7732L69.1761 13.8603L68.6794 14.1278L68.0727 14.2225L67.4033 13.7732L67.2779 13.3162L67.4827 12.8593L67.7701 12.4252L67.9321 11.9759L67.6799 10.9366L66.5688 10.1724L66.3166 9.35326L66.5581 8.49128L67.145 7.65528L67.7487 7.02408L67.8373 6.93085L68.4517 6.43414L69.3962 6.52125L69.9632 6.89875L70.3575 7.32363L70.787 7.52079L71.704 7.45048L73.1223 7.12036L76.966 6.76579L78.6273 6.94766L80.4629 7.52232L81.4318 6.71841L84.1569 3.83444L85.2603 3.25979L88.1519 2.34585L91.0206 0.849609L93.715 1.52666L94.9285 2.12577H99.8513H113.81H127.76H129.386H141.715H155.671H167.667L166.471 4.18443L166.583 5.55382L167.57 6.13764L169.209 5.39793L170.038 4.97152L170.599 3.55782L170.855 2.12882H171.889L171.9 2.23428L171.877 3.06416L172.034 3.78248L172.484 3.80541L173.068 3.53642L173.696 3.35761L174.616 3.80693L174.099 4.83856L173.089 5.89311L172.394 6.43108L172.887 7.66445L172.91 8.58451L172.82 9.50456L172.864 10.582L173.268 11.525L173.873 12.4894L174.322 13.3651L174.211 14.0376L173.448 15.8334L172.864 23.1266L172.192 25.3259L170.576 28.4223L170.106 31.6547L169.387 33.3374L169.209 34.369V36.7028L169.074 37.8246L168.715 38.8348L165.574 37.444L165.081 39.576L165.372 42.92L164.543 45.0964L166.001 47.4088L165.484 49.1816L164.115 51.0003L162.926 53.4701L162.253 59.53L161.243 61.6849L160.884 62.8969L160.165 68.0596L159.359 70.1702L156.083 74.2111L155.14 76.2087L154.691 78.4538L154.579 81.1482L155.365 81.2827L155.724 80.9007L155.97 80.3612L156.42 80.1136L157.182 80.1808L157.631 80.271L158.058 80.2939L158.776 80.1136L159.404 79.6642L159.875 79.0804L160.548 78.6311L161.894 78.5409L161.018 80.7402L160.817 81.7733L160.434 82.3342L160.323 82.7163L160.48 83.0312L161.243 83.6379L161.422 84.02L161.197 84.8728L160.165 86.2193L159.874 86.9376L159.964 87.6116L160.726 88.4644L160.884 89.0039L159.449 92.1018L159.022 92.6627L159.247 93.381L157.722 97.9156L157.766 100.161L157.497 100.767L156.711 101.71L156.329 102.294L156.172 102.855L156.149 104.359L156.306 105.346L156.912 105.773L158.258 105.728L160.21 104.808L161.668 103.483L163.283 102.608L165.571 103.078L165.256 103.887L165.055 104.202L166.199 104.718L166.872 105.437L166.782 105.909L165.57 105.728L165.637 107.232L165.883 108.152L167.139 109.927L168.194 110.242L168.687 110.578L168.171 111.79L168.328 112.351L168.62 112.912L168.71 113.473L168.307 114.46L167.679 115.381L166.782 116.146L165.57 116.706L164.404 116.797L163.393 116.684L162.721 116.885L162.452 117.963L162.855 119.288L163.752 119.693L164.65 119.895L165.053 120.636V124.813L165.524 125.464L166.623 125.306L168.956 124.565L171.244 124.542L172.501 124.362L173.421 124.003L173.219 125.261L172.546 125.395L171.671 125.08H170.818L170.436 125.305L170.278 125.462L170.256 125.777V126.361L170.188 126.989L169.987 127.079L169.673 126.989L168.82 127.281L167.833 127.214L167.407 127.415L166.957 128.067V128.516L167.115 128.875L167.138 129.19L166.195 131.009L165.993 132.424L165.903 132.783L166.105 132.896L167.518 132.873L167.945 132.986L168.169 133.526L168.237 134.739L167.631 138.49L167.676 140.331L168.707 141.791L169.739 141.23L170.905 140.287L171.892 139.187L172.386 138.154L172.184 137.165L171.174 134.469L171.062 133.929L171.309 133.705L171.197 133.165L170.815 132.132L170.994 131.346L171.42 130.897L171.981 130.561L172.632 130.021L173.395 129.887L174.18 130.605L174.651 131.751L174.472 132.896L175.684 132.514L177.075 132.38L176.783 131.548L176.537 129.1L176.56 128.201L176.448 127.64L176.179 127.325L176.089 127.056L176.56 126.607L176.942 126.584L177.099 127.078L177.076 128.201L179.028 127.64L179.545 128.65L179.433 130.087V130.805L181.16 131.232L181.587 132.309L181.564 133.836L181.81 135.543L182.753 136.576L184.143 136.778L185.4 136.15L185.961 134.735L185.669 134.016L184.278 132.87L183.829 132.376L183.784 131.77L183.896 130.31L183.829 129.771L183.492 129.389L182.976 129.052L182.482 128.469L182.079 126.784L181.585 125.999L181.001 125.348L180.463 125.079L179.835 124.921L179.319 124.539L179.05 124.023L179.207 123.506L179.724 123.101L180.284 123.034L180.936 123.057L181.81 122.944L182.236 122.988L182.528 123.235H182.909L183.604 122.696L183.783 122.36L183.873 121.933L183.85 121.551L183.604 121.371L183.335 120.989L183.627 119.124L183.604 118.496L183.133 116.902L183.761 115.6L184.772 115.308L185.444 116.7H185.961L185.938 115.915L186.028 115.287L186.207 114.68L186.476 114.052L186.925 115.018L188.675 116.994L189.549 118.206L189.774 117.645L189.931 117.487L189.887 117.307L189.551 116.7L190.156 116.52L190.828 116.543L191.501 116.791L192.173 117.217L191.972 117.914L192.465 118.655L193.318 119.081L194.282 118.79L194.776 120.272L194.753 120.9L196.167 120.182L196.482 119.037L196.593 117.892L197.446 117.218L196.93 116.028L196.211 115.421L195.358 114.949L194.125 114.006L192.98 113.557L192.442 113.242L192.173 112.815L192.016 111.872L191.68 111.4L190.984 111.108L190.109 110.928L189.39 110.546L189.075 109.647L189.12 108.57L189.277 107.582L189.59 106.774L190.128 106.19L190.465 106.347L193.292 106.459L193.584 107.29L194.347 107.807L195.357 107.987L196.367 107.786L197.736 106.416L199.688 102.689L201.102 102.644L201.371 100.219L201.281 98.961L200.81 98.4215L200.518 98.1739L200.541 97.7016L200.9 97.2981L201.573 97.3883L201.819 97.7246L202.289 99.0267L202.649 99.4531L203.928 99.8123L204.825 99.5647L205.61 99.1153L206.553 98.8907L207.518 98.8464L207.833 98.8907L209.268 102.236L209.986 102.82L211.265 103.068L211.736 103.248L211.4 103.607L210.457 104.191L210.524 103.922L210.053 103.697L209.381 103.563L208.91 103.63L208.618 105.157L209.988 107.066L211.738 108.952L211.513 109.918L212.523 111.13L214.34 111.466L217.84 111.399L217.706 111.758L217.46 112.633L217.281 112.993L218.134 112.948L218.941 112.971L219.726 113.152L220.444 113.466L221.05 112.905L221.722 112.928L222.373 113.401L223.046 114.052L223.674 113.243L225.222 112.233L225.648 111.402H226.186L226.411 112.525L226.367 113.76L226.031 114.95L225.402 115.916L224.079 117.04L223.562 117.691L222.485 119.824L224.212 120.341L226.096 119.24L231.84 113.806L232.266 112.75L232.424 111.156L232.625 110.37L233.142 109.089L233.814 107.831L234.487 107.18L234.957 108.797L235.002 110.055L235.248 111.267L236.347 112.771L237.177 114.276L236.817 115.511L236.032 116.635L235.538 117.691L236.593 117.151L239.734 115.129L240.204 115.646L240.025 116.207L240.227 117.779L240.204 118.79L241.124 118.048L242.313 116.274L243.391 115.646L244.267 115.938L245.59 115.174L246.263 115.398L246.779 116.095L247.048 116.635L247.363 117.017L248.058 117.218V117.691L247.542 118.612L246.756 119.308L246.128 120.116L245.994 121.374L246.823 121.172L247.407 121.441L247.789 122.069L248.058 122.945L246.42 123.147L246.397 124.224L246.823 125.707L246.509 127.166L246.082 126.919L244.938 126.604L245.341 127.952L245.633 128.58L245.992 129.187L246.53 128.851L247.135 128.941L248.593 129.772L247.247 130.986L246.934 131.975L247.786 132.648L249.918 132.896L250.748 133.772L250.21 135.727L248.595 138.669L248.572 139.635L248.841 140.466L248.797 141.05L245.633 141.724L244.669 141.791L243.793 141.993L241.302 143.364L239.507 143.97L239.125 144.51L239.73 145.499L241.033 145.094L242.514 145.768L244.936 147.588V148.105L242.871 148.216L242.31 148.98L242.333 150.013L242.064 150.935L241.279 152.103L241.033 153.316L241.211 154.462L241.795 155.384H242.356L242.961 154.418L245.474 152.216L245.9 151.475L247.089 148.577L246.865 147.588L247.111 145.948L247.649 144.264L248.321 143.118L249.802 142.175L251.103 141.635L252.113 140.871L252.741 139.187H253.325L253.415 141.074L254.155 142.288L255.388 143.142L259.785 145.164L261.289 145.59L262.209 145.5L262.568 145.007L262.659 144.446L262.547 143.862L262.211 143.368L261.201 142.671L260.461 142.716L259.81 142.985L259.091 142.894L258.037 142.334L257.993 142.042L258.104 141.031L258.037 140.762L257.386 140.628L254.873 140.762L255.524 139.37L256.467 138.719L256.984 138.158L256.446 137.102L256.042 136.877L254.786 136.338L254.36 136.069L254.068 135.643L253.641 134.519L253.327 133.935L252.833 133.419L251.531 132.228L251.239 131.913L251.35 130.88L251.911 130.588L252.472 130.678L252.741 130.813L253.279 130.162L253.525 129.982L253.391 129.69L252.74 128.724L252.425 128.432L250.988 127.422L250.495 126.567L250.135 125.265L250.18 124.052L250.988 123.512L251.055 122.928L252.85 120.436L253.32 120.099L252.917 118.797L251.123 116.888L250.719 115.922L250.877 114.574L251.393 113.81L252.223 113.653L253.322 114.056L253.03 111.608L254.824 109.384L257.585 107.79L260.366 107.183L266.559 107.834L269.521 108.687L269.498 109.922L270.103 110.888L270.979 112.684L271.63 113.469L271.945 113.514L273.381 113.94L273.426 114.052L273.695 114.299L273.627 115.4L273.942 115.647L274.57 115.939L276.253 117.287L277.308 117.691L278.249 117.668L282.243 117.151L284.104 116.702L284.486 116.949L285.047 117.399L285.564 117.579L285.9 116.479L286.215 116.12L286.685 115.962L287.246 116.187L287.358 116.636L287.179 117.354L286.91 118.006L286.708 118.207L287.651 118.701L288.863 118.791L289.918 118.657L290.367 118.499L290.479 119.667L290.905 120.274L291.714 120.454L293.014 120.342L292.655 119.781L292.498 119.288L292.588 118.771L293.014 118.21L293.957 118.683L294.787 118.368L295.392 117.536L295.617 116.436L295.214 115.829L292.499 114.571L291.489 113.853V113.809H292.207L294.159 112.664L295.909 112.057L296.695 111.406L298.041 112.372L299.701 112.395L300.823 111.744L300.598 110.666L300.104 110.284L299.678 110.083L299.409 109.768L299.297 109.094L299.589 108.487L300.24 107.702L301.003 107.05L301.631 106.759L302.91 106.557L305.961 105.366L307.106 104.669L308.744 102.491L309.866 101.683L311.324 102.065L313.927 100.045L314.958 99.4607L318.346 98.7424L319.132 98.047L319.918 97.9125L324.338 94.9934L324.18 94.2292L323.821 93.7799L323.462 93.4651L323.283 93.2175L323.35 92.4992L323.777 91.2872L323.8 90.5689L322.611 87.5611L320.367 85.4062L317.539 84.7108L314.712 86.1474L311.235 88.6615L310.517 88.9978L309.372 89.3569L308.363 90.2327L306.591 92.1186L303.584 90.6147L299.254 89.8521L294.677 89.6947L290.93 90.0538L288.821 90.8394L287.722 90.9525L287.251 90.3014L286.915 89.3141L286.085 88.5286L284.11 87.4511L281.957 86.6426H280.207L278.682 87.4511L277.314 89.0008L276.709 88.1022L276.44 87.5627L276.261 86.9345L276.351 86.126L277.023 85.0715L277.315 84.263L277.292 83.7021L277.135 82.8936L276.978 82.2425H276.799L277.114 81.434L277.271 81.3439L277.45 81.5685L277.832 81.6587L279.964 81.7718V81.6587L281.848 82.1753L282.229 82.4672L282.745 81.6373L282.723 80.5828L282.139 79.6169L280.994 79.056L281.891 78.2031L283.057 79.0346L284.089 80.5384L284.65 81.6602H285.166L285.143 79.438L286.377 79.6169L289.36 82.2441L289.585 81.6832L289.854 81.4356L290.931 81.1437L288.799 78.0228L290.908 76.0467L293.309 76.7421L298.267 80.109L301.79 80.1319L302.395 80.3795L302.889 79.302L303.809 78.2918L304.124 77.1914L302.958 75.8893L302.352 76.2255L302.128 76.2927L301.926 76.1353L301.342 75.8877L301.634 75.7532H301.724L301.769 75.686L301.903 75.3711L298.874 74.6299L295.62 74.338L297.662 73.0129L297.796 72.5865L297.191 71.7337L295.553 70.6562L295.126 70.051L295.62 69.131L294.656 68.9965L293.803 69.0408L293.219 69.3999L293.017 70.1626L290.347 70.32L287.318 72.4306L284.379 73.9345L282.001 72.2503L283.841 71.1056L284.11 70.9711L284.087 69.8493L284.155 69.2884L284.917 67.9419L285.68 65.764L286.196 64.9112L288.26 63.2499L290.033 62.8235L294.564 62.8908L294.003 64.8654L294.789 65.7625L296.314 65.9872L297.974 65.9429L298.938 65.628L299.701 64.9326L300.262 64.2372L300.598 63.9224L301.652 63.8781L302.348 63.6534L302.886 63.1827L303.47 62.3528L303.784 61.3869L303.65 60.7587L303.673 60.288L304.503 59.7485L304.682 59.9503L307.104 60.5341L307.507 61.0507L308.405 61.2753L309.302 61.0277L309.705 60.0175L309.302 59.6354L307.283 58.2431L306.587 57.615L306.071 58.1988L305.375 57.0541L304.949 56.5146L304.5 56.0652L302.861 55.0107L302.391 54.54L301.83 53.4182L302.279 53.1721L305.039 53.464L312.848 53.4197L313.431 53.2852L313.925 52.9933L314.442 52.252L314.643 51.3534L314.486 50.4777L313.925 49.8037L313.23 50.1857L312.579 50.253L311.973 50.1185L311.322 49.8037L312.196 49.1526L312.667 49.0181L312.846 48.8377L312.89 47.9849L312.779 47.4913L311.836 46.1662L310.939 46.5025L310.266 46.4581L309.84 45.9874L309.705 45.0903L308.966 45.4494L308.247 45.5839L307.619 45.4724L307.103 45.0903L308.18 44.2818L309.346 44.1916L310.512 44.2359L311.59 43.7866L312.352 42.7091L312.711 41.4972L312.442 40.7116L311.321 40.9133L310.871 40.1049L310.176 39.4324L309.773 38.6911L310.266 37.794L311.298 37.3233L312.329 37.4807L313.922 38.2663L314.214 38.5123L314.573 38.8715L315.044 39.2077L315.739 39.3651L316.412 39.2077L317.422 38.4665L318.027 38.2647L319.239 38.3763L320.203 38.6682L320.876 38.6453L321.212 37.7925L322.176 38.6896L322.67 39.9016L323.275 40.9791L324.577 41.4284L326.754 41.3611L327.449 41.4284L328.168 41.6531L329.379 42.2812L330.052 42.4829L330.411 42.3255L330.793 41.9664L331.085 41.5843L331.129 41.4269L331.533 41.4712L332.071 41.8976L332.43 41.9878L333.058 41.8303L333.283 41.4483L333.058 41.0891L332.43 40.9088L332.273 40.6168L332.071 39.9658L331.756 39.2704L331.128 38.8211H330.432L329.714 39.09L328.548 39.8527L328.592 38.9769L328.323 38.5276L327.448 37.7864L327.179 37.6962L326.82 37.7864L326.528 37.8093L325.877 36.2152L325.339 35.6085L325.204 35.2493L325.002 34.9574L324.33 34.6212L323.702 34.5096L322.355 34.667L321.727 34.6227L320.717 34.0389L319.977 33.1418V32.2217L321.211 31.4805L325.877 33.0516L325.427 32.2217L324.732 31.4591L323.835 31.1228L322.757 31.482L322.892 31.0327L322.915 30.8309L322.959 30.6964L323.274 30.4488L321.322 28.4956L320.828 27.3968L321.726 26.275L323.026 26.7915L327.715 26.275L329.421 26.3651L330.206 26.6127L331.597 27.4212L333.145 27.6016L333.729 27.8476L334.784 28.8792L334.538 29.0137L334.292 29.5303L334.157 30.1141L334.269 30.4504L335.076 30.5849L335.546 30.1141L335.771 29.3515L335.815 28.6103L335.322 27.3081L334.11 26.0289L332.561 25.0645L331.125 24.6824V24.2117L331.282 23.9657L331.44 23.472L331.597 23.1128H331.126L329.691 23.6967L327.941 23.0914L326.977 21.4317L327.964 18.9405L329.063 17.8416L330.208 17.079L332.699 15.8899L333.844 15.0815L336.087 12.4558L335.909 11.7145L335.123 10.7502L334.787 9.94167L336.087 9.58251L337.882 9.67268L338.42 9.58251L338.779 9.22335L338.958 8.68537L339.204 8.19172L339.742 7.98998L342.12 6.41886L342.286 5.91909L346.353 8.19172L362.714 17.3312L379.082 26.4629L391.43 33.3618L395.443 35.6039L411.804 44.7372L428.173 53.8782L431.631 55.8085L444.533 63.0115L460.886 72.154L477.247 81.2965L493.608 90.4405L509.961 99.5845L526.33 108.722L542.69 117.86L559.051 127.007L575.412 136.147L591.781 145.295L597.617 148.56L608.141 154.446L614.435 157.964L615.601 159.841L616.948 168.117L617.113 169.122L618.641 178.453L617.255 178.555L616.498 179.209L616.231 180.274L616.341 181.639L614.9 181.749L613.087 182.72L611.386 184.069L610.275 185.3L609.888 185.978L609.526 186.831L609.329 187.722L609.447 188.527L609.998 189.088L611.252 189.246L611.638 189.846L611.331 191.109L610.724 192.6L610.944 193.65L614.591 193.438L616.222 193.58L617.828 194.007L619.269 194.7L620.333 195.678L620.908 196.855L622.231 201.56L622.995 203.123L624.044 204.497L628.195 207.48L634.701 212.177L641.199 216.875L647.715 221.573L654.213 226.264L660.711 230.962L667.227 235.652L673.221 239.986L673.725 240.352L680.24 245.044L686.739 249.736L693.237 254.435L699.753 259.136L706.259 263.83L712.765 268.531L719.271 273.232L725.777 277.926L732.244 282.605L732.765 283.084L734.111 283.457L734.602 285.604L734.186 288.082L732.766 289.394L730.689 290.44L732.37 291.118L733.518 291.218L734.181 291.641L734.374 293.334L734.281 294.959L733.995 296.284L733.498 297.504L731.067 301.644L730.087 302.578L729.647 301.458L729.907 299.944L730.397 298.464L730.645 297.013L730.168 295.668L728.822 299.608L727.656 301.01L725.999 300.892L727.319 302.946L727.524 303.706L727.79 308.051L727.561 308.816L727.04 309.147L725.855 308.774L725.198 309.059L724.912 309.446L724.156 310.929L724.026 311.974L725.123 311.911L727.561 310.909L727.616 312.061L728.453 313.898L728.595 314.609L728.285 315.17L725.383 317.71L724.886 318.364L723.373 321.528L721.041 325.04L720.793 325.588L721.389 326.149L722.221 325.513L723.399 324.019L723.858 324.959L720.558 334.558L719.727 336.241L718.666 337.661L717.865 338.191L716.985 338.62L716.289 339.218L716.06 340.265L716.389 340.913L716.991 341.2L717.518 341.668L717.624 342.883L716.6 345.924L714.403 350.418L711.742 354.449L709.248 356.045L710.291 356.519L709.788 358.102L709.725 361.668L708.987 363.089L708.02 364.31L706.636 367.153L704.949 369.716L704.403 371.368L704.118 373.158L704.093 378.096L703.771 378.845L703.274 379.375L702.846 380.043L702.548 380.76L702.493 381.015L702.083 382.967L701.357 384.525L700.794 386.197L700.875 388.05L701.154 388.542L702.103 389.639L702.438 390.145L703.164 393.096L703.48 393.858L703.927 394.301L705.608 395.38L706.798 396.39L706.934 396.864L707.232 399.758L707.046 401.599L706.513 403.252L705.606 404.369L706.189 406.278L706.45 410.577L707.405 412.488L708.236 413.093L709.173 413.579L709.961 414.103L710.289 414.846L710.407 415.67L710.741 416.532L711.238 417.325L711.853 417.981L712.293 418.299L712.678 418.454L713.676 418.505L714.197 418.73L714.457 419.229L714.674 419.766L715.021 420.128L715.982 420.302L718.097 420.415L718.923 420.889L719.698 421.183L720.523 420.889L720.448 420.278L719.785 419.984L718.557 419.503L717.057 418.503L719.24 419.177L720.828 419.89L725.047 423.897L727.559 426.931L729.569 428.373L730.165 429.029L731.313 431.002L731.988 431.708L733.284 432.489L733.929 433.058L734.438 433.926L734.742 434.925L734.848 435.899L735.32 437.809L736.456 439.908L737.833 440.932L739.061 439.608L739.396 441.832L739.043 444.824L739.08 447.542L740.619 448.991L740.568 447.591L740.445 446.998L740.104 446.366L741.499 446.454L742.603 446.885L744.774 448.202L745.941 448.514L748.248 448.72L749.204 449.25L750.333 449.657L753.124 449.626L753.669 450.064L753.992 451.12L755.393 452.975L756.032 455.243L759.679 460.079L759.92 460.611L759.833 461.355L759.462 461.824L759.064 462.224L758.878 462.712L759.529 467.612L759.448 469.637L758.306 469.53L757.538 470.505L756.96 472.587L756.513 473.487L755.664 474.162L754.944 474.144L754.398 473.462L754.139 472.156L750.938 474.399L750.851 474.512L750.243 475.325L749.815 476.695L749.635 477.927L749.3 479.057L748.419 480.114L747.434 480.895L746.957 481.089L746.318 481.164L745.722 481.402L745.797 481.977L746.138 482.658L746.349 483.259L745.902 484.129L744.848 484.329L743.639 484.254L742.702 484.31L743.446 485.548L744.203 486.406L744.718 487.387L744.724 489.038L744.389 490.164L743.714 491.74L742.901 493.147L740.885 495.012L739.998 497.914L738.658 506.386L738.745 507.963L739.061 509.552L740.035 512.018L740.295 513.457L739.842 514.61L739.583 515.699L740.737 518.51L740.365 519.862L736.972 523.838L739.304 523.318L740.967 521.409L742.059 518.855L742.703 516.376L743.882 517.347L744.794 518.392L744.906 519.494L743.697 520.633L746.563 520.352L747.865 520.495L749.205 521.44L751.277 523.468L751.525 524.551L751.028 526.456L749.899 528.948L749.799 529.894L750.619 532.581L750.694 535.587L751.028 536.966L752.201 536.24L752.592 535.87L752.35 538.238L751.401 540.411L748.945 544.327L746.414 551.25L745.299 553.356L744.777 553.105L744.542 553.124L744.294 553.255L743.698 553.356L744.232 554.496L744.058 557.253L744.269 558.613L743.177 558.13L743.165 558.745L742.707 560.192L741.466 558.82L740.833 558.349L740.107 558.13L740.709 559.252L740.746 560.155L740.2 560.826L739.065 561.247L740.032 563.221L740.659 565.24L740.993 567.384L741.093 569.729L740.584 574.193L740.819 576.363L743.362 578.985L744.317 580.767L744.981 582.749L745.297 584.493L745.161 590.93L744.727 592.435L747.394 593.195L747.846 593.678L748.063 594.292L748.374 594.832L749.205 595.07L750.73 595.183L751.189 595.636L751.226 596.589L751.548 598.222L752.217 599.484L753.055 600.056L753.966 600.458L754.952 601.148L755.603 602.229L756.477 604.928L757.314 606.171L759.46 607.803L759.919 608.506L758.852 608.807L757.946 608.75L757.4 608.562L756.283 607.702L756.134 607.538L754.67 606.169L753.127 604.272L751.967 603.594L750.503 603.795L749.647 604.147L749.2 604.266L748.884 604.486L747.341 606.696L748.494 607.136L753.096 606.696L752.084 607.953L751.831 608.756L752.419 609.203L753.908 609.334L755.204 609.748L755.216 610.823L754.77 612.348L754.67 614.069L754.857 614.358L755.538 614.885L755.713 615.174L755.731 616.63L755.713 616.756L755.303 617.534L755.24 617.81L755.401 617.998L755.76 618.136L756.107 618.374L756.281 618.839L756.058 619.58L755.618 620.083L755.314 620.636L755.468 621.491L756.026 622.728V623.312L755.71 624.086L756.789 623.853L758.103 623.225L759.33 622.446L760.174 621.743L761.092 621.68L762.196 622.698L765.477 626.876L766.779 629.094L767.145 631.475L765.942 633.907L765.885 634.454L766.332 635.088L766.908 635.729L767.242 636.306V637.167L766.821 638.719L766.721 639.467L766.963 642.031L766.703 642.956L765.679 644.264L764.655 645.163L763.986 645.314L763.241 645.201L762.032 645.32L761.083 645.767L760.692 646.483L760.71 647.558L760.952 649.054L761.633 648.715L762.502 648.557L764.077 648.482L764.264 647.634L764.649 647.307L765.399 647.691L765.884 648.2L766.144 648.408L766.46 648.482L767.304 648.842L767.427 649.647L767.259 650.527L767.241 651.125L767.762 651.836L769.585 653.521L770.23 655.044L771.13 659.257L771.93 660.428L772.96 661.157L772.761 661.654L772.153 662.138L771.979 662.78L772.356 663.616L772.728 664.151L773.738 665.158L774.172 666.002L773.912 667.574L774.607 669.072L773.987 669.575L772.449 670.166L771.166 671.388L770.825 672.042L771.445 672.331L774.473 672.262L775.043 672.331L775.291 672.884L775.893 674.973L776.37 675.766L777.623 676.685L778.219 677.264L778.728 678.146L779.237 680.344L778.685 681.924L777.251 682.679L775.043 682.414L775.688 683.46L777.858 685.141L777.933 685.821L777.114 686.368L774.484 687.489L772.139 688.068L772.103 688.956L773.064 690.915L772.916 692.358L772.358 693.448L771.471 694.323L770.356 695.136L772.315 694.777L775.876 690.45L777.439 690.62L778.456 691.193L780.733 691.03L782.352 692.66L783.356 692.792L784.473 692.741L785.497 692.931L787.395 694.398L792.015 702.102L792.157 706.564L792.79 708.882L793.571 707.962L793.962 706.689L793.974 705.341L793.589 704.15L792.9 702.595L793.068 701.939L793.974 701.85L795.432 702.064L796.542 702.391L798.899 703.424L800.387 703.778L803.433 704.887L803.806 704.798L804.036 704.912L804.283 705.755L804.141 706.758L803.638 707.797L803.397 708.931L804.023 710.229L804.253 710.947L803.689 711.338L802.951 711.667L802.721 712.145L803.119 712.769L803.516 712.813L803.919 712.636L804.285 712.579L805.556 713.368L806.152 713.487L806.412 712.876L806.469 712.069L806.704 711.615L807.175 711.526L807.976 711.861L808.906 712.504L810.675 714.086L811.617 714.742L811.605 714.036L811.735 713.544L811.94 713.128L812.139 712.579L812.741 712.995L813.193 713.108L813.652 712.963L814.266 712.578L812.97 712.2L809.019 710.517L811.617 707.291L812.629 707.62L813.07 708.495L813.299 709.573L813.702 710.519L814.372 711.068L816.083 711.899L816.87 712.579L817.286 713.267L819.742 718.783L820.511 719.501L820.704 719.368L823.271 719.885L823.636 720.03L826.099 719.312L826.452 717.779L825.541 716.58L824.2 716.851L823.847 715.937L824.109 715.269L824.803 714.878L825.764 714.739L826.472 715.003L826.806 715.64L827.066 716.429L827.512 717.117L828.176 718.517L827.474 719.759L826.215 720.932L825.241 722.148L825.724 722.104L826.734 722.186L827.219 722.148L826.394 724.778L826.282 725.63L826.487 726.217L826.915 726.803L827.268 727.522L827.219 728.544L826.011 730.789L823.584 733.233L820.85 735.205L815.911 736.936L813.028 739.1L808.523 743.589L807.089 745.474L806.2 746.348L804.072 747.141L794.541 754.63L793.093 755.391L785.231 758.767L777.598 764.053L775.668 764.871L762.884 767.688L757.007 768.13L755.699 768.564L754.493 769.23L739.551 781.263L737.77 782.242L735.857 782.82L733.831 782.795L732.224 782.201L729.12 780.498L727.324 780.138L724.976 781.206L722.337 781.727L712.372 781.719L709.797 782.314L707.757 784.105L706.418 785.045L704.827 785.447L703.818 786.089L700.786 788.996L699.392 789.736L698.548 789.703L696.902 789.309L695.988 789.213L695.162 789.373L693.618 790.096L691.35 790.715L690.129 791.759L688.411 793.935L680.904 799.054L679.006 801.417L678.963 801.391L676.73 800.082L670.688 798.556L667.986 797.165L663.78 792.722L661.046 790.818L657.525 790.263L656.768 790.472L655.083 791.18L654.208 791.333L653.302 791.084L651.806 789.983L651.066 789.734L650.822 789.581L650.42 788.866L650.285 788.673L649.863 788.69L649.477 788.875L649.24 789.1V789.221L648.645 789.208L646.924 789.173L642.569 789.92L641.852 790.683L641.175 790.86L638.071 791.053L636.81 791.359L632.02 794.09L631.5 794.765L631.303 795.905L630.13 799.418L629.413 800.365L629.523 801.764L627.695 805.034L627.293 806.778L627.6 807.816L628.057 808.773L628.199 809.729L627.577 810.767L626.624 811.62L625.04 812.737L619.495 815.19L616.101 817.924L614.683 818.736L613.052 819.026L610.634 819.051L608.98 819.373L606.223 820.837L604.632 821.175L603.711 821.594L603.119 822.558L602.685 823.635L602.26 824.407L601.622 824.962L601.109 825.236L599.661 825.477H597.92L594.146 824.407L593.524 824.094L592.169 822.654L591.287 822.236L590.57 822.285L589.979 822.575L589.38 822.962L588.64 823.299L585.906 823.597L582.582 823.235L576.106 821.754L573.428 820.46L570.766 818.207L568.695 815.601L567.781 813.205L566.583 813.912L565.906 814.427L565.189 814.741L558.139 815.376L557.013 815.159L555.122 813.929L553.618 813.816L552.894 813.446L551.602 813.88L548.151 817.982L546.031 821.111L545.347 821.754L544.473 822.22L541.66 823.298L540.921 823.909L540.511 824.407L539.952 824.762L537.919 824.987L536.785 825.381L532.003 826.15L530.687 826.005L528.772 825.048L528.347 824.887L527.867 824.478L527.41 822.651L526.811 822.233H517.91L517.548 822.402L517.154 822.764L516.626 823.127L514.231 823.489L511.459 824.285L510.34 824.406L509.552 824.181L508.37 823.457L507.456 823.296L504.314 823.836L503.44 823.224L502.755 821.817L502.526 820.217L503.015 819.051L502.503 817.498L502.33 815.737L501.905 814.282L500.677 813.688L499.983 813.527L499.463 813.125L498.966 812.602L498.328 812.097L497.595 811.783L495.91 811.342L495.161 811.036L492.379 809.315L490.788 808.6L489.694 808.672L488.221 809.106L486.795 808.349L486.11 806.879L486.835 805.143L485.519 803.543L484.502 803.037L481.627 803.069L481.138 802.933L478.98 802.008L475.861 801.429L474.852 802.12L472.474 805.141L471.128 806.202L467.299 806.902L465.898 807.738L466.489 809.442L465.568 810.044L464.724 811.082L464.087 812.159L463.55 813.759L462.786 814.25L458.675 815.335L458.588 815.328L456.8 816.341L455.546 816.02L454.318 815.529L453.483 815.594L453.388 816.928L452.522 816.646L452.175 816.212L451.978 815.674L451.568 815.088L450.891 814.565L450.537 814.525L450.237 814.702L449.74 814.848L449.725 814.919L448.709 815.329L448.379 815.361L446.503 815.273L445.794 815.04L445.29 814.542L445.155 814.116L441.973 814.204L410.181 813.882L410.056 813.206V809.179L409.883 808.045L409.505 807.13L409.143 806.43L408.97 805.963L408.648 805.393L407.931 804.774L407.214 803.955L406.56 801.849L405.134 800.66L404.812 800.073L404.237 798.475L402.811 797.182L400.968 796.21L397.676 795.092L397.054 795.011L396.487 795.212L395.518 796.063L395.014 796.119L394.526 795.525L392.84 792.36L393.297 792.118L393.952 791.605L394.401 791.348V790.867L393.194 790.174L392.203 789.036L391.526 787.526L391.282 785.751L391.092 785.053L390.62 784.451L390.013 784.026L388.634 783.68L388.272 783.191L388.035 782.508L387.633 781.745L384.002 778.606L383.427 777.242L383.207 775.339L382.191 772.152L381.861 770.563L382.238 768.605L384.459 765.741L385.861 762.573L386.026 761.77V758.328L387.01 753.476L386.718 751.446L387.183 750.789L388.112 750.092L387.915 749.09L387.458 748.536L386.961 748.176L386.638 747.734L386.504 747.39L386.024 746.676L387.033 745.041L386.97 743.349L386.246 741.786L384.607 739.839L384.403 739.382L384.465 737.891L384.253 736.985L383.733 736.832L383.071 736.872L382.425 736.568L381.81 735.686L381.306 734.668L380.952 733.594L380.826 732.568L380.984 731.575L381.693 729.836L381.858 729.099L381.535 727.658L380.07 725.199L379.73 723.525L381.274 715.069L381.297 714.244L381.132 713.282L380.495 711.593L379.77 707.479L377.241 701.765L376.658 699.124L376.816 698.355L377.493 696.844L377.65 695.956L377.548 695.115L376.658 692.466L374.366 689.211L373.499 687.62L365.89 678.154L365.803 677.834L364.424 676.498L364.077 676.306L362.384 674.547L361.942 673.931L361.565 672.468L361.375 671.085L360.895 670.062L358.618 669.231L351.206 661.368L351.167 661.349L351.163 661.345L349 660.353L347.684 658.907L347.11 658.572L344.527 655.426L343.471 654.834L342.746 653.972L342.645 653.905L340.281 652.343L337.634 651.377L336.398 652.487L335.468 653.549L333.673 655.042L332.539 656.983L333.957 660.434L333.815 661.784L333.28 664.116L333.225 665.529L332.957 666.537L332.328 667.328L331.201 668.071V668.598L329.95 669.965L329.06 669.317L328.233 667.782L326.398 666.223L324.24 664.929L322.452 664.194L320.474 662.892L318.528 660.918L316.441 659.616L313.995 660.295L311.979 661.437L310.041 661.692L310.003 661.686L308.001 661.333L305.677 660.598L303.094 660.326L301.243 661.1L299.447 662.155L297.077 662.73L293.91 662.506L292.437 662.051L291.263 661.22L290.346 659.774L289.035 656.907L287.624 655.572L283.338 652.513L281.975 652.033L281.298 652.161L280.092 652.96L279.438 653.168L278.524 653.081L276.941 652.601L275.877 652.609L275.373 652.857L274.324 653.728L273.632 653.968L273.348 653.799L271.115 652.913L269.062 652.458L268.37 652.178L263.675 648.528L259.862 644.72L258.523 643.937L257.042 644.001L255.593 644.744L254.412 645.999ZM786.015 509.56L787.181 510.856L787.057 513.335L785.842 518.518L783.671 523.514L782.653 524.903L782.504 525.473L782.517 525.961L782.417 526.462L781.896 528.039L781.667 528.452L781.004 529.353L780.867 529.899L780.496 530.819H779.59L777.481 530.192L775.266 530.918L774.299 532.584L773.834 534.351L773.108 535.39L770.094 536.581L768.551 536.931L767.285 536.969L765.748 536.343L763.732 534.181L762.503 533.242L763.217 533.072L764.507 533.021L765.152 532.759L765.164 532.546L765.363 531.994L765.61 531.493L765.722 531.475L765.896 530.892L766.33 530.755L766.851 530.793L767.285 530.656L770.573 527.455L771.676 525.696L770.969 524.833L771.396 523.543L772.271 522.942L773.461 522.779L774.857 522.791L776.128 522.534L778.509 521.426L779.811 521.163L779.39 520.543L778.67 520.43L776.697 520.636V520.161L777.615 519.936L778.422 519.509L779.811 518.533L781.442 517.857L782.144 517.257L782.671 515.285L783.285 514.14L784.042 513.139L784.717 512.714L785.089 512.314L785.864 510.33L786.015 509.56ZM759.17 408.476L759.449 409.168L761.502 412.801L761.155 416.116L759.232 418.419L756.503 419.336L753.7 418.513L752.596 417.521L751.566 416.173L750.822 414.637L749.321 408.103L749.495 406.955L747.784 407.48L747.796 408.309L748.51 409.32L748.974 410.362L748.881 412.084L748.508 412.503L746.381 411.71L746.715 410.237L746.281 409.057L744.296 406.954L741.901 403.248L741.232 402.687L740.649 402.201L739.613 402.768V403.329L740.059 403.397L740.115 403.622L740.053 403.958L740.134 404.377L739.11 403.665L738.788 404.863L739.055 406.592L739.875 407.478L739.688 407.577L739.57 407.745L739.279 407.782L738.571 407.476L737.882 407.033L737.622 406.74L737.448 406.428L733.602 401.979L732.882 400.775L731.909 397.331L731.239 395.953L733.975 392.603L733.355 388.174L731.941 383.414L732.276 379.111L732.189 378.175L732.263 377.277L732.474 376.497L732.797 375.93L733.026 376.335L733.615 377.121L733.838 377.544L735.109 375.473L737.833 373.204L739.092 371.738L739.719 369.325L740.252 363.658L741.641 362.273L742.534 364.611L744.86 368.813L745.325 371.506L744.785 374.729L744.755 375.926L744.99 377.104L745.659 379.286L745.795 380.414L746.142 381.605L747.606 384.012L748.45 387.524L748.915 387.793L750.533 388.048L750.7 389.077L750.507 390.012L750.179 390.96L750.01 391.996L750.047 393.219L750.195 394.148L750.506 395.002L751.051 395.944L750.139 397.073L749.748 397.697L749.486 398.563L750.59 398.096L751.273 398.563L751.849 399.424L752.612 400.092L752.667 398.956L753.169 398.207L753.784 398.151L754.163 399.086L754.51 399.042L754.603 398.991V398.86L754.696 398.56L755.925 398.878L755.937 397.281L755.578 395.004L755.74 393.326L757.067 395.079L757.748 397.257L759.17 408.476ZM766.761 338.964L766.798 336.285L767.096 335.064L767.803 334.005L767.333 333.183L768.288 333.021L770.967 333.482L770.353 332.399L768.759 330.442L768.325 329.259L769.515 329.565L771.016 329.677L772.362 329.446L773.107 328.735L772.232 328.537L771.488 328.257L770.874 327.827L770.397 327.167L771.588 327.179L773.411 326.706L774.614 326.643L775.991 327.36L776.747 327.141L777.268 325.596L775.729 326.169L773.869 325.646L770.395 323.453L769.645 323.939L768.714 323.654L767.852 322.874L767.282 321.884L768.101 322.22L768.641 322.613L769.156 322.762L769.876 322.408L770.608 322.633L773.2 323.025L774.614 322.981L774.044 322.408L774.626 320.925L774.34 319.661L773.521 319.256L772.491 320.328L772.888 318.77L773.105 318.278L772.659 317.711L772.063 317.337L771.3 317.306L770.395 317.798L770.57 316.952L770.687 316.603L770.967 316.143L770.657 315.234L770.756 314.15L771.153 313.34L771.73 313.272L772.63 313.701L773.039 313.44L772.978 312.779L772.494 312.008L771.837 311.621L769.368 310.675L769.591 309.946L770.646 309.093L770.969 308.303L769.877 308.826L769.257 307.412L769.666 306.304L770.696 305.943L772.025 306.733L772.323 305.506L771.467 304.791L770.226 304.124L769.37 303.079L769.333 302.196L769.798 300.055L769.891 298.89L770.065 299.283L770.246 299.601L770.463 299.825L770.692 299.9L771.28 300.236L771.696 300.965L771.95 301.701L772.025 302.037L772.868 301.919L773.154 301.352L773.315 300.724L773.785 300.424L774.17 300.692L775.399 301.919L775.659 302.274L779.176 304.291L779.815 304.889L779.863 305.766L780.05 306.532L780.366 306.811L780.869 306.214L780.814 305.598L780.522 304.863L780.534 304.01L781.441 303.082L781.522 303.643L781.788 304.216L781.899 304.652L782.526 303.394L782.972 301.863L783.14 300.418L782.992 299.422L784.022 300.094V301.656L783.823 303.481L784.685 306.345L783.83 307.727L782.471 308.798L781.441 309.309L781.82 310.666L781.578 312.148L781.114 313.649L780.872 315.099L781.604 317.392L781.673 317.803L782.374 317.479L782.437 316.75L782.301 316.003L782.425 315.622L783.392 316.045L783.516 317.39L782.995 320.329L782.971 324.839L782.425 326.073L782.995 326.646L782.083 327.717L779.819 334.482L779.235 335.304L778.919 335.628L778.807 336.114L778.777 337.41L778.43 338.419L777.76 338.593L777.32 337.975L777.692 336.611H777.276L776.761 337.856L776.495 338.312L776.136 338.705L776.389 339.515L775.986 340.369L775.13 341.161L774.051 341.845L773.319 342.044L773.114 341.757L773.374 341.271L774.05 340.847V340.274L772.965 340.548L772.145 341.058L771.519 341.183L770.973 340.274L768.318 340.361L767.215 340.001L766.761 338.964ZM774.305 537.041L776.752 536.769L778.474 536.859L778.836 537.947L778.02 538.945L774.847 542.482L772.582 544.566L771.314 544.476L770.862 543.208L771.315 541.213L772.222 539.581L774.305 537.041ZM734.981 366.164L734.929 367.213L735.297 368.576L735.927 369.519L735.403 370.304L735.875 371.299L735.876 372.818L734.933 373.028L734.094 372.976L733.937 371.875L734.093 370.512L734.301 368.363L734.09 366.791L734.981 366.164ZM761.607 337.476L762.277 337.832L763.393 338.544L764.196 339.658L765.091 341.04L766.295 341.485L767.455 341.795L768.214 342.774L768.037 343.711L765.986 343.847L764.647 342.779L763.486 341.399L762.816 340.419L761.924 339.484L761.12 338.37L761.607 337.476ZM260.88 63.3202L261.642 62.9611L264.312 62.8938L265.951 62.6019L266.803 62.579L267.432 62.8938L267.835 63.522L267.879 64.0156L267.565 64.196L266.913 63.927H266.443L266.644 64.5322L267.296 65.4079L267.43 65.7228L267.363 66.6658L267.161 67.0249L266.825 67.2053L265.815 68.2384L263.279 70.1687L263.033 69.8768L262.764 69.7866L262.518 69.7423L262.226 69.6521L260.812 68.2384L260.207 67.4085L260.386 67.0494L260.722 66.6673L260.632 65.8374L260.34 64.9387L260.094 64.3992H261.149L260.88 63.3202ZM274.677 88.2382L274.587 88.6646L274.228 89.5174L273.893 89.3844L273.221 89.4288L272.906 89.9224L273.669 91.0901L271.246 90.8883L269.631 89.7879L268.24 88.4185L266.446 87.4526L266.131 88.3054L265.526 88.7991L264.696 88.8893L263.731 88.4858L260.141 85.7241L258.818 85.3206L255.003 85.209L253.163 84.6925L251.503 83.5034L250.65 83.2344L249.932 83.5493L249.26 83.6624L248.609 82.7194L248.632 82.0454L249.035 81.35L251.862 78.4095L252.602 77.3763L252.76 76.4563L252.199 76.2316L250.067 76.0299L249.707 75.8954H249.124L248.742 75.0869L247.575 73.852L247.105 72.7745L247.844 72.8188L248.361 72.909L248.743 73.2009L249.125 73.852L250.381 73.2238L251.279 72.6171L252.76 71.2706L253.365 70.5294L253.701 70.2818L254.373 70.1702L254.71 70.2818L256.1 70.8885L256.46 71.2706L256.235 72.5055L255.563 73.3583L255.226 74.2111L255.945 75.3788L259.871 77.5108L261.89 76.7925L262.226 76.7023L262.518 76.1414H263.169L263.774 76.3218L264.02 76.4563L267.856 75.5362L268.462 75.6478L268.821 76.7482L269.405 77.87L269.606 79.0376L268.102 81.4845L268.775 82.0912L271.647 82.7194V83.2803L270.704 83.8198L271.399 84.8743L273.666 86.9406L274.048 87.121L274.384 87.0308L274.63 87.0751L274.72 87.6819L274.677 88.2382ZM178.114 109.928L177.576 110.512L174.727 112.78L173.561 113.297L172.664 112.847L172.08 111.814L171.879 110.67L172.08 109.525L172.887 107.818L172.864 106.762L172.394 105.976L170.868 104.674L170.263 103.641L171.295 102.788L170.69 102.339L169.209 102.271L167.66 102.653L167.144 99.9819L168.243 100.207L169.073 99.6227L169.589 98.5896L169.791 97.399L168.085 97.9828L168.287 96.0296L169.791 92.1232H170.262L170.329 93.65L171.137 94.1895L172.057 94.6159L172.394 95.267L173.269 97.4006L173.561 99.8031L174.234 101.824L176.299 102.655L177.196 102.722L177.15 103.08L176.723 103.865L176.566 105.235L176.948 106.358L177.666 107.413L178.204 108.536L178.114 109.928ZM224.713 103.08L223.86 104.361L223.255 105.551L223.57 106.763L223.727 106.538L223.772 106.448L223.816 106.358L224.108 106.201L223.816 107.391L222.852 108.424L221.73 109.008L220.944 108.851L220.226 109.592L219.486 110.086L218.679 110.243L217.849 109.928L217.333 108.648L217.154 107.098L216.728 105.796L215.471 105.235L215.292 104.269L217.29 98.4306L217.626 99.3064L218.254 99.823L218.905 99.7786L219.422 98.9029H219.893L219.668 102.137L220.408 102.922L222.494 102.653L222.248 102.002L222.023 99.9819H222.494L223.324 100.139L224.154 99.7129L224.826 99.8245L225.141 101.599L224.713 103.08ZM189.557 100.52L188.054 104.203L187.09 104.944L185.811 105.461L184.51 105.73H183.366L183.456 105.82L183.21 105.978L182.828 106.135L182.536 106.202L182.267 106.068L182.29 105.776L182.357 105.461L182.29 105.236L182.044 104.877L181.932 104.383L181.64 104.182L180.766 104.675L181.237 103.71L182.314 102.767L183.1 101.733L182.808 100.521L182.112 100.274L180.497 100.476L180.205 99.9819L180.497 99.3079L181.192 98.8815L182.291 98.4322L183.705 97.6237L184.961 96.7036L186.195 95.9853L187.585 95.8279L187.63 96.6807L187.741 97.0169L188.056 97.399L188.573 96.8595L188.192 97.4433L187.923 98.0715L187.698 98.7455L187.587 99.4638H188.058L188.797 98.4077L189.381 98.5422L189.673 99.3736L189.557 100.52ZM167.054 88.8449L166.627 88.4858L166.245 87.4083L166.268 86.3538L166.604 85.3206L167.142 84.2661L167.659 84.8499L167.569 85.9503L167.838 86.9376L168.466 87.6559L169.497 87.9035L170.865 88.1282L170.596 88.5775L169.206 89.2729L168.825 89.7222L167.949 89.4303L167.054 88.8449ZM170.194 62.984L171.024 62.041L171.764 60.9865L171.876 59.235H172.212L172.436 59.3466L172.863 59.7501L172.728 61.3884L172.077 62.5561L169.789 64.3962L170.194 62.984ZM176.566 50.3462L176.432 52.4568L175.736 54.6347L173.425 58.72L173.963 55.2629V53.9836L174.008 54.2526V54.4544L174.098 54.5889L174.48 54.5446L174.457 51.7171L174.165 50.4379L173.425 49.2932L175.713 48.4633L176.026 48.5076L176.318 48.8225L178.113 49.8098L179.144 51.0217L179.458 51.5826L179.659 52.4125L176.566 50.3462Z" fill="#EBEAE4"/>
</svg>