<svg width="10" height="10" viewBox="0 0 10 10" fill="none" xmlns="http://www.w3.org/2000/svg">
<path d="M8.04169 4.19463L5.20098 6.79863C5.1746 6.82284 5.14327 6.84205 5.10878 6.85515C5.0743 6.86826 5.03733 6.875 5 6.875C4.96267 6.875 4.9257 6.86826 4.89122 6.85515C4.85673 6.84205 4.8254 6.82284 4.79902 6.79863L1.95831 4.19463C1.91854 4.15821 1.89145 4.1118 1.88047 4.06126C1.86949 4.01072 1.87512 3.95833 1.89664 3.91072C1.91816 3.86311 1.9546 3.82243 2.00136 3.79382C2.04811 3.76521 2.10308 3.74996 2.15929 3.75H7.84071C7.89692 3.74996 7.95189 3.76521 7.99864 3.79382C8.0454 3.82243 8.08184 3.86311 8.10336 3.91072C8.12488 3.95833 8.13051 4.01072 8.11953 4.06126C8.10855 4.1118 8.08146 4.15821 8.04169 4.19463Z" fill="#4A4D49"/>
</svg>
